SplineFontDB: 3.2
FontName: D-DIN-PRO-Condensed-Heavy-Italic
FullName: D-DIN-PRO-Condensed-Heavy-Italic
FamilyName: D-DIN-PRO-Condensed
Weight: Heavy
Copyright: Copyright (c) CyberFei. All rights reserved
Version: 1.1.0
ItalicAngle: -13
UnderlinePosition: -150
UnderlineWidth: 50
Ascent: 831
Descent: 169
InvalidEm: 0
sfntRevision: 0x0001199a
LayerCount: 2
Layer: 0 0 "Back" 1
Layer: 1 0 "Fore" 0
XUID: [1021 868 -1451673819 22073]
StyleMap: 0x0020
FSType: 4
OS2Version: 3
OS2_WeightWidthSlopeOnly: 0
OS2_UseTypoMetrics: 0
CreationTime: 1462909513
ModificationTime: 1778060080
PfmFamily: 17
TTFWeight: 900
TTFWidth: 3
LineGap: 86
VLineGap: 0
Panose: 2 11 8 6 3 2 2 3 2 4
OS2TypoAscent: 831
OS2TypoAOffset: 0
OS2TypoDescent: -169
OS2TypoDOffset: 0
OS2TypoLinegap: 86
OS2WinAscent: 902
OS2WinAOffset: 0
OS2WinDescent: 184
OS2WinDOffset: 0
HheadAscent: 831
HheadAOffset: 0
HheadDescent: -169
HheadDOffset: 0
OS2SubXSize: 650
OS2SubYSize: 600
OS2SubXOff: 0
OS2SubYOff: 75
OS2SupXSize: 650
OS2SupYSize: 600
OS2SupXOff: 0
OS2SupYOff: 350
OS2StrikeYSize: 50
OS2StrikeYPos: 316
OS2CapHeight: 690
OS2XHeight: 528
OS2Vendor: 'MONO'
OS2CodePages: 20000001.00000000
OS2UnicodeRanges: 8000006f.4000000a.00000000.00000000
Lookup: 1 0 0 "'rtla' Right to Left Alternates lookup 0" { "'rtla' Right to Left Alternates lookup 0 subtable"  } ['rtla' ('DFLT' <'dflt' > ) ]
Lookup: 1 0 0 "'sups' Superscript lookup 1" { "'sups' Superscript lookup 1 subtable" ("superior") } ['sups' ('DFLT' <'dflt' > ) ]
Lookup: 4 0 0 "'frac' Diagonal Fractions lookup 2" { "'frac' Diagonal Fractions lookup 2 subtable"  } ['frac' ('DFLT' <'dflt' > ) ]
Lookup: 4 0 0 "'dlig' Discretionary Ligatures in Latin lookup 3" { "'dlig' Discretionary Ligatures in Latin lookup 3 subtable"  } ['dlig' ('latn' <'dflt' > ) ]
Lookup: 4 0 1 "'liga' Standard Ligatures in Latin lookup 4" { "'liga' Standard Ligatures in Latin lookup 4 subtable"  } ['liga' ('latn' <'dflt' > ) ]

StartChar: .notdef
Encoding: 65536 -1 0
Width: 595
GlyphClass: 1
Flags: MW
HStem: 1.17969 66.5<97.8574 376.207 97.8574 427.354> 624.38 66.5<226.382 504.731 226.382 226.382>
VStem: 100.137 66.5 444.986 66.5
LayerCount: 2
Fore
SplineSet
175.234375 690.879882812 m 1
 586.583984375 690.879882812 l 1
 427.354492188 1.1796875 l 1
 16.0048828125 1.1796875 l 1
 175.234375 690.879882812 l 1
97.857421875 67.6796875 m 1
 376.20703125 67.6796875 l 1
 504.731445312 624.379882812 l 1
 226.381835938 624.379882812 l 1
 97.857421875 67.6796875 l 1
EndSplineSet
EndChar

StartChar: exclam
Encoding: 33 33 3
Width: 219
GlyphClass: 2
Flags: MW
HStem: 1.17969 154.85<2.35449 104.354 -33.3955 140.104> 670.88 20G<117.338 273.03 273.03 273.03>
VStem: 50.7363 137.75 66.7871 106.599
LayerCount: 2
Fore
SplineSet
273.030273438 690.879882812 m 1xd0
 137.504882812 210.1796875 l 1
 30.90625 210.1796875 l 1
 117.337890625 690.879882812 l 1
 273.030273438 690.879882812 l 1xd0
2.3544921875 156.029296875 m 1xe0
 140.104492188 156.029296875 l 1
 104.354492188 1.1796875 l 1
 -33.3955078125 1.1796875 l 1
 2.3544921875 156.029296875 l 1xe0
EndSplineSet
EndChar

StartChar: quotedbl
Encoding: 34 34 4
Width: 356
GlyphClass: 2
Flags: MW
HStem: 379.279 311.601<106.834 176.445 34.8955 248.384 205.896 205.896 205.896 248.384 277.834 347.445>
VStem: 31.7363 141.55 202.736 141.55
LayerCount: 2
Fore
SplineSet
106.833984375 690.879882812 m 1
 248.383789062 690.879882812 l 1
 176.4453125 379.279296875 l 1
 34.8955078125 379.279296875 l 1
 106.833984375 690.879882812 l 1
277.833984375 690.879882812 m 1
 419.383789062 690.879882812 l 1
 347.4453125 379.279296875 l 1
 205.895507812 379.279296875 l 1
 277.833984375 690.879882812 l 1
EndSplineSet
EndChar

StartChar: numbersign
Encoding: 35 35 5
Width: 463
GlyphClass: 2
Flags: MW
HStem: 203.529 112.101<5.95117 37.1123 -19.9297 75.0918 195.93 209.062 5.95117 158.896 367.88 408.521> 390.68 112.1<68.1572 100.249 42.2773 137.324 68.1572 221.087 259.022 271.249 430.118 469.777> 670.88 20G<200.7 321.449 321.449 321.449 371.623 493.495 493.495 493.495>
LayerCount: 2
Fore
SplineSet
495.657226562 502.779296875 m 1
 469.77734375 390.6796875 l 1
 393.037109375 390.6796875 l 1
 367.879882812 315.629882812 l 1
 434.401367188 315.629882812 l 1
 408.520507812 203.529296875 l 1
 329.896484375 203.529296875 l 1
 262.280273438 1.1796875 l 1
 141.446289062 1.1796875 l 1
 209.0625 203.529296875 l 1
 158.896484375 203.529296875 l 1
 91.2802734375 1.1796875 l 1
 -30.50390625 1.1796875 l 1
 37.1123046875 203.529296875 l 1
 -19.9296875 203.529296875 l 1
 5.951171875 315.629882812 l 1
 75.091796875 315.629882812 l 1
 100.249023438 390.6796875 l 1
 42.27734375 390.6796875 l 1
 68.1572265625 502.779296875 l 1
 137.32421875 502.779296875 l 1
 200.700195312 690.879882812 l 1
 321.44921875 690.879882812 l 1
 259.022460938 502.779296875 l 1
 309.196289062 502.779296875 l 1
 371.623046875 690.879882812 l 1
 493.495117188 690.879882812 l 1
 430.118164062 502.779296875 l 1
 495.657226562 502.779296875 l 1
246.091796875 315.629882812 m 1
 271.249023438 390.6796875 l 1
 221.086914062 390.6796875 l 1
 195.9296875 315.629882812 l 1
 246.091796875 315.629882812 l 1
EndSplineSet
EndChar

StartChar: dollar
Encoding: 36 36 6
Width: 430
GlyphClass: 2
Flags: MW
VStem: 27.9365 147.25 163.786 114.95 248.338 147.249
LayerCount: 2
Fore
SplineSet
131.940429688 302.834960938 m 2xa0
 52.7314453125 341.883789062 35.1533203125 396.85546875 55.2216796875 483.779296875 c 0xa0
 66.458984375 532.453125 89.259765625 574.040039062 124.15625 606.440429688 c 0
 155.063476562 635.137695312 191.658203125 653.774414062 232.294921875 662.337890625 c 1
 253.139648438 752.629882812 l 1
 368.08984375 752.629882812 l 1
 345.971679688 656.825195312 l 1x40
 386.861328125 640.751953125 438.971679688 596.806640625 414.571289062 476.662109375 c 2
 411.000976562 459.080078125 l 1
 270.352539062 459.080078125 l 1
 275.94921875 486.35546875 280.39453125 508.021484375 274.438476562 522.544921875 c 0
 271.841796875 528.877929688 266.26953125 533.1796875 250.92578125 533.1796875 c 0
 232.555664062 533.1796875 212.833007812 528.661132812 203.787109375 489.479492188 c 0
 198.094726562 464.823242188 200.791015625 446.202148438 234.740234375 431.240234375 c 2
 275.314453125 413.149414062 l 2
 359.857421875 374.6796875 384.251953125 316.5 361.680664062 218.729492188 c 0
 350.573242188 170.619140625 330.404296875 129.682617188 300.138671875 97.2841796875 c 0
 273.208984375 68.4560546875 240.256835938 48.423828125 203.002929688 37.546875 c 1
 184.737304688 -41.5703125 l 1
 69.787109375 -41.5703125 l 1
 86.2861328125 29.8955078125 l 1
 34.388671875 38.970703125 -41.041015625 76.2763671875 -11.3212890625 220.206054688 c 2
 -7.703125 237.729492188 l 1
 135.35546875 237.729492188 l 1
 130.323242188 210.092773438 126.259765625 187.779296875 134.282226562 172.50390625 c 0
 138.611328125 164.26171875 145.97265625 159.830078125 160.93359375 159.830078125 c 0
 177.255859375 159.830078125 186.608398438 164.309570312 193.235351562 170.840820312 c 0
 200.315429688 177.818359375 208.340820312 192.34765625 213.7734375 215.879882812 c 0
 217.627929688 232.576171875 216.111328125 244.037109375 211.014648438 252.375 c 0
 205.5078125 261.3828125 193.411132812 271.784179688 173.591796875 281.971679688 c 0
 173.470703125 282.032226562 131.940429688 302.834960938 131.940429688 302.834960938 c 2xa0
176.987304688 673.779296875 m 1024
EndSplineSet
EndChar

StartChar: percent
Encoding: 37 37 7
Width: 749
GlyphClass: 2
Flags: MW
HStem: -5.4707 21G<507.037 584.793> 678.479 20G<532.758 647.16 647.16 647.16>
VStem: 33.6367 112.101 167.588 111.148 487.738 112.101 621.688 111.149
LayerCount: 2
Fore
SplineSet
532.7578125 698.479492188 m 1
 647.16015625 698.479492188 l 1
 226.436523438 1.1796875 l 1
 112.034179688 1.1796875 l 1
 532.7578125 698.479492188 l 1
130.39453125 253.879882812 m 0
 95.2265625 253.879882812 9.615234375 261.545898438 36.357421875 377.379882812 c 2
 81.5380859375 573.080078125 l 2
 87.60546875 599.361328125 112.256835938 696.580078125 232.600585938 696.580078125 c 0
 267.768554688 696.580078125 353.379882812 688.9140625 326.637695312 573.080078125 c 2
 281.45703125 377.379882812 l 2
 275.389648438 351.09765625 250.73828125 253.879882812 130.39453125 253.879882812 c 0
172.940429688 388.779296875 m 2
 212.857421875 561.6796875 l 2
 216.521484375 577.55078125 216.737304688 587.643554688 216.157226562 590.041992188 c 2
 216.157226562 590.041992188 216.061523438 590.377929688 216.060546875 590.37890625 c 2
 216.060546875 590.37890625 216.268554688 592.080078125 208.4765625 592.080078125 c 0
 203.538085938 592.080078125 201.296875 591.025390625 201.0078125 590.875 c 0
 199.056640625 587.963867188 195.337890625 580.439453125 191.006835938 561.6796875 c 2
 151.08984375 388.779296875 l 2
 147.07421875 371.387695312 147.377929688 361.073242188 147.802734375 359.633789062 c 0
 147.734375 359.337890625 148.015625 358.379882812 154.521484375 358.379882812 c 0
 161.975585938 358.379882812 162.629882812 360.126953125 162.723632812 360.236328125 c 0
 163.75390625 361.448242188 168.93359375 371.423828125 172.940429688 388.779296875 c 2
524.62109375 -5.470703125 m 0
 489.453125 -5.470703125 403.840820312 2.1953125 430.583007812 118.029296875 c 2
 475.763671875 313.729492188 l 2
 481.83203125 340.01171875 506.482421875 437.229492188 626.826171875 437.229492188 c 0
 661.994140625 437.229492188 747.606445312 429.563476562 720.86328125 313.729492188 c 2
 675.682617188 118.029296875 l 2
 669.615234375 91.748046875 644.96484375 -5.470703125 524.62109375 -5.470703125 c 0
567.165039062 129.4296875 m 2
 607.08203125 302.330078125 l 2
 610.74609375 318.200195312 610.9609375 328.29296875 610.381835938 330.69140625 c 2
 610.381835938 330.69140625 610.287109375 331.021484375 610.284179688 331.029296875 c 2
 610.284179688 331.029296875 610.481445312 332.729492188 602.701171875 332.729492188 c 0
 597.763671875 332.729492188 595.522460938 331.674804688 595.234375 331.524414062 c 0
 593.282226562 328.614257812 589.563476562 321.08984375 585.232421875 302.330078125 c 2
 545.315429688 129.4296875 l 2
 541.30078125 112.038085938 541.604492188 101.72265625 542.028320312 100.284179688 c 0
 541.959960938 99.98828125 542.241210938 99.029296875 548.747070312 99.029296875 c 0
 556.202148438 99.029296875 556.857421875 100.77734375 556.94921875 100.88671875 c 0
 557.977539062 102.096679688 563.158203125 112.073242188 567.165039062 129.4296875 c 2
EndSplineSet
EndChar

StartChar: ampersand
Encoding: 38 38 8
Width: 512
GlyphClass: 2
Flags: MW
HStem: -8.32324 135.851<151.39 157.044> 680.38 20G<295.347 342.325>
VStem: 40.2861 144.402 77.3369 139.65 265.438 139.649
LayerCount: 2
Fore
SplineSet
445.092773438 538.879882812 m 0xd8
 428.295898438 466.123046875 370.168945312 404.516601562 311.16015625 352.422851562 c 1
 333.88671875 290.5234375 l 1
 386.471679688 352.20703125 l 1
 476.739257812 278.53515625 l 1
 379.392578125 167.119140625 l 1
 381.81640625 160.544921875 384.249023438 153.978515625 386.66796875 147.400390625 c 0
 391.3671875 133.616210938 397.31640625 131.327148438 407.052734375 131.327148438 c 2
 435.552734375 131.327148438 l 1
 405.504882812 1.1767578125 l 1
 342.8046875 1.1767578125 l 2
 299.349609375 1.1767578125 282.125 14.66015625 266.676757812 44.5068359375 c 1
 240.190429688 22.388671875 194.828125 -8.3232421875 119.260742188 -8.3232421875 c 0
 71.232421875 -8.3232421875 33.9951171875 7.1796875 10.521484375 38.62890625 c 0
 -12.990234375 70.1279296875 -18.2421875 112.080078125 -6.78125 161.7265625 c 0xe8
 10.9345703125 238.458007812 64.587890625 301.737304688 142.576171875 370.038085938 c 1
 112.024414062 452.981445312 106.448242188 491.690429688 117.342773438 538.879882812 c 0
 128.145507812 585.669921875 152.555664062 625.53125 190.296875 655.611328125 c 0
 227.975585938 685.641601562 271.715820312 700.379882812 318.977539062 700.379882812 c 0
 365.672851562 700.379882812 402.265625 685.58984375 426.036132812 655.611328125 c 0
 449.888671875 625.53125 455.895507812 585.669921875 445.092773438 538.879882812 c 0xd8
291.123046875 579.7265625 m 0
 285.125976562 579.7265625 266.422851562 579.7265625 258.30859375 544.577148438 c 0xd8
 252.5859375 519.791992188 261.78125 489.443359375 265.93359375 475.962890625 c 1
 283.932617188 494.306640625 299.40625 512.728515625 306.758789062 544.577148438 c 0
 310.184570312 559.415039062 308.89453125 568.12890625 306.203125 572.68359375 c 0
 303.413085938 577.407226562 299.590820312 579.7265625 291.123046875 579.7265625 c 0
188.03515625 249.182617188 m 1
 166.76953125 227.842773438 147.499023438 204.510742188 140.252929688 173.125976562 c 0xe8
 134.01171875 146.090820312 138.853515625 127.52734375 163.92578125 127.52734375 c 0
 182.305664062 127.52734375 197.784179688 136.263671875 221.984375 159.897460938 c 1
 188.03515625 249.182617188 l 1
EndSplineSet
EndChar

StartChar: quotesingle
Encoding: 39 39 9
Width: 184
GlyphClass: 2
Flags: MW
HStem: 379.279 311.601<106.834 176.445 34.8955 248.384>
VStem: 31.7363 141.55
LayerCount: 2
Fore
SplineSet
106.833984375 690.879882812 m 1
 248.383789062 690.879882812 l 1
 176.4453125 379.279296875 l 1
 34.8955078125 379.279296875 l 1
 106.833984375 690.879882812 l 1
EndSplineSet
EndChar

StartChar: parenleft
Encoding: 40 40 10
Width: 281
GlyphClass: 2
Flags: MW
VStem: 40.2861 142.5
LayerCount: 2
Fore
SplineSet
32.0400390625 329.877929688 m 0
 59.35546875 448.192382812 115.271484375 591.2421875 218.25390625 729.103515625 c 2
 225.180664062 738.377929688 l 1
 355.201171875 738.377929688 l 1
 340.015625 714.76953125 l 2
 310.849609375 669.427734375 218.85546875 521.827148438 174.540039062 329.87890625 c 0
 155.005859375 245.264648438 133.799804688 101.997070312 162.296875 -55.0126953125 c 2
 166.58203125 -78.6201171875 l 1
 36.5615234375 -78.6201171875 l 1
 23.1025390625 -31.435546875 -18.0615234375 112.865234375 32.0400390625 329.877929688 c 0
EndSplineSet
Substitution2: "'rtla' Right to Left Alternates lookup 0 subtable" parenright
EndChar

StartChar: parenright
Encoding: 41 41 11
Width: 281
GlyphClass: 2
Flags: MW
VStem: 118.187 142.5
LayerCount: 2
Fore
SplineSet
109.940429688 329.879882812 m 0
 129.475585938 414.495117188 150.682617188 557.762695312 122.18359375 714.771484375 c 2
 117.899414062 738.379882812 l 1
 247.919921875 738.379882812 l 1
 261.37890625 691.194335938 302.54296875 546.89453125 252.440429688 329.879882812 c 0
 225.125976562 211.565429688 169.209960938 68.515625 66.228515625 -69.345703125 c 2
 59.2998046875 -78.6201171875 l 1
 -70.720703125 -78.6201171875 l 1
 -55.53515625 -55.0126953125 l 2
 -26.3681640625 -9.6689453125 65.6259765625 137.931640625 109.940429688 329.879882812 c 0
EndSplineSet
Substitution2: "'rtla' Right to Left Alternates lookup 0 subtable" parenleft
EndChar

StartChar: asterisk
Encoding: 42 42 12
Width: 342
GlyphClass: 2
Flags: MW
HStem: 373.58 317.3<207.534 231.181 134.28 304.435>
VStem: 132.437 96.9004
LayerCount: 2
Fore
SplineSet
231.180664062 373.580078125 m 1
 134.280273438 373.580078125 l 1
 153.075195312 454.990234375 l 1
 93.091796875 424.2109375 l 1
 66.6767578125 502.418945312 l 1
 128.848632812 534.206054688 l 1
 80.666015625 566.83984375 l 1
 144.478515625 646.916015625 l 1
 190.274414062 616.120117188 l 1
 207.534179688 690.879882812 l 1
 304.434570312 690.879882812 l 1
 286.736328125 614.219726562 l 1
 346.717773438 644.999023438 l 1
 373.165039062 566.69921875 l 1
 310.024414062 534.82421875 l 1
 358.977539062 501.28515625 l 1
 295.2265625 422.365234375 l 1
 249.536132812 453.08984375 l 1
 231.180664062 373.580078125 l 1
EndSplineSet
EndChar

StartChar: plus
Encoding: 43 43 13
Width: 422
GlyphClass: 2
Flags: MW
HStem: 210.18 139.65<30.9473 114.605 -1.29395 146.847 286.497 370.155 30.9473 254.256>
VStem: 150.486 139.65
LayerCount: 2
Fore
SplineSet
254.255859375 210.1796875 m 1
 227.498046875 94.279296875 l 1
 87.84765625 94.279296875 l 1
 114.60546875 210.1796875 l 1
 -1.2939453125 210.1796875 l 1
 30.947265625 349.830078125 l 1
 146.846679688 349.830078125 l 1
 173.604492188 465.729492188 l 1
 313.254882812 465.729492188 l 1
 286.497070312 349.830078125 l 1
 402.396484375 349.830078125 l 1
 370.155273438 210.1796875 l 1
 254.255859375 210.1796875 l 1
EndSplineSet
EndChar

StartChar: comma
Encoding: 44 44 14
Width: 184
GlyphClass: 2
Flags: MW
HStem: -169.443 331.173<-91.7871 126.22>
VStem: 31.7363 141.55
LayerCount: 2
Fore
SplineSet
-15.330078125 161.729492188 m 1
 126.219726562 161.729492188 l 1
 76.080078125 -55.451171875 l 1
 -91.787109375 -169.443359375 l 1
 -15.330078125 161.729492188 l 1
EndSplineSet
EndChar

StartChar: hyphen
Encoding: 45 45 15
Width: 356
GlyphClass: 2
Flags: MW
HStem: 277.63 138.7<51.999 315.428 19.9775 347.449>
VStem: 40.2861 295.45
LayerCount: 2
Fore
SplineSet
51.9990234375 416.330078125 m 1
 347.44921875 416.330078125 l 1
 315.427734375 277.629882812 l 1
 19.9775390625 277.629882812 l 1
 51.9990234375 416.330078125 l 1
EndSplineSet
EndChar

StartChar: period
Encoding: 46 46 16
Width: 188
GlyphClass: 2
Flags: MW
HStem: 1.17969 159.6<-15.5488 92.9551 -52.3955 129.802>
VStem: 31.7363 145.351
LayerCount: 2
Fore
SplineSet
-15.548828125 160.779296875 m 1
 129.801757812 160.779296875 l 1
 92.955078125 1.1796875 l 1
 -52.3955078125 1.1796875 l 1
 -15.548828125 160.779296875 l 1
EndSplineSet
EndChar

StartChar: slash
Encoding: 47 47 17
Width: 306
GlyphClass: 2
Flags: MW
HStem: -8.32031 21G<-49.4668 71.7402 -49.4668 -49.4668> 678.479 20G<243.49 365.695 365.695 365.695>
VStem: 36.8584 251.984
LayerCount: 2
Fore
SplineSet
365.6953125 698.479492188 m 1
 71.740234375 -8.3203125 l 1
 -49.466796875 -8.3203125 l 1
 243.490234375 698.479492188 l 1
 365.6953125 698.479492188 l 1
EndSplineSet
EndChar

StartChar: zero
Encoding: 48 48 18
Width: 411
GlyphClass: 2
Flags: MW
HStem: -8.32031 21G<79.0132 206.952>
VStem: 40.2861 151.051 240.737 150.1
LayerCount: 2
Fore
SplineSet
128.76171875 -8.3203125 m 0
 29.2646484375 -8.3203125 -34.384765625 42.16015625 0.896484375 194.98046875 c 2
 71.080078125 498.98046875 l 2
 87.234375 568.952148438 132.163085938 701.330078125 292.59765625 701.330078125 c 0
 393.205078125 701.330078125 456.631835938 650.5859375 421.630859375 498.979492188 c 2
 351.447265625 194.979492188 l 2
 332.889648438 114.598632812 285.141601562 -8.3203125 128.76171875 -8.3203125 c 0
201.567382812 195.930664062 m 2
 271.3125 498.030273438 l 2
 277.935546875 526.719726562 278.564453125 545.495117188 276.411132812 552.784179688 c 0
 274.668945312 558.680664062 271.569335938 561.680664062 260.356445312 561.680664062 c 0
 248.9296875 561.680664062 245.198242188 558.7421875 241.609375 553.741210938 c 0
 236.599609375 546.7578125 228.705078125 527.45703125 221.912109375 498.030273438 c 2
 152.166992188 195.930664062 l 2
 145.383789062 166.549804688 144.491210938 147.239257812 146.462890625 139.911132812 c 0
 148.057617188 133.984375 150.716796875 131.331054688 161.002929688 131.331054688 c 0
 172.215820312 131.331054688 176.69921875 134.331054688 181.163085938 140.2265625 c 0
 186.627929688 147.443359375 194.791015625 166.580078125 201.567382812 195.930664062 c 2
EndSplineSet
EndChar

StartChar: one
Encoding: 49 49 19
Width: 301
GlyphClass: 2
Flags: MW
HStem: 670.88 20G<206.229 348.134 348.134 348.134>
VStem: 120.087 152.949
LayerCount: 2
Fore
SplineSet
44.455078125 428.912109375 m 1
 85.98046875 608.778320312 l 1
 206.228515625 690.879882812 l 1
 348.133789062 690.879882812 l 1
 188.904296875 1.1796875 l 1
 35.955078125 1.1796875 l 1
 151.592773438 502.061523438 l 1
 44.455078125 428.912109375 l 1
EndSplineSet
Substitution2: "'sups' Superscript lookup 1 subtable" uni00B9
EndChar

StartChar: two
Encoding: 50 50 20
Width: 400
GlyphClass: 2
Flags: MW
HStem: 1.17969 139.65<162.711 299.104> 680.381 20G<265.408 315.584>
VStem: 40.2861 147.25 234.087 149.149
LayerCount: 2
Fore
SplineSet
410.959960938 485.6796875 m 2
 399.421875 435.703125 381.338867188 396.614257812 325.002929688 330.329101562 c 2
 325.002929688 330.329101562 211.90625 198.271484375 162.7109375 140.830078125 c 1
 331.344726562 140.830078125 l 1
 299.104492188 1.1796875 l 1
 -47.6455078125 1.1796875 l 1
 -19.1083984375 124.7890625 l 1
 212.623046875 397.657226562 l 2
 246.6875 438.671875 255.260742188 457.311523438 262.6875 489.48046875 c 2
 271.241210938 526.530273438 l 2
 279.356445312 561.680664062 264.254882812 561.680664062 255.606445312 561.680664062 c 0
 245.763671875 561.680664062 241.372070312 559.037109375 236.48046875 552.8515625 c 0
 232.056640625 547.2578125 227.102539062 536.975585938 223.59375 521.780273438 c 2
 209.557617188 460.98046875 l 1
 62.3076171875 460.98046875 l 1
 79.6337890625 536.030273438 l 2
 90.8740234375 584.715820312 116.208984375 625.717773438 155.4921875 655.8828125 c 0
 194.572265625 685.890625 240.338867188 700.380859375 290.477539062 700.380859375 c 0
 340.690429688 700.380859375 379.422851562 685.491210938 403.549804688 654.58984375 c 0
 427.6796875 623.684570312 433.176757812 581.913085938 421.70703125 532.229492188 c 2
 410.959960938 485.6796875 l 2
EndSplineSet
Substitution2: "'sups' Superscript lookup 1 subtable" uni00B2
EndChar

StartChar: three
Encoding: 51 51 21
Width: 402
GlyphClass: 2
Flags: MW
HStem: 286.181 138.7<171.774 181.554 139.753 215.475>
VStem: 35.5371 147.25 230.287 151.05
LayerCount: 2
Fore
SplineSet
332.112304688 360.825195312 m 1
 355.229492188 341.640625 369.395507812 313.872070312 350.939453125 233.9296875 c 2
 335.3671875 166.479492188 l 2
 323.232421875 113.916015625 298.262695312 70.2900390625 259.568359375 38.560546875 c 0
 220.803710938 6.7744140625 173.76171875 -8.3203125 121.161132812 -8.3203125 c 0
 68.1376953125 -8.3203125 28.0380859375 6.119140625 4.544921875 37.1376953125 c 0
 -18.716796875 67.8515625 -23.5361328125 109.72265625 -11.9677734375 159.831054688 c 2
 3.166015625 225.380859375 l 1
 150.416015625 225.380859375 l 1
 136.598632812 165.530273438 l 2
 128.703125 131.331054688 143.677734375 131.331054688 152.453125 131.331054688 c 0
 165.186523438 131.331054688 169.302734375 134.678710938 171.448242188 137.260742188 c 0
 175.7265625 142.409179688 181.448242188 154.052734375 185.633789062 172.180664062 c 2
 201.206054688 239.630859375 l 2
 206.32421875 261.802734375 205.693359375 275.186523438 203.787109375 279.5625 c 0
 202.81640625 281.788085938 198.391601562 286.180664062 181.553710938 286.180664062 c 2
 139.752929688 286.180664062 l 1
 171.774414062 424.880859375 l 1
 215.474609375 424.880859375 l 2
 231.708007812 424.880859375 237.549804688 429.129882812 239.125976562 430.909179688 c 0
 243.103515625 435.397460938 249.06640625 446.943359375 253.404296875 465.73046875 c 2
 265.905273438 519.880859375 l 2
 270.07421875 537.935546875 269.548828125 549.370117188 267.504882812 554.44921875 c 0
 266.225585938 557.625 263.3828125 560.73046875 251.586914062 560.73046875 c 0
 242.811523438 560.73046875 227.836914062 560.73046875 219.940429688 526.530273438 c 2
 206.78125 469.530273438 l 1
 59.53125 469.530273438 l 1
 74.2265625 533.180664062 l 2
 85.6953125 582.859375 110.45703125 624.521484375 148.860351562 655.135742188 c 0
 187.370117188 685.834960938 233.834960938 700.380859375 285.727539062 700.380859375 c 0
 338.233398438 700.380859375 378.20703125 685.6875 402.178710938 654.51953125 c 0
 426.188476562 623.3046875 430.74609375 579.612304688 418.491210938 526.529296875 c 2
 408.18359375 481.879882812 l 2
 391.395507812 409.1640625 361.314453125 379.420898438 332.112304688 360.825195312 c 1
EndSplineSet
Substitution2: "'sups' Superscript lookup 1 subtable" uni00B3
EndChar

StartChar: four
Encoding: 52 52 22
Width: 429
GlyphClass: 2
Flags: MW
HStem: 110.43 139.65<160 167.576 350.867 359.477 160 318.626> 670.88 20G<239.399 391.916 391.916 391.916>
VStem: 226.486 151.05
LayerCount: 2
Fore
SplineSet
350.8671875 250.080078125 m 1
 391.717773438 250.080078125 l 1
 359.4765625 110.4296875 l 1
 318.625976562 110.4296875 l 1
 293.404296875 1.1796875 l 1
 142.354492188 1.1796875 l 1
 167.576171875 110.4296875 l 1
 -29.0732421875 110.4296875 l 1
 -0.20703125 235.462890625 l 1
 239.399414062 690.879882812 l 1
 391.916015625 690.879882812 l 1
 235.971679688 394.479492188 l 1
 384.204101562 394.479492188 l 1
 350.8671875 250.080078125 l 1
199.817382812 250.080078125 m 1
 230.952148438 384.9375 l 1
 160 250.080078125 l 1
 199.817382812 250.080078125 l 1
EndSplineSet
EndChar

StartChar: five
Encoding: 53 53 23
Width: 408
GlyphClass: 2
Flags: MW
HStem: 327.03 135.851<196.328 300.844> 550.28 140.601<231.122 430.622 231.122 231.122>
VStem: 40.2852 149.15 47.8848 140.6 236.936 151.049
LayerCount: 2
Fore
SplineSet
267.944335938 462.880859375 m 0xd8
 333.744140625 462.880859375 403.51171875 432.8515625 371.185546875 292.831054688 c 2
 343.111328125 171.23046875 l 2
 330.060546875 114.702148438 305.36328125 69.1201171875 266.94921875 37.6123046875 c 0
 228.740234375 6.2734375 181.461914062 -8.3203125 127.810546875 -8.3203125 c 0
 74.158203125 -8.3203125 33.619140625 6.2734375 9.880859375 37.6123046875 c 0
 -13.8828125 68.9833984375 -17.892578125 113.600585938 -5.2451171875 168.380859375 c 2
 5.720703125 215.880859375 l 1
 154.87109375 215.880859375 l 1
 145.001953125 173.130859375 l 2xe8
 140.524414062 153.73828125 141.20703125 141.795898438 143.297851562 136.999023438 c 0
 144.9296875 133.25390625 148.017578125 130.380859375 158.881835938 130.380859375 c 0
 169.74609375 130.380859375 174.16015625 133.25390625 177.522460938 136.999023438 c 0
 181.828125 141.795898438 188.024414062 153.73828125 192.501953125 173.130859375 c 2
 219.040039062 288.081054688 l 2
 222.467773438 302.927734375 222.145507812 312.854492188 220.25 318.236328125 c 0
 218.157226562 324.177734375 214.75390625 327.030273438 204.282226562 327.030273438 c 0
 188.374023438 327.030273438 182.0703125 317.696289062 165.919921875 293.780273438 c 1
 31.3046875 293.780273438 l 1
 122.982421875 690.880859375 l 1
 463.08203125 690.880859375 l 1
 430.622070312 550.280273438 l 1
 231.122070312 550.280273438 l 1
 208.442382812 452.044921875 l 1
 226.958984375 459.381835938 246.955078125 462.880859375 267.944335938 462.880859375 c 0xd8
EndSplineSet
EndChar

StartChar: six
Encoding: 54 54 24
Width: 403
GlyphClass: 2
Flags: MW
HStem: -8.32031 21G<97.8247 151.528> 670.88 20G<265.761 423.622 423.622 423.622>
VStem: 36.4863 151.05 235.036 151.051
LayerCount: 2
Fore
SplineSet
265.021484375 441.979492188 m 0
 345.83984375 441.979492188 390.759765625 385.834960938 366.436523438 280.479492188 c 2
 339.897460938 165.529296875 l 2
 327.764648438 112.97265625 302.822265625 69.4560546875 264.123046875 38.015625 c 0
 225.364257812 6.52734375 178.094726562 -8.3203125 124.9609375 -8.3203125 c 0
 70.6884765625 -8.3203125 29.814453125 6.423828125 6.13671875 38.158203125 c 0
 -17.484375 69.81640625 -21.474609375 114.540039062 -8.8251953125 169.330078125 c 2
 13.765625 267.1796875 l 2
 25.783203125 319.234375 39.7705078125 354.384765625 82.5478515625 419.25390625 c 2
 265.760742188 690.879882812 l 1
 423.622070312 690.879882812 l 1
 257.78125 441.799804688 l 1
 260.17578125 441.920898438 262.588867188 441.979492188 265.021484375 441.979492188 c 0
157.201171875 131.330078125 m 0
 164.154296875 131.330078125 180.951171875 131.330078125 188.846679688 165.529296875 c 2
 213.411132812 271.928710938 l 2
 221.087890625 305.178710938 206.23828125 305.178710938 197.337890625 305.178710938 c 0
 187.7734375 305.178710938 173.245117188 303.693359375 167.0078125 276.6796875 c 2
 141.127929688 164.580078125 l 2
 133.451171875 131.330078125 148.301757812 131.330078125 157.201171875 131.330078125 c 0
EndSplineSet
EndChar

StartChar: seven
Encoding: 55 55 25
Width: 385
GlyphClass: 2
Flags: MW
HStem: 551.229 139.65<101.134 264.586 68.8936 453.584>
LayerCount: 2
Fore
SplineSet
453.583984375 690.879882812 m 1
 424.723632812 565.873046875 l 1
 129.530273438 1.1796875 l 1
 -22.9541015625 1.1796875 l 1
 264.5859375 551.229492188 l 1
 68.8935546875 551.229492188 l 1
 101.133789062 690.879882812 l 1
 453.583984375 690.879882812 l 1
EndSplineSet
EndChar

StartChar: eight
Encoding: 56 56 26
Width: 412
GlyphClass: 2
Flags: MW
HStem: -8.32031 21G<102.528 156.609> 680.381 20G<267.634 319.305>
VStem: 40.2861 152 239.786 152
LayerCount: 2
Fore
SplineSet
416 470.479492188 m 2
 413.115234375 457.983398438 397.4765625 400.712890625 345.77734375 361.186523438 c 1
 369.708007812 333.18359375 374.805664062 292.043945312 363.143554688 241.530273438 c 2
 347.571289062 174.081054688 l 2
 334.49609375 117.4453125 309.291992188 71.4462890625 270.211914062 39.1044921875 c 0
 231.266601562 6.8759765625 183.5078125 -8.3203125 129.7109375 -8.3203125 c 0
 75.345703125 -8.3203125 34.3720703125 6.8251953125 10.580078125 39.17578125 c 0
 -13.2138671875 71.53125 -16.9951171875 117.483398438 -3.9287109375 174.081054688 c 2
 11.6435546875 241.530273438 l 2
 23.1982421875 291.58203125 47.28515625 332.538085938 84.0888671875 360.842773438 c 1
 74.5498046875 371.750976562 67.8798828125 385.11328125 64.2109375 400.538085938 c 0
 58.8876953125 422.913085938 58.93359375 446.368164062 64.5009765625 470.48046875 c 2
 78.7568359375 532.23046875 l 2
 90.271484375 582.107421875 115.90625 624.024414062 155.65234375 654.858398438 c 0
 195.2578125 685.584960938 241.94140625 700.380859375 293.327148438 700.380859375 c 0
 345.283203125 700.380859375 385.359375 685.631835938 410.512695312 654.79296875 c 0
 435.677734375 623.939453125 441.760742188 582.057617188 430.256835938 532.229492188 c 2
 416 470.479492188 l 2
261.524414062 562.62890625 m 0
 254.795898438 562.62890625 237.774414062 562.62890625 230.537109375 531.279296875 c 2
 215.184570312 464.779296875 l 2
 211.349609375 448.16796875 211.791015625 437.202148438 213.999023438 431.421875 c 0
 215.330078125 427.9375 218.107421875 424.879882812 229.72265625 424.879882812 c 0
 242.27734375 424.879882812 246.303710938 428.176757812 248.654296875 431.073242188 c 0
 253.40234375 436.923828125 258.830078125 448.08203125 262.684570312 464.779296875 c 2
 278.037109375 531.279296875 l 2
 280.963867188 543.95703125 279.807617188 551.576171875 277.158203125 556.114257812 c 0
 274.840820312 560.08203125 271.091796875 562.62890625 261.524414062 562.62890625 c 0
195.3515625 173.129882812 m 2
 213.1171875 250.080078125 l 2
 216.544921875 264.926757812 216.22265625 274.853515625 214.327148438 280.235351562 c 0
 212.235351562 286.176757812 208.831054688 289.029296875 198.359375 289.029296875 c 0
 186.744140625 289.029296875 182.5546875 285.97265625 179.614257812 282.487304688 c 0
 174.637695312 276.588867188 169.287109375 265.974609375 165.6171875 250.080078125 c 2
 147.8515625 173.129882812 l 2
 143.516601562 154.350585938 143.633789062 141.885742188 145.62109375 135.89453125 c 0
 146.689453125 132.671875 149.139648438 129.4296875 161.512695312 129.4296875 c 0
 174.83203125 129.4296875 178.590820312 132.916992188 180.586914062 135.53515625 c 0
 185.223632812 141.619140625 191 154.278320312 195.3515625 173.129882812 c 2
EndSplineSet
EndChar

StartChar: nine
Encoding: 57 57 27
Width: 403
GlyphClass: 2
Flags: MW
HStem: 680.38 20G<232.093 316.659>
VStem: 36.4863 151.051 235.037 151.05
LayerCount: 2
Fore
SplineSet
73.640625 526.529296875 m 2
 97.794921875 631.151367188 174.658203125 700.379882812 289.52734375 700.379882812 c 0
 343.791015625 700.379882812 384.560546875 685.640625 407.931640625 653.828125 c 0
 431.198242188 622.15625 435.00390625 577.479492188 422.364257812 522.729492188 c 2
 399.7734375 424.879882812 l 2
 387.041015625 369.73046875 371.809570312 332.321289062 331.776367188 272.561523438 c 2
 147.741210938 1.1796875 l 1
 -10.0830078125 1.1796875 l 1
 155.736328125 250.228515625 l 1
 153.365234375 250.127929688 150.959960938 250.080078125 148.517578125 250.080078125 c 0
 67.69921875 250.080078125 22.779296875 306.224609375 47.1025390625 411.580078125 c 2
 73.640625 526.529296875 l 2
217.151367188 386.879882812 m 0
 224.944335938 386.879882812 240.16015625 387.784179688 246.530273438 415.379882812 c 2
 272.411132812 527.479492188 l 2
 280.086914062 560.729492188 265.788085938 560.729492188 257.287109375 560.729492188 c 0
 248.122070312 560.729492188 232.586914062 560.729492188 224.69140625 526.529296875 c 2
 200.126953125 420.129882812 l 2
 192.51171875 387.141601562 207.553710938 386.879882812 217.151367188 386.879882812 c 0
EndSplineSet
EndChar

StartChar: colon
Encoding: 58 58 28
Width: 188
GlyphClass: 2
Flags: MW
HStem: 1.17969 159.6<-15.5488 92.9551 -52.3955 129.802> 322.279 159.601<58.583 167.087 21.7363 203.934>
VStem: 31.7363 145.351
LayerCount: 2
Fore
SplineSet
-15.548828125 160.779296875 m 1
 129.801757812 160.779296875 l 1
 92.955078125 1.1796875 l 1
 -52.3955078125 1.1796875 l 1
 -15.548828125 160.779296875 l 1
58.5830078125 481.879882812 m 1
 203.93359375 481.879882812 l 1
 167.086914062 322.279296875 l 1
 21.736328125 322.279296875 l 1
 58.5830078125 481.879882812 l 1
EndSplineSet
EndChar

StartChar: semicolon
Encoding: 59 59 29
Width: 188
GlyphClass: 2
Flags: MW
HStem: 322.279 159.601<58.583 167.087 21.7363 203.934>
VStem: 35.5361 141.551
LayerCount: 2
Fore
SplineSet
58.5830078125 481.879882812 m 1
 203.93359375 481.879882812 l 1
 167.086914062 322.279296875 l 1
 21.736328125 322.279296875 l 1
 58.5830078125 481.879882812 l 1
-11.5302734375 161.729492188 m 1
 130.020507812 161.729492188 l 1
 79.880859375 -55.451171875 l 1
 -87.9873046875 -169.443359375 l 1
 -11.5302734375 161.729492188 l 1
EndSplineSet
EndChar

StartChar: less
Encoding: 60 60 30
Width: 422
GlyphClass: 2
Flags: W
LayerCount: 2
Fore
SplineSet
2.62109375 227.13671875 m 1
 27.2509765625 333.822265625 l 1
 419.803710938 478.72265625 l 1
 389.517578125 347.540039062 l 1
 197.903320312 280.479492188 l 1
 358.553710938 213.419921875 l 1
 328.268554688 82.2373046875 l 1
 2.62109375 227.13671875 l 1
EndSplineSet
Substitution2: "'rtla' Right to Left Alternates lookup 0 subtable" greater
EndChar

StartChar: equal
Encoding: 61 61 31
Width: 422
GlyphClass: 2
Flags: MW
HStem: 126.58 124.449<8.13672 338.506 -20.5938 367.236> 309.93 123.5<50.248 380.835 21.7354 409.348>
VStem: 34.5869 359.1
LayerCount: 2
Fore
SplineSet
50.248046875 433.4296875 m 1
 409.34765625 433.4296875 l 1
 380.834960938 309.9296875 l 1
 21.7353515625 309.9296875 l 1
 50.248046875 433.4296875 l 1
8.13671875 251.029296875 m 1
 367.236328125 251.029296875 l 1
 338.505859375 126.580078125 l 1
 -20.59375 126.580078125 l 1
 8.13671875 251.029296875 l 1
EndSplineSet
EndChar

StartChar: greater
Encoding: 62 62 32
Width: 422
GlyphClass: 2
Flags: W
LayerCount: 2
Fore
SplineSet
30.4228515625 347.55859375 m 1
 60.7041015625 478.72265625 l 1
 386.350585938 333.822265625 l 1
 361.720703125 227.13671875 l 1
 -30.8310546875 82.2373046875 l 1
 -0.5498046875 213.400390625 l 1
 190.311523438 280.479492188 l 1
 30.4228515625 347.55859375 l 1
EndSplineSet
Substitution2: "'rtla' Right to Left Alternates lookup 0 subtable" less
EndChar

StartChar: question
Encoding: 63 63 33
Width: 380
GlyphClass: 2
Flags: MW
HStem: 1.17969 154.85<78.3545 181.305 42.6045 217.055>
VStem: 23.1865 144.4 126.736 138.7 223.638 147.249
LayerCount: 2
Fore
SplineSet
52.0068359375 490.4296875 m 2xd0
 79.470703125 609.387695312 140.48828125 699.4296875 274.106445312 699.4296875 c 0
 325.525390625 699.4296875 365.149414062 684.436523438 389.8671875 653.231445312 c 0
 414.748046875 621.823242188 419.975585938 578.224609375 407.822265625 525.580078125 c 0xd0
 394.001953125 465.717773438 371.321289062 430.186523438 329.3828125 383.890625 c 0
 312.760742188 365.729492188 296.14453125 347.55859375 279.517578125 329.404296875 c 0
 256.49609375 305.193359375 248.34765625 291.577148438 238.329101562 248.1796875 c 2
 224.73046875 189.279296875 l 1
 86.0302734375 189.279296875 l 1
 99.4091796875 247.229492188 l 2xa0
 114.307617188 311.760742188 128.543945312 337.0546875 172.572265625 388.32421875 c 0
 172.59765625 388.354492188 218.104492188 441.524414062 218.239257812 441.680664062 c 0
 242.545898438 469.588867188 251.606445312 486.743164062 259.915039062 522.729492188 c 0
 269.784179688 565.479492188 251.499023438 565.479492188 242.233398438 565.479492188 c 0
 235.301757812 565.479492188 230.209960938 564.333984375 226.89453125 562.940429688 c 0
 222.947265625 561.280273438 220.827148438 559.510742188 218.3671875 555.525390625 c 0
 212.1953125 545.526367188 203.946289062 523.0859375 196.407226562 490.4296875 c 2
 192.458984375 473.330078125 l 1
 48.05859375 473.330078125 l 1
 52.0068359375 490.4296875 l 2xd0
78.3544921875 156.029296875 m 1xa0
 217.0546875 156.029296875 l 1
 181.3046875 1.1796875 l 1
 42.6044921875 1.1796875 l 1
 78.3544921875 156.029296875 l 1xa0
EndSplineSet
EndChar

StartChar: at
Encoding: 64 64 34
Width: 703
GlyphClass: 2
Flags: MW
HStem: -126.12 121.601<227.089 305.151> 54.3799 121.6<199.88 322.068> 391.63 121.601<362.083 363.571 314.481 371.075> 580.681 121.599<359.203 442.435>
VStem: 40.2861 129.199 208.436 133.002 380.388 132.999 553.286 127.301
LayerCount: 2
Fore
SplineSet
246.915039062 -126.120117188 m 0
 39.0439453125 -126.120117188 -41.365234375 11.9267578125 3.748046875 207.330078125 c 2
 41.251953125 369.779296875 l 2
 88.2490234375 573.34375 245.537109375 702.279296875 438.166015625 702.279296875 c 0
 632.284179688 702.279296875 728.32421875 572.369140625 682.430664062 373.580078125 c 2
 647.776367188 223.479492188 l 2
 635.806640625 171.6328125 614.333007812 129.455078125 581.200195312 99.2451171875 c 0
 547.870117188 68.8544921875 506.478515625 54.3798828125 460.536132812 54.3798828125 c 0
 426.997070312 54.3798828125 384.416015625 62.8740234375 360.676757812 100.592773438 c 1
 336.3984375 72.5283203125 303.87890625 54.3798828125 253.435546875 54.3798828125 c 0
 146.325195312 54.3798828125 159.69921875 154.497070312 173.432617188 213.98046875 c 2
 208.0859375 364.081054688 l 2
 228.3125 451.693359375 272.443359375 513.23046875 356.51953125 513.23046875 c 0
 370.623046875 513.23046875 392.782226562 511.1875 409.892578125 497.516601562 c 1
 411.766601562 505.630859375 l 1
 545.716796875 505.630859375 l 1
 475.313476562 200.680664062 l 2
 469.709960938 176.412109375 480.159179688 174.081054688 489.122070312 174.081054688 c 0
 499.171875 174.081054688 502.072265625 176.606445312 504.493164062 179.643554688 c 0
 509.131835938 185.458984375 514.018554688 195.510742188 517.405273438 210.180664062 c 2
 557.103515625 382.130859375 l 2
 572.37109375 448.26171875 566.360351562 496.532226562 541.861328125 529.853515625 c 0
 517.442382812 563.065429688 474.776367188 580.680664062 410.092773438 580.680664062 c 0
 308.3125 580.680664062 209.329101562 538.1796875 170.232421875 368.831054688 c 2
 135.140625 216.831054688 l 2
 92.748046875 33.2099609375 179.190429688 -4.51953125 274.987304688 -4.51953125 c 0
 355.739257812 -4.51953125 394.950195312 19.1865234375 442.213867188 47.7626953125 c 1
 488.08203125 -48.298828125 l 1
 439.4296875 -78.662109375 363.387695312 -126.120117188 246.915039062 -126.120117188 c 0
345.384765625 213.979492188 m 2
 378.94140625 359.330078125 l 2
 381.90234375 372.157226562 381.474609375 380.452148438 379.90625 384.703125 c 0
 378.227539062 389.250976562 375.701171875 391.629882812 366.448242188 391.629882812 c 0
 357.717773438 391.629882812 354.41796875 389.440429688 350.69140625 384.87109375 c 0
 347.198242188 380.586914062 342.962890625 372.202148438 339.991210938 359.330078125 c 2
 305.776367188 211.129882812 l 2
 302.213867188 195.700195312 302.647460938 185.7734375 304.431640625 181.037109375 c 0
 305.4375 178.36328125 307.143554688 175.979492188 316.661132812 175.979492188 c 0
 327.475585938 175.979492188 330.106445312 178.67578125 332.162109375 181.428710938 c 0
 336.834960938 187.684570312 341.813476562 198.513671875 345.384765625 213.979492188 c 2
EndSplineSet
EndChar

StartChar: A
Encoding: 65 65 35
Width: 485
GlyphClass: 2
Flags: MW
HStem: 128.479 138.7<195.324 259.495 134.344 263.508> 670.88 20G<256.964 397.523 397.523 397.523>
LayerCount: 2
Fore
SplineSet
-79.1884765625 1.1796875 m 1
 256.963867188 690.879882812 l 1
 397.5234375 690.879882812 l 1
 414.216796875 1.1796875 l 1
 256.705078125 1.1796875 l 1
 259.495117188 128.479492188 l 1
 134.34375 128.479492188 l 1
 78.353515625 1.1796875 l 1
 -79.1884765625 1.1796875 l 1
195.32421875 267.1796875 m 1
 263.5078125 267.1796875 l 1
 267.412109375 431.76171875 l 1
 195.32421875 267.1796875 l 1
EndSplineSet
EndChar

StartChar: B
Encoding: 66 66 36
Width: 457
GlyphClass: 2
Flags: MW
HStem: 1.18066 138.699<142.076 154.704> 292.83 134.899<208.531 208.737 177.388 240.831> 552.181 138.7<237.263 269.562 237.263 237.263>
VStem: 44.0859 150.101 284.437 151.05
LayerCount: 2
Fore
SplineSet
378.3515625 362.48828125 m 1
 399.8984375 343.809570312 422.887695312 311.026367188 399.166992188 208.280273438 c 0
 363.94140625 55.69921875 284.303710938 1.1806640625 154.704101562 1.1806640625 c 2
 -40.0458984375 1.1806640625 l 1
 119.18359375 690.880859375 l 1
 313.93359375 690.880859375 l 2
 434.158203125 690.880859375 498.157226562 645.28515625 463.94140625 497.080078125 c 0
 456.043945312 462.874023438 443.41796875 432.771484375 425.399414062 407.143554688 c 0
 412.92578125 389.400390625 397.009765625 374.452148438 378.3515625 362.48828125 c 1
208.53125 427.729492188 m 1
 240.831054688 427.729492188 l 2
 265.966796875 427.729492188 280.54296875 433.748046875 287.859375 440.3828125 c 0
 296.0859375 447.84375 305.135742188 463.485351562 311.13671875 489.479492188 c 0
 317.47265625 516.923828125 315.536132812 532.954101562 310.967773438 539.834960938 c 0
 306.715820312 546.239257812 294.771484375 552.180664062 269.5625 552.180664062 c 2
 237.262695312 552.180664062 l 1
 208.53125 427.729492188 l 1
250.090820312 216.830078125 m 0
 257.297851562 248.046875 255.799804688 267.71875 250.263671875 277.374023438 c 0
 245.087890625 286.400390625 233.202148438 292.830078125 208.737304688 292.830078125 c 2
 177.387695312 292.830078125 l 1
 142.076171875 139.879882812 l 1
 173.42578125 139.879882812 l 2
 200.321289062 139.879882812 215.293945312 146.6484375 222.987304688 154.44921875 c 0
 231.991210938 163.576171875 242.532226562 184.088867188 250.090820312 216.830078125 c 0
EndSplineSet
EndChar

StartChar: C
Encoding: 67 67 37
Width: 468
GlyphClass: 2
Flags: MW
HStem: -6.41992 139.65<182.648 184.089> 560.73 139.65<294.563 306.069>
VStem: 40.2871 151.05 295.837 151.05
LayerCount: 2
Fore
SplineSet
190.890625 133.23046875 m 0
 206.064453125 133.23046875 243.102539062 137.178710938 258.202148438 202.581054688 c 2
 266.09765625 236.780273438 l 1
 416.197265625 236.780273438 l 1
 408.08203125 201.630859375 l 2
 392.752929688 135.23046875 361.8359375 82.103515625 313.830078125 46.0048828125 c 0
 267.057617188 10.8349609375 213.328125 -6.419921875 154.849609375 -6.419921875 c 0
 95.2333984375 -6.419921875 49.64453125 10.7587890625 21.1826171875 46.388671875 c 0
 -7.650390625 82.4814453125 -13.091796875 134.38671875 1.7744140625 198.780273438 c 2
 69.984375 494.23046875 l 2
 85.03515625 559.422851562 115.684570312 611.865234375 163.25390625 647.903320312 c 0
 209.893554688 683.237304688 264.447265625 700.380859375 324.678710938 700.380859375 c 0
 382.515625 700.380859375 427.348632812 683.274414062 456.415039062 648.219726562 c 0
 486.23046875 612.259765625 491.486328125 558.77734375 475.926757812 491.380859375 c 2
 467.373046875 454.331054688 l 1
 316.323242188 454.331054688 l 1
 324.657226562 490.430664062 l 2
 335.975585938 539.45703125 322.551757812 560.73046875 289.586914062 560.73046875 c 0
 268.943359375 560.73046875 256.279296875 554.415039062 246.155273438 542.897460938 c 0
 234.930664062 530.12890625 224.154296875 507.7421875 216.6484375 475.23046875 c 2
 155.895507812 212.081054688 l 2
 137.94921875 134.346679688 174.405273438 133.23046875 190.890625 133.23046875 c 0
EndSplineSet
EndChar

StartChar: D
Encoding: 68 68 38
Width: 464
GlyphClass: 2
Flags: MW
HStem: 1.17969 138.701<142.076 152.805> 551.23 139.649<237.044 282.644 237.044 237.044>
VStem: 44.0869 150.1 291.087 151.05
LayerCount: 2
Fore
SplineSet
469.860351562 485.680664062 m 2
 405.37890625 206.380859375 l 2
 390.462890625 141.772460938 359.845703125 89.65625 312.329101562 53.6572265625 c 0
 265.787109375 18.3984375 211.86328125 1.1796875 152.8046875 1.1796875 c 2
 -40.044921875 1.1796875 l 1
 119.184570312 690.879882812 l 1
 317.734375 690.879882812 l 2
 376.150390625 690.879882812 421.19921875 673.813476562 449.993164062 638.663085938 c 0
 479.334960938 602.840820312 484.869140625 550.688476562 469.860351562 485.680664062 c 2
187.67578125 139.880859375 m 2
 205.09375 139.880859375 217.198242188 145.6484375 228.5859375 158.080078125 c 0
 240.6171875 171.213867188 250.866210938 191.379882812 257.400390625 219.681640625 c 2
 314.205078125 465.731445312 l 2
 321.540039062 497.502929688 320.978515625 519.65234375 315.383789062 532.858398438 c 0
 310.109375 545.307617188 300.759765625 551.23046875 282.643554688 551.23046875 c 2
 237.043945312 551.23046875 l 1
 142.076171875 139.880859375 l 1
 187.67578125 139.880859375 l 2
EndSplineSet
EndChar

StartChar: E
Encoding: 69 69 39
Width: 379
GlyphClass: 2
Flags: MW
HStem: 1.17969 138.7<142.076 286.755> 282.38 138.7<206.996 326.975 174.975 358.996> 551.229 139.65<237.044 413.744 237.044 237.044>
VStem: 44.0869 150.1 44.0869 326.8
LayerCount: 2
Fore
SplineSet
142.076171875 139.879882812 m 1xf0
 318.776367188 139.879882812 l 1
 286.754882812 1.1796875 l 1
 -40.044921875 1.1796875 l 1
 119.184570312 690.879882812 l 1
 445.984375 690.879882812 l 1
 413.744140625 551.229492188 l 1xe8
 237.043945312 551.229492188 l 1
 206.99609375 421.080078125 l 1
 358.99609375 421.080078125 l 1
 326.974609375 282.379882812 l 1
 174.974609375 282.379882812 l 1
 142.076171875 139.879882812 l 1xf0
EndSplineSet
EndChar

StartChar: F
Encoding: 70 70 40
Width: 375
GlyphClass: 2
Flags: MW
HStem: 278.58 139.649<175.048 359.288 207.288 327.048> 551.229 139.65<237.994 413.744 237.994 237.994>
VStem: 44.0869 151.05
LayerCount: 2
Fore
SplineSet
175.047851562 278.580078125 m 1
 111.004882812 1.1796875 l 1
 -40.044921875 1.1796875 l 1
 119.184570312 690.879882812 l 1
 445.984375 690.879882812 l 1
 413.744140625 551.229492188 l 1
 237.994140625 551.229492188 l 1
 207.288085938 418.229492188 l 1
 359.288085938 418.229492188 l 1
 327.047851562 278.580078125 l 1
 175.047851562 278.580078125 l 1
EndSplineSet
EndChar

StartChar: G
Encoding: 71 71 41
Width: 468
GlyphClass: 2
Flags: MW
HStem: -6.41992 139.649<182.648 184.4> 258.63 126.35<230.962 271.142 201.791 451.362> 560.729 139.65<294.562 297.715>
VStem: 40.2861 151.051 226.486 220.4 295.837 151.05
LayerCount: 2
Fore
SplineSet
190.890625 133.229492188 m 0xf4
 204.083984375 133.229492188 242.19140625 133.229492188 259.079101562 206.379882812 c 2
 271.141601562 258.629882812 l 1xf4
 201.791015625 258.629882812 l 1
 230.961914062 384.979492188 l 1
 451.362304688 384.979492188 l 1xf8
 408.374023438 198.779296875 l 2
 393.583007812 134.712890625 362.768554688 82.77734375 314.965820312 46.537109375 c 0
 268.07421875 10.9892578125 213.951171875 -6.419921875 154.849609375 -6.419921875 c 0
 95.2333984375 -6.419921875 49.64453125 10.7587890625 21.1826171875 46.388671875 c 0
 -7.6494140625 82.48046875 -13.0927734375 134.385742188 1.7734375 198.779296875 c 2
 69.9833984375 494.229492188 l 2
 85.0341796875 559.421875 115.68359375 611.864257812 163.252929688 647.90234375 c 0
 209.892578125 683.236328125 264.446289062 700.379882812 324.677734375 700.379882812 c 0
 382.436523438 700.379882812 427.290039062 683.66015625 456.533203125 649.287109375 c 0
 486.42578125 614.150390625 492.421875 562.834960938 477.6796875 498.979492188 c 2
 469.125976562 461.9296875 l 1
 318.076171875 461.9296875 l 1
 326.629882812 498.979492188 l 2
 331.844726562 521.56640625 329.657226562 536.2578125 323.008789062 545.763671875 c 0
 316.009765625 555.771484375 305.844726562 560.729492188 289.5859375 560.729492188 c 0
 268.942382812 560.729492188 256.278320312 554.4140625 246.155273438 542.896484375 c 0
 234.930664062 530.127929688 224.153320312 507.741210938 216.647460938 475.229492188 c 2
 155.895507812 212.080078125 l 2
 137.948242188 134.345703125 174.405273438 133.229492188 190.890625 133.229492188 c 0xf4
EndSplineSet
EndChar

StartChar: H
Encoding: 72 72 42
Width: 461
GlyphClass: 2
Flags: MW
HStem: 282.38 138.7<207.946 265.225 175.925 297.246> 670.88 20G<119.185 270.234 270.234 270.234 359.534 510.584 510.584 510.584>
VStem: 44.0869 151.05 284.437 151.05
LayerCount: 2
Fore
SplineSet
510.583984375 690.879882812 m 1
 351.354492188 1.1796875 l 1
 200.3046875 1.1796875 l 1
 265.224609375 282.379882812 l 1
 175.924804688 282.379882812 l 1
 111.004882812 1.1796875 l 1
 -40.044921875 1.1796875 l 1
 119.184570312 690.879882812 l 1
 270.234375 690.879882812 l 1
 207.946289062 421.080078125 l 1
 297.24609375 421.080078125 l 1
 359.534179688 690.879882812 l 1
 510.583984375 690.879882812 l 1
EndSplineSet
EndChar

StartChar: I
Encoding: 73 73 43
Width: 225
GlyphClass: 2
Flags: MW
HStem: 670.88 20G<122.984 273.084 273.084 273.084>
VStem: 47.8867 150.1
LayerCount: 2
Fore
SplineSet
122.984375 690.879882812 m 1
 273.083984375 690.879882812 l 1
 113.854492188 1.1796875 l 1
 -36.2451171875 1.1796875 l 1
 122.984375 690.879882812 l 1
EndSplineSet
EndChar

StartChar: J
Encoding: 74 74 44
Width: 275
GlyphClass: 2
Flags: MW
HStem: 1.17969 139.65<-31.5547 -23.8955 -63.7949 0.745117> 670.88 20G<171.435 322.484 322.484 322.484>
VStem: 96.3369 151.05
LayerCount: 2
Fore
SplineSet
203.171875 174.080078125 m 2
 184.1953125 91.8837890625 128.6875 1.1796875 -23.8955078125 1.1796875 c 2
 -63.794921875 1.1796875 l 1
 -31.5546875 140.830078125 l 1
 0.7451171875 140.830078125 l 2
 26.6533203125 140.830078125 46.4541015625 149.529296875 55.1923828125 187.379882812 c 2
 171.434570312 690.879882812 l 1
 322.484375 690.879882812 l 1
 203.171875 174.080078125 l 2
EndSplineSet
EndChar

StartChar: K
Encoding: 75 75 45
Width: 461
GlyphClass: 2
Flags: MW
HStem: 670.88 20G<119.185 269.284 269.284 269.284 380.798 536.528 536.528 536.528>
VStem: 44.0869 150.1
LayerCount: 2
Fore
SplineSet
234.250976562 1.1796875 m 1
 197.073242188 230.123046875 l 1
 147.276367188 162.407226562 l 1
 110.0546875 1.1796875 l 1
 -40.044921875 1.1796875 l 1
 119.184570312 690.879882812 l 1
 269.284179688 690.879882812 l 1
 212.365234375 444.334960938 l 1
 380.797851562 690.879882812 l 1
 536.528320312 690.879882812 l 1
 324.259765625 403.21875 l 1
 395.823242188 1.1796875 l 1
 234.250976562 1.1796875 l 1
EndSplineSet
EndChar

StartChar: L
Encoding: 76 76 46
Width: 371
GlyphClass: 2
Flags: MW
HStem: 1.17969 138.7<143.026 286.755> 670.88 20G<119.185 270.234 270.234 270.234>
VStem: 44.0869 151.05
LayerCount: 2
Fore
SplineSet
119.184570312 690.879882812 m 1
 270.234375 690.879882812 l 1
 143.026367188 139.879882812 l 1
 318.776367188 139.879882812 l 1
 286.754882812 1.1796875 l 1
 -40.044921875 1.1796875 l 1
 119.184570312 690.879882812 l 1
EndSplineSet
EndChar

StartChar: M
Encoding: 77 77 47
Width: 566
GlyphClass: 2
Flags: MW
HStem: 670.88 20G<119.185 265.506 265.506 265.506 469.745 616.034 616.034 616.034>
VStem: 44.0869 151.05 389.887 151.05
LayerCount: 2
Fore
SplineSet
616.034179688 690.879882812 m 1
 456.8046875 1.1796875 l 1
 305.754882812 1.1796875 l 1
 373.455078125 294.420898438 l 1
 281.059570312 128.479492188 l 1
 193.52734375 128.479492188 l 1
 178.041015625 291.544921875 l 1
 111.004882812 1.1796875 l 1
 -40.044921875 1.1796875 l 1
 119.184570312 690.879882812 l 1
 265.505859375 690.879882812 l 1
 295.983398438 382.40234375 l 1
 469.745117188 690.879882812 l 1
 616.034179688 690.879882812 l 1
EndSplineSet
EndChar

StartChar: N
Encoding: 78 78 48
Width: 474
GlyphClass: 2
Flags: MW
HStem: 670.88 20G<119.185 264.987 264.987 264.987 372.834 523.884 523.884 523.884>
VStem: 44.0869 151.05 297.736 151.05
LayerCount: 2
Fore
SplineSet
523.883789062 690.879882812 m 1
 364.654296875 1.1796875 l 1
 219.030273438 1.1796875 l 1
 174.739257812 277.245117188 l 1
 111.004882812 1.1796875 l 1
 -40.044921875 1.1796875 l 1
 119.184570312 690.879882812 l 1
 264.987304688 690.879882812 l 1
 306.438476562 403.2890625 l 1
 372.833984375 690.879882812 l 1
 523.883789062 690.879882812 l 1
EndSplineSet
EndChar

StartChar: O
Encoding: 79 79 49
Width: 468
GlyphClass: 2
Flags: MW
HStem: -6.41992 139.648<182.647 184.4> 560.729 139.651<294.562 298.644>
VStem: 40.2861 151.051 295.837 151.05
LayerCount: 2
Fore
SplineSet
1.7734375 198.779296875 m 2
 69.9833984375 494.229492188 l 2
 85.0341796875 559.421875 115.68359375 611.864257812 163.252929688 647.90234375 c 0
 209.892578125 683.236328125 264.446289062 700.379882812 324.677734375 700.379882812 c 0
 383.1328125 700.379882812 428.170898438 683.120117188 456.874023438 647.627929688 c 0
 486.083007812 611.51171875 491.594726562 559.24609375 476.583984375 494.229492188 c 2
 408.374023438 198.779296875 l 2
 393.583007812 134.712890625 362.768554688 82.77734375 314.965820312 46.537109375 c 0
 268.07421875 10.9892578125 213.951171875 -6.419921875 154.849609375 -6.419921875 c 0
 95.2333984375 -6.419921875 49.64453125 10.7587890625 21.1826171875 46.388671875 c 0
 -7.6494140625 82.48046875 -13.0927734375 134.385742188 1.7734375 198.779296875 c 2
155.89453125 212.079101562 m 2
 137.948242188 134.344726562 174.404296875 133.228515625 190.889648438 133.228515625 c 0
 208.424804688 133.228515625 220.549804688 138.959960938 231.803710938 151.075195312 c 0
 243.638671875 163.815429688 253.857421875 183.764648438 260.395507812 212.080078125 c 2
 321.147460938 475.229492188 l 2
 328.482421875 507.000976562 327.921875 529.150390625 322.327148438 542.356445312 c 0
 317.051757812 554.805664062 307.702148438 560.728515625 289.5859375 560.728515625 c 0
 268.942382812 560.728515625 256.278320312 554.413085938 246.154296875 542.895507812 c 0
 234.930664062 530.126953125 224.153320312 507.740234375 216.647460938 475.228515625 c 2
 155.89453125 212.079101562 l 2
EndSplineSet
EndChar

StartChar: P
Encoding: 80 80 50
Width: 436
GlyphClass: 2
Flags: MW
HStem: 243.43 139.65<198.224 209.683 165.982 238.123> 552.18 138.7<237.264 277.163 237.264 237.264>
VStem: 44.0869 150.1 283.487 151.05
LayerCount: 2
Fore
SplineSet
458.09375 467.629882812 m 0
 418.684570312 296.930664062 325.44921875 243.4296875 209.682617188 243.4296875 c 2
 165.982421875 243.4296875 l 1
 110.0546875 1.1796875 l 1
 -40.044921875 1.1796875 l 1
 119.184570312 690.879882812 l 1
 312.984375 690.879882812 l 2
 380.303710938 690.879882812 428.353515625 672.974609375 451.21484375 633.1953125 c 0
 473.444335938 594.512695312 474.508789062 538.73046875 458.09375 467.629882812 c 0
307.043945312 467.629882812 m 0
 314.750976562 501.013671875 314.866210938 523.797851562 310.467773438 535.841796875 c 0
 306.754882812 546.004882812 298.092773438 552.1796875 277.163085938 552.1796875 c 2
 237.263671875 552.1796875 l 1
 198.223632812 383.080078125 l 1
 238.123046875 383.080078125 l 2
 259.052734375 383.080078125 270.56640625 389.254882812 278.971679688 399.41796875 c 0
 288.931640625 411.4609375 299.336914062 434.24609375 307.043945312 467.629882812 c 0
EndSplineSet
EndChar

StartChar: Q
Encoding: 81 81 51
Width: 468
GlyphClass: 2
Flags: MW
HStem: 560.729 139.651<294.562 298.644>
VStem: 40.2861 151.051 295.837 151.05
LayerCount: 2
Fore
SplineSet
1.7734375 198.779296875 m 2
 69.9833984375 494.229492188 l 2
 85.0341796875 559.421875 115.68359375 611.864257812 163.252929688 647.90234375 c 0
 209.892578125 683.236328125 264.446289062 700.379882812 324.677734375 700.379882812 c 0
 383.1328125 700.379882812 428.170898438 683.120117188 456.874023438 647.627929688 c 0
 486.083007812 611.51171875 491.594726562 559.24609375 476.583984375 494.229492188 c 2
 408.374023438 198.779296875 l 2
 398.797851562 157.298828125 382.361328125 120.911132812 358.416015625 90.3125 c 0
 338.295898438 64.603515625 314.346679688 43.6162109375 287.180664062 27.998046875 c 1
 302.881835938 -93.59375 l 1
 160.872070312 -141.4453125 l 1
 143.724609375 -6.2158203125 l 1
 89.5439453125 -4.177734375 47.84765625 13.0068359375 21.181640625 46.3876953125 c 0
 -7.6494140625 82.48046875 -13.0927734375 134.385742188 1.7734375 198.779296875 c 2
155.89453125 212.079101562 m 2
 137.948242188 134.344726562 174.404296875 133.228515625 190.889648438 133.228515625 c 0
 208.424804688 133.228515625 220.548828125 138.9609375 231.8046875 151.076171875 c 0
 243.640625 163.81640625 253.857421875 183.764648438 260.395507812 212.080078125 c 2
 321.147460938 475.229492188 l 2
 328.482421875 507.000976562 327.921875 529.150390625 322.327148438 542.356445312 c 0
 317.051757812 554.805664062 307.702148438 560.728515625 289.5859375 560.728515625 c 0
 268.942382812 560.728515625 256.278320312 554.413085938 246.154296875 542.895507812 c 0
 234.930664062 530.126953125 224.153320312 507.740234375 216.647460938 475.228515625 c 2
 155.89453125 212.079101562 l 2
EndSplineSet
EndChar

StartChar: R
Encoding: 82 82 52
Width: 461
GlyphClass: 2
Flags: MW
HStem: 552.18 138.7<238.213 238.213 238.213 281.913>
VStem: 44.0869 151.05 283.486 151.05
LayerCount: 2
Fore
SplineSet
460.504882812 478.080078125 m 0
 433.611328125 361.58984375 382.719726562 317.525390625 345.030273438 295.744140625 c 1
 378.159179688 1.1796875 l 1
 220.047851562 1.1796875 l 1
 198.151367188 264.330078125 l 1
 171.7578125 264.330078125 l 1
 111.004882812 1.1796875 l 1
 -40.044921875 1.1796875 l 1
 119.184570312 690.879882812 l 1
 314.883789062 690.879882812 l 2
 381.83203125 690.879882812 429.72265625 674.951171875 452.970703125 638.424804688 c 0
 475.778320312 602.590820312 476.744140625 548.418945312 460.504882812 478.080078125 c 0
238.212890625 552.1796875 m 1
 203.779296875 403.029296875 l 1
 247.479492188 403.029296875 l 2
 267.213867188 403.029296875 277.294921875 408.75 284.451171875 417.669921875 c 0
 293.611328125 429.088867188 302.794921875 449.228515625 309.455078125 478.080078125 c 0
 316.130859375 506.993164062 316.342773438 527.057617188 312.67578125 538.114257812 c 0
 309.955078125 546.318359375 302.606445312 552.1796875 281.913085938 552.1796875 c 2
 238.212890625 552.1796875 l 1
EndSplineSet
EndChar

StartChar: S
Encoding: 83 83 53
Width: 428
GlyphClass: 2
Flags: MW
HStem: -6.41992 134.898<141.318 162.779> 566.429 134.9<271.207 278.602>
VStem: 22.0625 143.917 27.9355 148.2 269.235 148.2
LayerCount: 2
Fore
SplineSet
269.051757812 566.428710938 m 0xd8
 248.630859375 566.428710938 221.422851562 561.754882812 209.123046875 508.478515625 c 0xd8
 204.451171875 488.241210938 205.79296875 474.06640625 211.059570312 464.250976562 c 0
 216.514648438 454.083984375 229.034179688 443.03125 249.909179688 432.915039062 c 2
 288.272460938 413.9140625 l 2
 382.928710938 367.036132812 402.077148438 299.072265625 379.361328125 200.6796875 c 0
 364.658203125 136.991210938 335.98828125 85.2138671875 291.891601562 48.2314453125 c 0
 247.748046875 11.2099609375 193.5078125 -6.419921875 132.049804688 -6.419921875 c 0
 71.123046875 -6.419921875 25.8330078125 11.6416015625 0.2470703125 49.5576171875 c 0
 -36.9755859375 104.717773438 -20.9619140625 177.25390625 -10.966796875 222.529296875 c 1
 132.950195312 222.529296875 l 1xe8
 123.173828125 171.526367188 116.594726562 128.478515625 166.041992188 128.478515625 c 0
 185.435546875 128.478515625 197.05859375 133.946289062 205.47265625 142.524414062 c 0
 214.471679688 151.69921875 224.096679688 170.079101562 230.72265625 198.779296875 c 0
 235.9765625 221.53515625 234.42578125 237.516601562 228.29296875 248.5390625 c 0
 221.857421875 260.106445312 207.491210938 272.762695312 183.7734375 284.807617188 c 0
 183.684570312 284.852539062 143.717773438 304.763671875 143.717773438 304.763671875 c 2
 57.5654296875 347.786132812 37.86328125 408.595703125 59.6064453125 502.779296875 c 0
 73.1015625 561.229492188 101.651367188 610.133789062 145.651367188 646.73828125 c 0
 189.764648438 683.4375 242.21875 701.329101562 300.1953125 701.329101562 c 0
 357.51171875 701.329101562 400.470703125 683.577148438 425.215820312 646.756835938 c 0
 461.224609375 593.17578125 447.1015625 522.538085938 438.021484375 477.12890625 c 1
 296.294921875 477.12890625 l 1
 302.408203125 506.296875 308.126953125 533.583984375 300.315429688 551.806640625 c 0
 296.428710938 560.874023438 288.151367188 566.428710938 269.051757812 566.428710938 c 0xd8
EndSplineSet
EndChar

StartChar: T
Encoding: 84 84 54
Width: 373
GlyphClass: 2
Flags: MW
HStem: 551.229 139.65<83.084 164.844 50.8438 460.234 314.944 314.944 314.944 427.994>
VStem: 121.986 150.101
LayerCount: 2
Fore
SplineSet
164.84375 551.229492188 m 1
 50.84375 551.229492188 l 1
 83.083984375 690.879882812 l 1
 460.234375 690.879882812 l 1
 427.994140625 551.229492188 l 1
 314.944335938 551.229492188 l 1
 187.955078125 1.1796875 l 1
 37.8544921875 1.1796875 l 1
 164.84375 551.229492188 l 1
EndSplineSet
EndChar

StartChar: U
Encoding: 85 85 55
Width: 461
GlyphClass: 2
Flags: MW
HStem: -6.41992 139.65<174.828 194.572 174.828 209.65> 670.881 20G<119.185 270.234 270.234 270.234 359.534 510.584 510.584 510.584>
VStem: 44.0869 151.05 284.437 151.05
LayerCount: 2
Fore
SplineSet
153.899414062 -6.419921875 m 0
 40.0107421875 -6.419921875 -23.1630859375 74.302734375 3.6005859375 190.23046875 c 2
 119.184570312 690.880859375 l 1
 270.234375 690.880859375 l 1
 155.30859375 193.081054688 l 2
 142.880859375 139.25 163.514648438 133.23046875 186.140625 133.23046875 c 0
 203.00390625 133.23046875 231.372070312 135.75 244.608398438 193.081054688 c 2
 359.534179688 690.880859375 l 1
 510.583984375 690.880859375 l 1
 395 190.23046875 l 2
 367.331054688 70.3828125 265.400390625 -6.419921875 153.899414062 -6.419921875 c 0
EndSplineSet
EndChar

StartChar: V
Encoding: 86 86 56
Width: 450
GlyphClass: 2
Flags: MW
HStem: 670.88 20G<80.7139 244.905 244.905 244.905 374.44 538.604 538.604 538.604>
LayerCount: 2
Fore
SplineSet
80.7138671875 690.879882812 m 1
 244.905273438 690.879882812 l 1
 216.8828125 290.639648438 l 1
 374.440429688 690.879882812 l 1
 538.604492188 690.879882812 l 1
 224.442382812 1.1796875 l 1
 76.4169921875 1.1796875 l 1
 80.7138671875 690.879882812 l 1
EndSplineSet
EndChar

StartChar: W
Encoding: 87 87 57
Width: 665
GlyphClass: 2
Flags: MW
HStem: 670.88 20G<81.6641 235.859 235.859 235.859 331.151 503.816 503.816 503.816 599.109 751.404 751.404 751.404>
LayerCount: 2
Fore
SplineSet
314.211914062 1.1796875 m 1
 331.612304688 323.5234375 l 1
 199.4140625 1.1796875 l 1
 45.380859375 1.1796875 l 1
 81.6640625 690.879882812 l 1
 235.859375 690.879882812 l 1
 198.227539062 318.373046875 l 1
 331.151367188 690.879882812 l 1
 503.81640625 690.879882812 l 1
 464.741210938 318.373046875 l 1
 599.109375 690.879882812 l 1
 751.404296875 690.879882812 l 1
 469.228515625 1.1796875 l 1
 314.211914062 1.1796875 l 1
EndSplineSet
EndChar

StartChar: X
Encoding: 88 88 58
Width: 417
GlyphClass: 2
Flags: MW
HStem: 670.88 20G<86.4502 238.917 238.917 238.917 348.047 500.567 500.567 500.567>
LayerCount: 2
Fore
SplineSet
-82.26171875 1.1796875 m 1
 140.885742188 358.374023438 l 1
 86.4501953125 690.879882812 l 1
 238.916992188 690.879882812 l 1
 255.2734375 523.702148438 l 1
 348.046875 690.879882812 l 1
 500.567382812 690.879882812 l 1
 292.603515625 358.374023438 l 1
 350.821289062 1.1796875 l 1
 198.41015625 1.1796875 l 1
 178.99609375 193.245117188 l 1
 70.1005859375 1.1796875 l 1
 -82.26171875 1.1796875 l 1
EndSplineSet
EndChar

StartChar: Y
Encoding: 89 89 59
Width: 417
GlyphClass: 2
Flags: MW
HStem: 670.88 20G<78.3379 243.688 243.688 243.688 342.38 508.645 508.645 508.645>
VStem: 142.887 151.05
LayerCount: 2
Fore
SplineSet
342.379882812 690.879882812 m 1
 508.64453125 690.879882812 l 1
 272.109375 271.05078125 l 1
 209.8046875 1.1796875 l 1
 58.7548828125 1.1796875 l 1
 121.495117188 272.938476562 l 1
 78.337890625 690.879882812 l 1
 243.688476562 690.879882812 l 1
 247.46484375 493.498046875 l 1
 342.379882812 690.879882812 l 1
EndSplineSet
EndChar

StartChar: Z
Encoding: 90 90 60
Width: 364
GlyphClass: 2
Flags: MW
HStem: 1.17969 139.65<130.797 277.255> 551.229 139.65<108.734 242.792 76.4941 432.685>
LayerCount: 2
Fore
SplineSet
309.495117188 140.830078125 m 1
 277.254882812 1.1796875 l 1
 -59.9951171875 1.1796875 l 1
 -30.9150390625 127.140625 l 1
 242.791992188 551.229492188 l 1
 76.494140625 551.229492188 l 1
 108.734375 690.879882812 l 1
 432.684570312 690.879882812 l 1
 403.608398438 564.935546875 l 1
 130.796875 140.830078125 l 1
 309.495117188 140.830078125 l 1
EndSplineSet
EndChar

StartChar: bracketleft
Encoding: 91 91 61
Width: 292
GlyphClass: 2
Flags: MW
HStem: -78.6201 139.649<116.272 168.581> 598.729 139.65<240.41 324.96 240.41 240.41>
VStem: 44.0869 142.5 44.0869 227.05
LayerCount: 2
Fore
SplineSet
130.151367188 738.379882812 m 1xd0
 357.201171875 738.379882812 l 1
 324.959960938 598.729492188 l 1xd0
 240.41015625 598.729492188 l 1
 116.272460938 61.029296875 l 1xe0
 200.822265625 61.029296875 l 1
 168.581054688 -78.6201171875 l 1
 -58.46875 -78.6201171875 l 1
 130.151367188 738.379882812 l 1xd0
EndSplineSet
Substitution2: "'rtla' Right to Left Alternates lookup 0 subtable" bracketright
EndChar

StartChar: backslash
Encoding: 92 92 62
Width: 306
GlyphClass: 2
Flags: MW
HStem: -8.32031 21G<80.3125 202.518 80.3125 80.3125> 678.479 20G<113.711 234.918 234.918 234.918>
VStem: 36.8584 251.984
LayerCount: 2
Fore
SplineSet
113.7109375 698.479492188 m 1
 234.91796875 698.479492188 l 1
 202.517578125 -8.3203125 l 1
 80.3125 -8.3203125 l 1
 113.7109375 698.479492188 l 1
EndSplineSet
EndChar

StartChar: bracketright
Encoding: 93 93 63
Width: 292
GlyphClass: 2
Flags: MW
HStem: -78.6201 139.649<-30.0283 53.5723 -30.0283 164.781 -62.2695 53.5723> 598.729 139.65<126.351 177.71 94.1094 353.401>
VStem: 40.2861 227.051 123.887 143.45
LayerCount: 2
Fore
SplineSet
177.709960938 598.729492188 m 1xd0
 94.109375 598.729492188 l 1
 126.350585938 738.379882812 l 1
 353.401367188 738.379882812 l 1
 164.78125 -78.6201171875 l 1
 -62.26953125 -78.6201171875 l 1
 -30.0283203125 61.029296875 l 1xe0
 53.572265625 61.029296875 l 1
 177.709960938 598.729492188 l 1xd0
EndSplineSet
Substitution2: "'rtla' Right to Left Alternates lookup 0 subtable" bracketleft
EndChar

StartChar: asciicircum
Encoding: 94 94 64
Width: 422
GlyphClass: 2
Flags: MW
HStem: 678.479 20G<236.558 349.22 349.22 349.22>
LayerCount: 2
Fore
SplineSet
236.557617188 698.479492188 m 1
 349.219726562 698.479492188 l 1
 382.505859375 266.229492188 l 1
 260.15625 266.229492188 l 1
 244.887695312 490.563476562 l 1
 126.03515625 266.229492188 l 1
 3.685546875 266.229492188 l 1
 236.557617188 698.479492188 l 1
EndSplineSet
EndChar

StartChar: underscore
Encoding: 95 95 65
Width: 428
GlyphClass: 2
Flags: MW
HStem: -109.971 99.75<-82.5771 332.344 -105.606 355.373>
LayerCount: 2
Fore
SplineSet
-82.5771484375 -10.220703125 m 1
 355.373046875 -10.220703125 l 1
 332.34375 -109.970703125 l 1
 -105.606445312 -109.970703125 l 1
 -82.5771484375 -10.220703125 l 1
EndSplineSet
EndChar

StartChar: grave
Encoding: 96 96 66
Width: 499
GlyphClass: 2
Flags: MW
HStem: 561.68 163.4<307.869 361.88 197.812 443.103 307.869 307.869>
VStem: 114.819 283.014
LayerCount: 2
Fore
SplineSet
197.8125 725.080078125 m 1
 361.879882812 725.080078125 l 1
 443.102539062 561.6796875 l 1
 307.869140625 561.6796875 l 1
 197.8125 725.080078125 l 1
EndSplineSet
EndChar

StartChar: a
Encoding: 97 97 67
Width: 408
GlyphClass: 2
Flags: MW
HStem: -6.4209 130.148<67.46 162.199> 218.729 111.15<184.63 231.542 194.481 231.542> 413.479 131.101<214.958 280.583>
VStem: 32.6885 144.399 239.788 144.4
LayerCount: 2
Fore
SplineSet
221.392578125 413.479492188 m 0
 208.5234375 413.479492188 191.619140625 407.965820312 185.434570312 381.1796875 c 2
 179.732421875 356.479492188 l 1
 43.8828125 356.479492188 l 1
 48.7080078125 377.379882812 l 2
 60.8388671875 429.922851562 85.8037109375 472.747070312 124.9140625 502.134765625 c 0
 162.930664062 530.701171875 206.86328125 544.580078125 254.509765625 544.580078125 c 0
 306.657226562 544.580078125 346.154296875 528.833007812 369.296875 495.921875 c 0
 392.201171875 463.350585938 396.702148438 419.797851562 384.715820312 367.87890625 c 2
 300.056640625 1.1787109375 l 1
 163.256835938 1.1787109375 l 1
 166.975585938 17.2880859375 l 1
 150.916992188 6.21484375 128.801757812 -6.4208984375 90.251953125 -6.4208984375 c 0
 44.66796875 -6.4208984375 10.7421875 9.00390625 -6.8154296875 41.033203125 c 0
 -23.958984375 72.3076171875 -25.3076171875 114.385742188 -13.5009765625 165.529296875 c 0
 -1.873046875 215.89453125 23.4599609375 257.578125 62.96484375 287.016601562 c 0
 102.3984375 316.400390625 151.01171875 329.87890625 206.841796875 329.87890625 c 2
 231.541992188 329.87890625 l 1
 242.2890625 376.428710938 l 2
 250.329101562 411.251953125 233.484375 413.479492188 221.392578125 413.479492188 c 0
152.598632812 123.727539062 m 0
 171.798828125 123.727539062 187.881835938 140.765625 194.256835938 168.37890625 c 2
 205.880859375 218.728515625 l 1
 194.481445312 218.728515625 l 2
 174.778320312 218.728515625 161.274414062 214.172851562 152.286132812 207.69140625 c 0
 144.626953125 202.169921875 136.821289062 191.18359375 131.995117188 170.278320312 c 0
 127.649414062 151.453125 128.830078125 139.5859375 132.264648438 133.15234375 c 0
 135.504882812 127.083007812 140.782226562 123.727539062 152.598632812 123.727539062 c 0
EndSplineSet
EndChar

StartChar: b
Encoding: 98 98 68
Width: 412
GlyphClass: 2
Flags: MW
HStem: -6.41992 132.999<159.018 166.797 159.018 187.426> 411.579 132.999<223.079 316.8> 670.878 20G<118.233 262.633 262.633 262.633>
VStem: 43.1357 142.499 247.386 144.4
LayerCount: 2
Fore
SplineSet
224.12890625 524.102539062 m 1
 238.375976562 532.895507812 262.43359375 544.578125 296.306640625 544.578125 c 0
 337.29296875 544.578125 368.493164062 529.444335938 386.453125 499.432617188 c 0
 404.837890625 468.711914062 405.106445312 423.291992188 391.655273438 365.029296875 c 2
 347.3515625 173.12890625 l 2
 333.879882812 114.776367188 312.044921875 69.154296875 278.364257812 38.4453125 c 0
 245.794921875 8.7490234375 207.651367188 -6.419921875 167.200195312 -6.419921875 c 0
 132.791015625 -6.419921875 114.086914062 5.2060546875 102.72265625 14.689453125 c 1
 99.6025390625 1.177734375 l 1
 -40.9970703125 1.177734375 l 1
 118.233398438 690.877929688 l 1
 262.6328125 690.877929688 l 1
 224.12890625 524.102539062 l 1
161.802734375 126.579101562 m 0
 171.791015625 126.579101562 192.204101562 126.579101562 207.118164062 191.178710938 c 2
 243.087890625 346.978515625 l 2
 249.34375 374.075195312 249.198242188 391.920898438 246.015625 400.3203125 c 0
 242.9609375 408.3828125 238.28125 411.579101562 227.6015625 411.579101562 c 0
 218.555664062 411.579101562 196.250976562 411.579101562 181.336914062 346.978515625 c 2
 145.3671875 191.178710938 l 2
 140.716796875 171.03515625 135.744140625 138.309570312 149.747070312 129.435546875 c 0
 152.501953125 127.689453125 156.233398438 126.579101562 161.802734375 126.579101562 c 0
EndSplineSet
EndChar

StartChar: c
Encoding: 99 99 69
Width: 409
GlyphClass: 2
Flags: MW
HStem: -6.41992 133<155.515 157.655> 411.58 133<230.816 232.995>
VStem: 40.2861 144.401 248.337 140.601
LayerCount: 2
Fore
SplineSet
160.856445312 126.580078125 m 0
 170.104492188 126.580078125 193.15625 126.580078125 204.780273438 176.9296875 c 2
 212.456054688 210.1796875 l 1
 353.056640625 210.1796875 l 1
 345.380859375 176.9296875 l 2
 331.9296875 118.668945312 307.311523438 72.0712890625 269.098632812 40.130859375 c 0
 231.157226562 8.4169921875 184.209960938 -6.419921875 131.100585938 -6.419921875 c 0
 76.1142578125 -6.419921875 34.8076171875 8.8759765625 11.078125 41.6201171875 c 0
 -13.0556640625 74.923828125 -15.013671875 126.067382812 0.23828125 192.129882812 c 2
 35.7685546875 346.029296875 l 2
 51.0205078125 412.091796875 76.5927734375 463.236328125 116.104492188 496.5390625 c 0
 154.953125 529.284179688 203.323242188 544.580078125 258.309570312 544.580078125 c 0
 312.922851562 544.580078125 426.6015625 528.735351562 388.587890625 364.080078125 c 2
 380.252929688 327.979492188 l 1
 239.65234375 327.979492188 l 1
 247.547851562 362.1796875 l 2
 252.203125 382.342773438 250.97265625 394.984375 247.3828125 401.624023438 c 0
 243.720703125 408.399414062 238.38671875 411.580078125 227.603515625 411.580078125 c 0
 217.475585938 411.580078125 195.303710938 411.580078125 180.389648438 346.979492188 c 2
 144.419921875 191.1796875 l 2
 138.174804688 164.12890625 138.500976562 146.44140625 141.866210938 138.094726562 c 0
 145.196289062 129.837890625 150.172851562 126.580078125 160.856445312 126.580078125 c 0
EndSplineSet
EndChar

StartChar: d
Encoding: 100 100 70
Width: 412
GlyphClass: 2
Flags: MW
HStem: -6.41992 133.002<73.5542 166.84> 411.582 132.998<220.367 226.771 198.866 231.495> 670.88 20G<320.584 464.034 464.034 464.034>
VStem: 40.2881 144.401 247.389 141.548
LayerCount: 2
Fore
SplineSet
219.360351562 544.580078125 m 0
 234.180664062 544.580078125 260.500976562 542.278320312 282.029296875 523.87890625 c 1
 320.583984375 690.879882812 l 1
 464.034179688 690.879882812 l 1
 304.8046875 1.1796875 l 1
 165.154296875 1.1796875 l 1
 168.32421875 14.9091796875 l 1
 144.514648438 0.939453125 119.483398438 -6.419921875 94.05078125 -6.419921875 c 0
 53.0576171875 -6.419921875 21.5556640625 8.67578125 2.65234375 38.4453125 c 0
 -16.849609375 69.1552734375 -17.6171875 114.778320312 -4.1455078125 173.130859375 c 2
 40.1572265625 365.030273438 l 2
 53.615234375 423.323242188 75.0546875 468.811523438 107.995117188 499.529296875 c 0
 140.08984375 529.458984375 178.372070312 544.580078125 219.360351562 544.580078125 c 0
207.122070312 191.181640625 m 2
 243.090820312 346.981445312 l 2
 249.3359375 374.032226562 249.01171875 391.720703125 245.645507812 400.06640625 c 0
 242.407226562 408.09765625 237.284179688 411.58203125 225.706054688 411.58203125 c 0
 215.02734375 411.58203125 208.870117188 408.385742188 202.092773438 400.323242188 c 0
 195.032226562 391.923828125 186.647460938 374.078125 180.391601562 346.981445312 c 2
 144.422851562 191.181640625 l 2
 138.005859375 163.38671875 138.215820312 145.407226562 141.321289062 137.526367188 c 0
 144.275390625 130.032226562 149.118164062 126.58203125 160.857421875 126.58203125 c 0
 172.822265625 126.58203125 180.611328125 131.76171875 187.840820312 142.01171875 c 0
 194.845703125 151.943359375 201.869140625 168.428710938 207.122070312 191.181640625 c 2
EndSplineSet
EndChar

StartChar: e
Encoding: 101 101 71
Width: 413
GlyphClass: 2
Flags: MW
HStem: -6.41992 131.099<155.005 157.609> 213.029 114<175.782 239.433 175.782 357.514 149.463 239.433>
VStem: 40.2852 144.399 248.335 140.6
LayerCount: 2
Fore
SplineSet
161.364257812 124.678710938 m 0
 171.703125 124.678710938 192.71484375 124.678710938 203.461914062 171.228515625 c 2
 208.506835938 193.079101562 l 1
 349.106445312 193.079101562 l 1
 343.841796875 170.279296875 l 2
 331.072265625 114.966796875 306.672851562 70.1826171875 268.704101562 39.0380859375 c 0
 230.888671875 8.0185546875 184.12109375 -6.419921875 131.09765625 -6.419921875 c 0
 76.9873046875 -6.419921875 36.1953125 10.181640625 12.501953125 44.7314453125 c 0
 -11.7451171875 80.0869140625 -12.9208984375 135.13671875 3.7470703125 207.330078125 c 2
 32.0390625 329.879882812 l 2
 48.2724609375 400.193359375 73.955078125 454.48828125 112.57421875 490.890625 c 0
 151.1640625 527.266601562 200.059570312 544.580078125 255.458984375 544.580078125 c 0
 310.416992188 544.580078125 351.576171875 526.81640625 375.03125 490.263671875 c 0
 398.693359375 453.390625 400.486328125 399.166015625 384.490234375 329.879882812 c 2
 357.513671875 213.029296875 l 1
 149.462890625 213.029296875 l 1
 147.26953125 203.529296875 145.075195312 194.029296875 142.881835938 184.529296875 c 0
 137.979492188 163.291992188 137.731445312 148.135742188 140.278320312 139.124023438 c 0
 143.236328125 128.663085938 148.645507812 124.678710938 161.364257812 124.678710938 c 0
226.651367188 411.579101562 m 0
 217.603515625 411.579101562 195.301757812 411.579101562 180.387695312 346.978515625 c 2
 175.782226562 327.029296875 l 1
 239.432617188 327.029296875 l 1
 244.038085938 346.978515625 l 2
 250.283203125 374.029296875 249.95703125 391.717773438 246.590820312 400.063476562 c 0
 243.352539062 408.094726562 238.229492188 411.579101562 226.651367188 411.579101562 c 0
EndSplineSet
EndChar

StartChar: f
Encoding: 102 102 72
Width: 295
GlyphClass: 2
Flags: MW
HStem: 425.83 111.149<69.4043 94.0928 43.7432 119.754 263.204 304.993> 578.779 112.101<301.584 308.954 308.954 340.305>
VStem: 80.1865 143.45
LayerCount: 2
Fore
SplineSet
122.385742188 548.379882812 m 2
 133.841796875 598.00390625 169.5859375 690.879882812 301.583984375 690.879882812 c 2
 366.184570312 690.879882812 l 1
 340.3046875 578.779296875 l 1
 308.954101562 578.779296875 l 2
 291.240234375 578.779296875 281.82421875 574.625 278.31640625 571.682617188 c 0
 274.649414062 568.606445312 268.350585938 559.272460938 264.081054688 540.779296875 c 2
 263.204101562 536.979492188 l 1
 330.654296875 536.979492188 l 1
 304.993164062 425.830078125 l 1
 237.54296875 425.830078125 l 1
 139.504882812 1.1796875 l 1
 -3.9453125 1.1796875 l 1
 94.0927734375 425.830078125 l 1
 43.7431640625 425.830078125 l 1
 69.404296875 536.979492188 l 1
 119.75390625 536.979492188 l 1
 122.385742188 548.379882812 l 2
EndSplineSet
EndChar

StartChar: g
Encoding: 103 103 73
Width: 412
GlyphClass: 2
Flags: MW
HStem: -158.42 129.199<115.018 121.208> 40.1309 133<84.3042 177.588> 411.581 132.998<220.367 226.771 198.866 231.495> 516.979 20G<285.054 428.504 428.504 428.504>
VStem: 40.2891 144.401 247.39 141.548
LayerCount: 2
Fore
SplineSet
219.360351562 544.579101562 m 0xec
 234.180664062 544.579101562 260.501953125 542.278320312 282.029296875 523.877929688 c 1
 285.053710938 536.978515625 l 1
 428.50390625 536.978515625 l 1xdc
 310.069335938 23.978515625 l 2
 297.657226562 -29.7822265625 272.458984375 -74.728515625 233.661132812 -108.279296875 c 0
 194.588867188 -142.06640625 147.357421875 -158.419921875 95.05859375 -158.419921875 c 0
 43.3212890625 -158.419921875 -64.451171875 -141.83203125 -35.39453125 0.7099609375 c 2
 -31.8134765625 18.279296875 l 1
 105.455078125 18.279296875 l 1
 101.5078125 1.1796875 l 2
 96.5361328125 -20.3544921875 104.196289062 -29.220703125 125.838867188 -29.220703125 c 0
 136.864257812 -29.220703125 158.506835938 -27.626953125 168.008789062 13.5302734375 c 2
 179.07421875 61.4609375 l 1
 155.264648438 47.490234375 130.233398438 40.130859375 104.80078125 40.130859375 c 0
 63.8076171875 40.130859375 32.3056640625 55.2265625 13.40234375 84.99609375 c 0
 -6.0986328125 115.706054688 -6.8701171875 161.327148438 6.6015625 219.6796875 c 2
 40.158203125 365.029296875 l 2
 53.6162109375 423.322265625 75.0556640625 468.810546875 107.99609375 499.528320312 c 0
 140.090820312 529.458007812 178.372070312 544.579101562 219.360351562 544.579101562 c 0xec
217.870117188 237.73046875 m 2
 243.091796875 346.98046875 l 2
 249.336914062 374.03125 249.012695312 391.719726562 245.646484375 400.065429688 c 0
 242.408203125 408.096679688 237.284179688 411.581054688 225.706054688 411.581054688 c 0xec
 215.02734375 411.581054688 208.87109375 408.384765625 202.09375 400.322265625 c 0
 195.033203125 391.922851562 186.6484375 374.077148438 180.392578125 346.98046875 c 2
 155.170898438 237.73046875 l 2
 148.75390625 209.935546875 148.963867188 191.956054688 152.069335938 184.075195312 c 0
 155.022460938 176.581054688 159.865234375 173.130859375 171.60546875 173.130859375 c 0
 183.5703125 173.130859375 191.358398438 178.310546875 198.587890625 188.560546875 c 0
 205.592773438 198.4921875 212.6171875 214.977539062 217.870117188 237.73046875 c 2
EndSplineSet
EndChar

StartChar: h
Encoding: 104 104 74
Width: 412
GlyphClass: 2
Flags: MW
HStem: 411.58 132.999<222.424 311.009> 670.88 20G<118.234 262.633 262.633 262.633>
VStem: 43.1367 144.399 244.537 144.4
LayerCount: 2
Fore
SplineSet
226.653320312 411.580078125 m 0
 218.1953125 411.580078125 197.798828125 410.048828125 189.818359375 375.479492188 c 2
 103.404296875 1.1796875 l 1
 -40.9951171875 1.1796875 l 1
 118.234375 690.879882812 l 1
 262.6328125 690.879882812 l 1
 224.427734375 525.393554688 l 1
 246.104492188 537.875976562 268.372070312 544.579101562 290.607421875 544.579101562 c 0
 331.41015625 544.579101562 428.102539062 535.23828125 391.438476562 376.4296875 c 2
 304.805664062 1.1796875 l 1
 160.405273438 1.1796875 l 1
 246.819335938 375.479492188 l 2
 250.235351562 390.27734375 250.936523438 411.580078125 226.653320312 411.580078125 c 0
EndSplineSet
EndChar

StartChar: i
Encoding: 105 105 75
Width: 217
GlyphClass: 2
Flags: MW
HStem: 516.979 20G<86.5039 230.904 230.904 230.904> 564.529 126.351<122.034 237.265 92.8643 266.435>
VStem: 46.9365 144.4
LayerCount: 2
Fore
SplineSet
86.50390625 536.979492188 m 1
 230.904296875 536.979492188 l 1
 107.205078125 1.1796875 l 1
 -37.1953125 1.1796875 l 1
 86.50390625 536.979492188 l 1
122.034179688 690.879882812 m 1
 266.434570312 690.879882812 l 1
 237.264648438 564.529296875 l 1
 92.8642578125 564.529296875 l 1
 122.034179688 690.879882812 l 1
EndSplineSet
EndChar

StartChar: j
Encoding: 106 106 76
Width: 217
GlyphClass: 2
Flags: MW
HStem: 516.979 20G<86.5039 230.904 230.904 230.904> 564.529 126.351<122.034 237.265 92.8643 266.435>
VStem: 46.9365 144.4
LayerCount: 2
Fore
SplineSet
122.034179688 690.879882812 m 1
 266.434570312 690.879882812 l 1
 237.264648438 564.529296875 l 1
 92.8642578125 564.529296875 l 1
 122.034179688 690.879882812 l 1
112.46875 23.9794921875 m 2
 93.4921875 -58.216796875 37.984375 -148.919921875 -114.598632812 -148.919921875 c 2
 -137.3984375 -148.919921875 l 1
 -106.693359375 -15.919921875 l 1
 -84.84375 -15.919921875 l 2
 -58.935546875 -15.919921875 -39.134765625 -7.220703125 -30.396484375 30.6298828125 c 2
 86.50390625 536.979492188 l 1
 230.904296875 536.979492188 l 1
 112.46875 23.9794921875 l 2
EndSplineSet
EndChar

StartChar: k
Encoding: 107 107 77
Width: 422
GlyphClass: 2
Flags: MW
HStem: 516.979 20G<319.905 476.22 476.22 476.22> 670.88 20G<118.234 262.634 262.634 262.634>
VStem: 43.1367 144.399
LayerCount: 2
Fore
SplineSet
192.524414062 1.1796875 m 1
 162.116210938 180.963867188 l 1
 138.852539062 154.724609375 l 1
 103.404296875 1.1796875 l 1
 -40.9951171875 1.1796875 l 1
 118.234375 690.879882812 l 1
 262.633789062 690.879882812 l 1
 190.544921875 378.62890625 l 1
 319.905273438 536.979492188 l 1
 476.219726562 536.979492188 l 1
 286.044921875 321.616210938 l 1
 351.8203125 1.1796875 l 1
 192.524414062 1.1796875 l 1
EndSplineSet
EndChar

StartChar: l
Encoding: 108 108 78
Width: 250
GlyphClass: 2
Flags: MW
HStem: 1.17969 133<121.975 199.66 146.154 199.66> 670.88 20G<118.234 262.634 262.634 262.634>
VStem: 43.1367 144.399
LayerCount: 2
Fore
SplineSet
146.154296875 1.1796875 m 2
 97.7958984375 1.1796875 -39.5146484375 7.5927734375 -1.078125 174.080078125 c 2
 118.234375 690.879882812 l 1
 262.633789062 690.879882812 l 1
 144.856445312 180.729492188 l 2
 136.119140625 142.8828125 151.897460938 134.1796875 177.809570312 134.1796875 c 2
 199.66015625 134.1796875 l 1
 168.955078125 1.1796875 l 1
 146.154296875 1.1796875 l 2
EndSplineSet
EndChar

StartChar: m
Encoding: 109 109 79
Width: 616
GlyphClass: 2
Flags: MW
HStem: 411.58 133.001<222.424 302.497 279.071 440.195> 516.979 20G<82.7041 222.354 222.354 222.354>
VStem: 43.1367 144.399 244.537 144.4 445.938 144.399
LayerCount: 2
Fore
SplineSet
226.653320312 411.580078125 m 0xb8
 218.1953125 411.580078125 197.798828125 410.048828125 189.818359375 375.479492188 c 2
 103.404296875 1.1796875 l 1
 -40.9951171875 1.1796875 l 1
 82.7041015625 536.979492188 l 1
 222.354492188 536.979492188 l 1x78
 219.173828125 523.202148438 l 1
 242.16796875 537.180664062 266.583007812 544.581054688 291.559570312 544.581054688 c 0
 313.43359375 544.581054688 355.172851562 539.170898438 380.708984375 501.506835938 c 1
 402.900390625 518.763671875 443.567382812 544.581054688 488.209960938 544.581054688 c 0
 562.865234375 544.581054688 624.57421875 513.89453125 592.837890625 376.4296875 c 2
 506.205078125 1.1796875 l 1
 361.805664062 1.1796875 l 1
 448.219726562 375.479492188 l 2
 451.635742188 390.27734375 452.336914062 411.580078125 428.053710938 411.580078125 c 0
 416.370117188 411.580078125 398.3203125 406.237304688 391.219726562 375.479492188 c 2
 304.805664062 1.1796875 l 1
 160.405273438 1.1796875 l 1
 246.819335938 375.479492188 l 2
 250.235351562 390.27734375 250.936523438 411.580078125 226.653320312 411.580078125 c 0xb8
EndSplineSet
EndChar

StartChar: n
Encoding: 110 110 80
Width: 412
GlyphClass: 2
Flags: MW
HStem: 411.58 133<222.424 322.758> 516.979 20G<82.7041 222.354 222.354 222.354>
VStem: 43.1367 144.399 244.537 144.4
LayerCount: 2
Fore
SplineSet
226.653320312 411.580078125 m 0xb0
 218.1953125 411.580078125 197.798828125 410.048828125 189.818359375 375.479492188 c 2
 103.404296875 1.1796875 l 1
 -40.9951171875 1.1796875 l 1
 82.7041015625 536.979492188 l 1
 222.354492188 536.979492188 l 1x70
 219.125 522.993164062 l 1
 242.094726562 537.059570312 266.18359375 544.580078125 290.609375 544.580078125 c 0
 354.90625 544.580078125 423.43359375 515.016601562 391.438476562 376.4296875 c 2
 304.805664062 1.1796875 l 1
 160.405273438 1.1796875 l 1
 246.819335938 375.479492188 l 2
 250.235351562 390.27734375 250.936523438 411.580078125 226.653320312 411.580078125 c 0xb0
EndSplineSet
EndChar

StartChar: o
Encoding: 111 111 81
Width: 413
GlyphClass: 2
Flags: MW
HStem: -6.41992 21G<103.607 158.589>
VStem: 40.2861 144.4 248.337 144.4
LayerCount: 2
Fore
SplineSet
0.23828125 192.129882812 m 2
 35.7685546875 346.029296875 l 2
 51.0205078125 412.091796875 76.5927734375 463.236328125 116.104492188 496.5390625 c 0
 154.953125 529.284179688 203.323242188 544.580078125 258.309570312 544.580078125 c 0
 313.287109375 544.580078125 354.487304688 529.288085938 377.908203125 496.465820312 c 0
 401.6796875 463.15234375 403.46484375 412.063476562 388.219726562 346.029296875 c 2
 352.689453125 192.129882812 l 2
 337.444335938 126.095703125 312.069335938 75.0078125 272.916015625 41.693359375 c 0
 234.33984375 8.8720703125 186.078125 -6.419921875 131.100585938 -6.419921875 c 0
 76.1142578125 -6.419921875 34.8076171875 8.8759765625 11.078125 41.6201171875 c 0
 -13.0556640625 74.923828125 -15.013671875 126.067382812 0.23828125 192.129882812 c 2
160.85546875 126.580078125 m 0
 170.982421875 126.580078125 193.15625 126.580078125 208.069335938 191.1796875 c 2
 244.0390625 346.979492188 l 2
 250.284179688 374.030273438 249.959960938 391.71875 246.59375 400.064453125 c 0
 243.354492188 408.095703125 238.23046875 411.580078125 226.653320312 411.580078125 c 0
 217.607421875 411.580078125 195.302734375 411.580078125 180.388671875 346.979492188 c 2
 144.418945312 191.1796875 l 2
 138.173828125 164.12890625 138.5 146.44140625 141.865234375 138.094726562 c 0
 145.1953125 129.837890625 150.171875 126.580078125 160.85546875 126.580078125 c 0
EndSplineSet
EndChar

StartChar: p
Encoding: 112 112 82
Width: 412
GlyphClass: 2
Flags: MW
HStem: -6.41992 132.998<159.019 166.798 159.019 187.426> 411.578 133<223.08 316.8> 516.98 20G<82.7041 223.303 223.303 223.303>
VStem: 43.1367 144.399 247.387 144.399
LayerCount: 2
Fore
SplineSet
296.306640625 544.578125 m 0xd8
 337.29296875 544.578125 368.493164062 529.444335938 386.453125 499.432617188 c 0
 404.837890625 468.711914062 405.106445312 423.291992188 391.655273438 365.029296875 c 2
 347.3515625 173.12890625 l 2
 333.879882812 114.776367188 312.044921875 69.154296875 278.364257812 38.4453125 c 0
 245.794921875 8.7490234375 207.651367188 -6.419921875 167.200195312 -6.419921875 c 0
 142.963867188 -6.419921875 122.26171875 -0.3447265625 105.787109375 11.5 c 1
 68.7509765625 -148.919921875 l 1
 -75.6484375 -148.919921875 l 1
 82.7041015625 536.98046875 l 1
 223.302734375 536.98046875 l 1xb8
 219.909179688 522.282226562 l 1
 243.505859375 536.9453125 269.327148438 544.578125 296.306640625 544.578125 c 0xd8
161.803710938 126.578125 m 0
 171.791992188 126.578125 192.205078125 126.578125 207.119140625 191.177734375 c 2
 243.087890625 346.977539062 l 2
 249.34375 374.07421875 249.198242188 391.919921875 246.016601562 400.319335938 c 0
 242.961914062 408.381835938 238.282226562 411.578125 227.602539062 411.578125 c 0xd8
 218.556640625 411.578125 196.251953125 411.578125 181.336914062 346.977539062 c 2
 145.368164062 191.177734375 l 2
 140.717773438 171.034179688 135.744140625 138.30859375 149.747070312 129.434570312 c 0
 152.502929688 127.688476562 156.234375 126.578125 161.803710938 126.578125 c 0
EndSplineSet
EndChar

StartChar: q
Encoding: 113 113 83
Width: 412
GlyphClass: 2
Flags: MW
HStem: -6.41797 133<73.5552 166.839> 411.582 132.998<220.366 231.494> 516.979 20G<288.854 428.504 428.504 428.504>
VStem: 40.2861 144.402 245.486 143.45
LayerCount: 2
Fore
SplineSet
288.853515625 536.979492188 m 1xb8
 428.50390625 536.979492188 l 1xb8
 270.151367188 -148.919921875 l 1
 126.701171875 -148.919921875 l 1
 163.737304688 11.5009765625 l 1
 141.793945312 -0.34375 118.287109375 -6.41796875 94.0517578125 -6.41796875 c 0
 53.05859375 -6.41796875 21.5556640625 8.677734375 2.65234375 38.447265625 c 0
 -16.8486328125 69.15625 -17.619140625 114.778320312 -4.1474609375 173.130859375 c 2
 40.1552734375 365.030273438 l 2
 53.61328125 423.323242188 75.052734375 468.811523438 107.993164062 499.529296875 c 0
 140.087890625 529.458984375 178.370117188 544.580078125 219.358398438 544.580078125 c 0xd8
 246.072265625 544.580078125 268.263671875 536.677734375 285.31640625 521.661132812 c 1
 288.853515625 536.979492188 l 1xb8
207.12109375 191.181640625 m 2
 243.08984375 346.981445312 l 2
 249.334960938 374.032226562 249.010742188 391.720703125 245.64453125 400.06640625 c 0
 242.40625 408.09765625 237.283203125 411.58203125 225.705078125 411.58203125 c 0xd8
 215.026367188 411.58203125 208.869140625 408.385742188 202.091796875 400.323242188 c 0
 195.03125 391.923828125 186.646484375 374.078125 180.390625 346.981445312 c 2
 144.421875 191.181640625 l 2
 138.004882812 163.38671875 138.21484375 145.407226562 141.3203125 137.526367188 c 0
 144.275390625 130.032226562 149.1171875 126.58203125 160.856445312 126.58203125 c 0
 172.821289062 126.58203125 180.610351562 131.76171875 187.83984375 142.01171875 c 0
 194.844726562 151.943359375 201.868164062 168.428710938 207.12109375 191.181640625 c 2
EndSplineSet
EndChar

StartChar: r
Encoding: 114 114 84
Width: 313
GlyphClass: 2
Flags: MW
HStem: 402.08 144.399<246.192 316.807> 516.979 20G<82.7041 222.354 222.354 222.354>
VStem: 43.1367 144.399
LayerCount: 2
Fore
SplineSet
256.759765625 402.080078125 m 0xa0
 235.624023438 402.080078125 194.102539062 394.0390625 180.16796875 333.6796875 c 2
 103.404296875 1.1796875 l 1
 -40.9951171875 1.1796875 l 1
 82.7041015625 536.979492188 l 1
 222.353515625 536.979492188 l 1x60
 218.3203125 519.509765625 l 1
 228.951171875 526.872070312 259.373046875 546.479492188 306.247070312 546.479492188 c 0
 327.3671875 546.479492188 335.866210938 544.224609375 355.8046875 538.93359375 c 1
 320.291015625 385.107421875 l 1
 287.526367188 398.377929688 278.38671875 402.080078125 256.759765625 402.080078125 c 0xa0
EndSplineSet
EndChar

StartChar: s
Encoding: 115 115 85
Width: 395
GlyphClass: 2
Flags: MW
HStem: -6.41992 126.349<147.75 148.553> 419.18 125.399<223.978 224.291>
VStem: 32.6846 140.6 243.585 141.551
LayerCount: 2
Fore
SplineSet
218.905273438 419.1796875 m 0
 190.943359375 419.1796875 184.087890625 400.045898438 181.487304688 388.779296875 c 0
 179.045898438 378.20703125 179.787109375 370.91015625 182.42578125 365.454101562 c 0
 184.677734375 360.794921875 192.217773438 353.568359375 206.989257812 346.54296875 c 2
 262.69140625 319.8984375 l 2
 332.088867188 286.030273438 355.817382812 238.603515625 337.412109375 158.879882812 c 0
 326.41796875 111.259765625 300.853515625 70.5673828125 261.37109375 39.6455078125 c 0
 221.639648438 8.5283203125 174.555664062 -6.419921875 122.549804688 -6.419921875 c 0
 70.63671875 -6.419921875 30.5576171875 8.1318359375 5.3125 38.623046875 c 0
 -20.0732421875 69.283203125 -25.927734375 111.71875 -14.162109375 162.678710938 c 2
 -8.8984375 185.478515625 l 1
 131.701171875 185.478515625 l 1
 126.4375 162.678710938 l 2
 117.069335938 122.103515625 141.8828125 119.928710938 153.618164062 119.928710938 c 0
 172.072265625 119.928710938 188.28125 126.05078125 195.421875 156.979492188 c 0
 198.4296875 170.008789062 198.33203125 186.439453125 166.748046875 202.081054688 c 0
 166.618164062 202.145507812 115.53515625 226.741210938 115.53515625 226.741210938 c 2
 79.2177734375 243.909179688 54.220703125 264.670898438 42.974609375 291.055664062 c 0
 32.0771484375 316.62109375 31.470703125 347.994140625 39.7900390625 384.029296875 c 0
 50.2548828125 429.356445312 75.5 468.560546875 114.372070312 498.991210938 c 0
 153.525390625 529.643554688 199.149414062 544.579101562 248.805664062 544.579101562 c 0
 298.462890625 544.579101562 337.189453125 529.643554688 362.190429688 498.991210938 c 0
 387.1875 468.344726562 393.793945312 427.794921875 382.8125 380.228515625 c 2
 376.671875 353.62890625 l 1
 236.072265625 353.62890625 l 1
 241.3359375 376.428710938 l 2
 250.633789062 416.702148438 229.67578125 419.1796875 218.905273438 419.1796875 c 0
EndSplineSet
EndChar

StartChar: t
Encoding: 116 116 86
Width: 310
GlyphClass: 2
Flags: MW
HStem: 1.17969 133<132.378 236.71 185.104 236.71> 425.83 111.149<61.8037 92.1924 36.1426 117.854 262.254 316.393>
VStem: 78.2861 144.4
LayerCount: 2
Fore
SplineSet
185.104492188 1.1796875 m 2
 79.65234375 1.1796875 3.5615234375 41.927734375 34.0712890625 174.080078125 c 2
 92.1923828125 425.830078125 l 1
 36.142578125 425.830078125 l 1
 61.8037109375 536.979492188 l 1
 117.853515625 536.979492188 l 1
 136.963867188 619.754882812 l 1
 294.87109375 678.26171875 l 1
 262.25390625 536.979492188 l 1
 342.053710938 536.979492188 l 1
 316.392578125 425.830078125 l 1
 236.592773438 425.830078125 l 1
 180.006835938 180.729492188 l 2
 171.934570312 145.763671875 185.091796875 134.1796875 215.809570312 134.1796875 c 2
 236.709960938 134.1796875 l 1
 206.004882812 1.1796875 l 1
 185.104492188 1.1796875 l 2
EndSplineSet
EndChar

StartChar: u
Encoding: 117 117 87
Width: 412
GlyphClass: 2
Flags: MW
HStem: -6.41992 21G<98.959 151.625> 516.979 20G<284.103 428.503 428.503 428.503>
VStem: 43.1357 144.399 244.536 144.4
LayerCount: 2
Fore
SplineSet
151.435546875 209.229492188 m 2
 134.061523438 133.974609375 137.788085938 126.580078125 160.854492188 126.580078125 c 0
 173.170898438 126.580078125 178.962890625 129.607421875 180.899414062 131.244140625 c 0
 187.708007812 136.998046875 193.502929688 144.544921875 208.435546875 209.228515625 c 2
 284.102539062 536.978515625 l 1
 428.502929688 536.978515625 l 1
 347.572265625 186.428710938 l 2
 325.505859375 90.845703125 291.2421875 43.8271484375 239.749023438 16.466796875 c 0
 209.620117188 0.458984375 173.1015625 -6.419921875 130.149414062 -6.419921875 c 0
 67.7685546875 -6.419921875 23.5966796875 8.646484375 5.181640625 44.6806640625 c 0
 -12.115234375 78.5224609375 -12.1318359375 126.20703125 1.7724609375 186.4296875 c 2
 82.703125 536.979492188 l 1
 227.102539062 536.979492188 l 1
 151.435546875 209.229492188 l 2
EndSplineSet
EndChar

StartChar: v
Encoding: 118 118 88
Width: 411
GlyphClass: 2
Flags: MW
HStem: 516.979 20G<49.3994 207.029 207.029 207.029 303.188 460.858 460.858 460.858>
LayerCount: 2
Fore
SplineSet
49.3994140625 536.979492188 m 1
 207.029296875 536.979492188 l 1
 197.349609375 285.208007812 l 1
 303.1875 536.979492188 l 1
 460.858398438 536.979492188 l 1
 203.208984375 1.1796875 l 1
 59.650390625 1.1796875 l 1
 49.3994140625 536.979492188 l 1
EndSplineSet
EndChar

StartChar: w
Encoding: 119 119 89
Width: 603
GlyphClass: 2
Flags: MW
HStem: 516.979 20G<49.8779 207.566 207.566 207.566 289.847 409.461 409.461 409.461 491.741 650.419 650.419 650.419>
LayerCount: 2
Fore
SplineSet
49.8779296875 536.979492188 m 1
 207.56640625 536.979492188 l 1
 189.149414062 295.764648438 l 1
 289.846679688 536.979492188 l 1
 409.4609375 536.979492188 l 1
 398.779296875 295.764648438 l 1
 491.741210938 536.979492188 l 1
 650.418945312 536.979492188 l 1
 403.932617188 1.1796875 l 1
 268.736328125 1.1796875 l 1
 279.158203125 232.234375 l 1
 182.1796875 1.1796875 l 1
 47.9521484375 1.1796875 l 1
 49.8779296875 536.979492188 l 1
EndSplineSet
EndChar

StartChar: x
Encoding: 120 120 90
Width: 384
GlyphClass: 2
Flags: MW
HStem: 516.979 20G<51.7227 201.178 201.178 201.178 280.727 432.402 432.402 432.402>
LayerCount: 2
Fore
SplineSet
164.435546875 1.1796875 m 1
 141.002929688 113.666015625 l 1
 72.470703125 1.1796875 l 1
 -78.4677734375 1.1796875 l 1
 106.016601562 278.528320312 l 1
 51.72265625 536.979492188 l 1
 201.177734375 536.979492188 l 1
 222.017578125 439.016601562 l 1
 280.7265625 536.979492188 l 1
 432.40234375 536.979492188 l 1
 255.014648438 280.337890625 l 1
 313.961914062 1.1796875 l 1
 164.435546875 1.1796875 l 1
EndSplineSet
EndChar

StartChar: y
Encoding: 121 121 91
Width: 411
GlyphClass: 2
Flags: MW
HStem: -148.92 131.1<-68.0488 19.2178 -68.0488 19.2178> 516.979 20G<49.1016 206.638 206.638 206.638 309.109 460.915 460.915 460.915>
LayerCount: 2
Fore
SplineSet
-47.1484375 -148.919921875 m 2
 -68.048828125 -148.919921875 l 1
 -37.7822265625 -17.8203125 l 1
 19.2177734375 -17.8203125 l 2
 44.27734375 -17.8203125 58.7900390625 -12.474609375 67.037109375 -5.7802734375 c 1
 49.1015625 536.979492188 l 1
 206.637695312 536.979492188 l 1
 204.3125 296.8828125 l 1
 309.109375 536.979492188 l 1
 460.915039062 536.979492188 l 1
 190.686523438 -21.896484375 l 2
 175.16015625 -54.533203125 139.8671875 -119.6328125 54.1015625 -139.411132812 c 0
 25.951171875 -145.90234375 -7.611328125 -148.919921875 -47.1484375 -148.919921875 c 2
EndSplineSet
EndChar

StartChar: z
Encoding: 122 122 92
Width: 388
GlyphClass: 2
Flags: MW
HStem: 1.17969 127.3<145.106 282.955> 409.68 127.3<50.4639 406.654 79.8535 220.321>
VStem: 40.2861 326.801
LayerCount: 2
Fore
SplineSet
50.4638671875 409.6796875 m 1
 79.853515625 536.979492188 l 1
 406.654296875 536.979492188 l 1
 380.166992188 422.252929688 l 1
 145.106445312 128.479492188 l 1
 312.344726562 128.479492188 l 1
 282.955078125 1.1796875 l 1
 -43.845703125 1.1796875 l 1
 -17.3447265625 115.96875 l 1
 220.321289062 409.6796875 l 1
 50.4638671875 409.6796875 l 1
EndSplineSet
EndChar

StartChar: braceleft
Encoding: 123 123 93
Width: 326
GlyphClass: 2
Flags: MW
HStem: -78.6201 132.05<112.292 233.268 197.167 202.781> 606.329 132.05<321.1 324.814 324.814 360.915>
VStem: 102.986 143.45
LayerCount: 2
Fore
SplineSet
180.508789062 80.029296875 m 2
 174.745117188 55.06640625 186.88671875 53.4296875 197.166992188 53.4296875 c 2
 233.267578125 53.4296875 l 1
 202.78125 -78.6201171875 l 1
 132.48046875 -78.6201171875 l 2
 92.103515625 -78.6201171875 60.974609375 -67.482421875 42.9208984375 -43.0146484375 c 0
 24.9423828125 -18.650390625 22.14453125 15.4296875 31.5751953125 56.279296875 c 2
 68.2021484375 214.928710938 l 2
 73.5185546875 237.955078125 71.8974609375 251.228515625 68.580078125 256.600585938 c 0
 65.91015625 260.922851562 56.6494140625 266.228515625 34.447265625 266.228515625 c 2
 17.3466796875 266.228515625 l 1
 47.8330078125 398.279296875 l 1
 64.93359375 398.279296875 l 2
 87.1357421875 398.279296875 98.8466796875 403.584960938 103.51171875 407.907226562 c 0
 109.204101562 413.180664062 117.114257812 426.791992188 122.594726562 450.529296875 c 2
 157.90625 603.478515625 l 2
 167.336914062 644.328125 185.870117188 678.409179688 215.099609375 702.7734375 c 0
 244.451171875 727.240234375 280.72265625 738.37890625 321.099609375 738.37890625 c 2
 391.400390625 738.37890625 l 1
 360.915039062 606.329101562 l 1
 324.814453125 606.329101562 l 2
 314.533203125 606.329101562 301.635742188 604.69140625 295.873046875 579.728515625 c 2
 268.018554688 459.079101562 l 2
 249.58984375 379.25390625 231.18359375 352.134765625 199.634765625 332.375976562 c 1
 221.424804688 312.404296875 227.91796875 285.383789062 209.458984375 205.4296875 c 2
 180.508789062 80.029296875 l 2
EndSplineSet
Substitution2: "'rtla' Right to Left Alternates lookup 0 subtable" braceright
EndChar

StartChar: bar
Encoding: 124 124 94
Width: 274
GlyphClass: 2
Flags: MW
VStem: 76.3867 140.6
LayerCount: 2
Fore
SplineSet
162.451171875 738.379882812 m 1
 303.05078125 738.379882812 l 1
 114.430664062 -78.6201171875 l 1
 -26.1689453125 -78.6201171875 l 1
 162.451171875 738.379882812 l 1
EndSplineSet
EndChar

StartChar: braceright
Encoding: 125 125 95
Width: 326
GlyphClass: 2
Flags: MW
HStem: -78.6201 132.05<-31.7832 4.31836 4.31836 8.98047 -62.2695 4.31836> 606.33 132.05<126.352 131.966 95.8652 197.602>
VStem: 99.1875 143.448
LayerCount: 2
Fore
SplineSet
148.624023438 579.729492188 m 2
 154.387695312 604.692382812 142.24609375 606.330078125 131.965820312 606.330078125 c 2
 95.865234375 606.330078125 l 1
 126.3515625 738.379882812 l 1
 197.6015625 738.379882812 l 2
 237.965820312 738.379882812 269.010742188 727.248046875 286.759765625 702.672851562 c 0
 304.370117188 678.291015625 306.974609375 644.274414062 297.556640625 603.479492188 c 2
 262.245117188 450.529296875 l 2
 256.765625 426.79296875 258.391601562 413.181640625 261.6484375 407.908203125 c 0
 264.317382812 403.5859375 273.579101562 398.279296875 295.78125 398.279296875 c 2
 312.881835938 398.279296875 l 1
 282.395507812 266.229492188 l 1
 265.294921875 266.229492188 l 2
 243.091796875 266.229492188 231.379882812 260.922851562 226.715820312 256.6015625 c 0
 220.91796875 251.229492188 213.16796875 237.955078125 207.8515625 214.9296875 c 2
 171.224609375 56.279296875 l 2
 161.806640625 15.484375 143.495117188 -18.53125 114.626953125 -42.9140625 c 0
 85.5302734375 -67.48828125 49.3447265625 -78.6201171875 8.98046875 -78.6201171875 c 2
 -62.26953125 -78.6201171875 l 1
 -31.783203125 53.4296875 l 1
 4.318359375 53.4296875 l 2
 14.5986328125 53.4296875 27.49609375 55.0673828125 33.259765625 80.029296875 c 2
 62.2099609375 205.4296875 l 2
 80.111328125 282.96875 99.1328125 311.396484375 130.884765625 332.172851562 c 1
 108.181640625 351.998046875 102.333984375 379.2265625 120.770507812 459.080078125 c 2
 148.624023438 579.729492188 l 2
EndSplineSet
Substitution2: "'rtla' Right to Left Alternates lookup 0 subtable" braceleft
EndChar

StartChar: asciitilde
Encoding: 126 126 96
Width: 422
GlyphClass: 2
Flags: MW
HStem: 193.079 118.749<253.052 260.046 253.052 277.046> 235.83 118.748<132.022 140.085>
LayerCount: 2
Fore
SplineSet
152.694335938 354.578125 m 0x40
 174.51953125 354.578125 193.530273438 350.090820312 226.248046875 326.499023438 c 0
 234.86328125 320.701171875 249.279296875 311.828125 256.82421875 311.828125 c 0
 263.268554688 311.828125 267.296875 313.473632812 271.314453125 316.610351562 c 0
 280.482421875 323.768554688 294.6328125 341.60546875 314.3359375 366.891601562 c 1
 397.181640625 310.1328125 l 1
 363.46875 261.442382812 316.133789062 193.079101562 237.958984375 193.079101562 c 0x80
 200.01953125 193.079101562 172.483398438 214.768554688 163.825195312 221.58984375 c 0
 161.693359375 223.267578125 145.391601562 235.830078125 134.778320312 235.830078125 c 0
 129.266601562 235.830078125 124.846679688 234.329101562 119.58984375 230.522460938 c 0
 109.7734375 223.413085938 96.2392578125 205.951171875 77.8359375 181.870117188 c 1
 -6.880859375 237.4140625 l 1
 28.1650390625 286.661132812 76.4970703125 354.578125 152.694335938 354.578125 c 0x40
EndSplineSet
EndChar

StartChar: exclamdown
Encoding: 161 161 98
Width: 219
GlyphClass: 2
Flags: MW
HStem: 378.33 158.649<87.4541 195.227 50.8271 231.854>
VStem: 47.8867 144.399 66.7959 106.581
LayerCount: 2
Fore
SplineSet
87.4541015625 536.979492188 m 1xc0
 231.853515625 536.979492188 l 1
 195.2265625 378.330078125 l 1
 50.8271484375 378.330078125 l 1
 87.4541015625 536.979492188 l 1xc0
164.473632812 327.029296875 m 1xa0
 79.1572265625 -148.919921875 l 1
 -76.5546875 -148.919921875 l 1
 57.892578125 327.029296875 l 1
 164.473632812 327.029296875 l 1xa0
EndSplineSet
EndChar

StartChar: cent
Encoding: 162 162 99
Width: 445
GlyphClass: 2
Flags: MW
VStem: 40.2861 144.4 191.337 90.25 248.337 140.6
LayerCount: 2
Fore
SplineSet
320.9140625 535.940429688 m 1xc0
 374.040039062 518.7265625 413.66796875 472.71875 388.586914062 364.080078125 c 2
 380.251953125 327.979492188 l 1
 239.65234375 327.979492188 l 1
 247.548828125 362.180664062 l 2
 252.203125 382.34375 250.971679688 394.985351562 247.3828125 401.625 c 0
 243.719726562 408.400390625 238.385742188 411.581054688 227.602539062 411.581054688 c 0
 217.474609375 411.581054688 195.302734375 411.581054688 180.388671875 346.98046875 c 2
 144.419921875 191.180664062 l 2
 138.174804688 164.129882812 138.5 146.44140625 141.865234375 138.095703125 c 0
 145.1953125 129.838867188 150.171875 126.581054688 160.85546875 126.581054688 c 0
 170.103515625 126.581054688 193.15625 126.581054688 204.780273438 176.930664062 c 2
 212.456054688 210.180664062 l 1
 353.055664062 210.180664062 l 1
 345.379882812 176.930664062 l 2xa0
 338.893554688 148.8359375 312.390625 34.7470703125 197.694335938 2.2158203125 c 1
 175.522460938 -93.8193359375 l 1
 85.2724609375 -93.8193359375 l 1
 105.671875 -5.458984375 l 1
 61.6484375 -1.38671875 28.458984375 14.63671875 8.8798828125 43.8984375 c 0
 -13.3857421875 77.1728515625 -14.705078125 127.404296875 0.23828125 192.130859375 c 2
 35.76953125 346.030273438 l 2
 50.7119140625 410.756835938 75.2255859375 460.98828125 112.854492188 494.262695312 c 0
 145.9453125 523.524414062 186.533203125 539.547851562 232.4375 543.620117188 c 1
 254.372070312 638.630859375 l 1
 344.622070312 638.630859375 l 1
 320.9140625 535.940429688 l 1xc0
EndSplineSet
EndChar

StartChar: sterling
Encoding: 163 163 100
Width: 423
GlyphClass: 2
Flags: MW
HStem: 1.18164 139.65<165.019 327.605> 275.729 139.65<242.729 324.489 210.489 356.729>
VStem: 80.1875 151.049
LayerCount: 2
Fore
SplineSet
118.219726562 530.33203125 m 2
 130.118164062 581.87109375 171.430664062 700.381835938 327.528320312 700.381835938 c 0
 381.696289062 700.381835938 421.965820312 685.872070312 443.888671875 653.993164062 c 0
 465.418945312 622.685546875 468.6796875 579.321289062 456.491210938 526.530273438 c 2
 452.543945312 509.430664062 l 1
 307.194335938 509.430664062 l 1
 311.141601562 526.530273438 l 2
 316.28125 548.791015625 316.065429688 562.627929688 314.396484375 567.151367188 c 0
 313.044921875 570.811523438 311.01171875 573.081054688 301.938476562 573.081054688 c 0
 291.248046875 573.081054688 286.666992188 570.29296875 283.791992188 567.41796875 c 0
 280.278320312 563.904296875 274.92578125 554.834960938 271.2421875 538.879882812 c 2
 242.729492188 415.379882812 l 1
 356.729492188 415.379882812 l 1
 324.489257812 275.729492188 l 1
 210.489257812 275.729492188 l 1
 195.13671875 209.229492188 l 2
 187.458007812 175.97265625 175.969726562 155.158203125 165.018554688 140.83203125 c 1
 359.846679688 140.83203125 l 1
 327.60546875 1.181640625 l 1
 -45.744140625 1.181640625 l 1
 -14.263671875 137.536132812 l 1
 7.0673828125 144.815429688 18.28125 148.641601562 26.1728515625 160.4765625 c 0
 31.8642578125 169.010742188 38.7939453125 186.30078125 44.5263671875 211.131835938 c 2
 59.4404296875 275.731445312 l 1
 1.490234375 275.731445312 l 1
 33.7314453125 415.381835938 l 1
 91.681640625 415.381835938 l 1
 118.219726562 530.33203125 l 2
EndSplineSet
EndChar

StartChar: currency
Encoding: 164 164 101
Width: 566
GlyphClass: 2
Flags: MW
HStem: 102.83 132.05<214.007 273.084> 392.58 132.05<287.04 345.435>
VStem: 81.1357 135.851 368.036 135.851
LayerCount: 2
Fore
SplineSet
231.372070312 102.830078125 m 0
 196.641601562 102.830078125 166.16015625 110.01953125 140.552734375 124.514648438 c 1
 59.732421875 59.6630859375 l 1
 -12.3759765625 155.068359375 l 1
 67.7373046875 220.966796875 l 1
 60.8828125 249.173828125 61.4365234375 280.267578125 69.1611328125 313.729492188 c 0
 76.70703125 346.4140625 90.900390625 377.5 111.5078125 406.506835938 c 1
 61.041015625 473.419921875 l 1
 178.502929688 568.850585938 l 1
 228.2734375 502.840820312 l 1
 261.701171875 517.303710938 295.362304688 524.629882812 328.751953125 524.629882812 c 0
 362.1171875 524.629882812 392.174804688 517.309570312 418.462890625 502.8203125 c 1
 500.609375 568.748046875 l 1
 572.787109375 473.249023438 l 1
 491.78515625 407.440429688 l 1
 499.4140625 377.9375 499.48828125 346.541992188 491.912109375 313.729492188 c 0
 484.3671875 281.045898438 470.172851562 249.959960938 449.565429688 220.953125 c 1
 500.032226562 154.0390625 l 1
 382.68359375 58.701171875 l 1
 332 124.599609375 l 1
 298.944335938 110.118164062 265.223632812 102.830078125 231.372070312 102.830078125 c 0
356.061523438 313.729492188 m 0
 361.454101562 337.087890625 358.421875 355.133789062 347.311523438 370.255859375 c 0
 336.243164062 385.322265625 320.716796875 392.580078125 298.265625 392.580078125 c 0
 275.813476562 392.580078125 257.171875 385.336914062 239.521484375 370.368164062 c 0
 221.713867188 355.266601562 210.422851562 337.16796875 205.01171875 313.729492188 c 0
 199.6015625 290.291992188 202.53515625 272.193359375 213.370117188 257.091796875 c 0
 224.108398438 242.123046875 239.40625 234.879882812 261.858398438 234.879882812 c 0
 284.309570312 234.879882812 303.185546875 242.137695312 321.2109375 257.203125 c 0
 339.303710938 272.326171875 350.668945312 290.37109375 356.061523438 313.729492188 c 0
EndSplineSet
EndChar

StartChar: yen
Encoding: 165 165 102
Width: 411
GlyphClass: 2
Flags: MW
HStem: 105.68 114.95<8.71875 80.0303 -17.8193 106.568 257.619 328.931> 236.779 114.95<38.9854 110.297 12.4473 118.362 306.357 359.197> 670.88 20G<76.9619 237.737 237.737 237.737 345.338 504.356 504.356 504.356>
VStem: 140.036 151.051
LayerCount: 2
Fore
SplineSet
231.081054688 105.6796875 m 1
 206.955078125 1.1796875 l 1
 55.904296875 1.1796875 l 1
 80.0302734375 105.6796875 l 1
 -17.8193359375 105.6796875 l 1
 8.71875 220.629882812 l 1
 106.568359375 220.629882812 l 1
 110.296875 236.779296875 l 1
 12.447265625 236.779296875 l 1
 38.9853515625 351.729492188 l 1
 118.362304688 351.729492188 l 1
 76.9619140625 690.879882812 l 1
 237.737304688 690.879882812 l 1
 245.642578125 487.125 l 1
 345.337890625 690.879882812 l 1
 504.356445312 690.879882812 l 1
 306.357421875 351.729492188 l 1
 385.735351562 351.729492188 l 1
 359.197265625 236.779296875 l 1
 261.34765625 236.779296875 l 1
 257.619140625 220.629882812 l 1
 355.46875 220.629882812 l 1
 328.930664062 105.6796875 l 1
 231.081054688 105.6796875 l 1
EndSplineSet
EndChar

StartChar: brokenbar
Encoding: 166 166 103
Width: 274
GlyphClass: 2
Flags: MW
VStem: 76.3867 140.6
LayerCount: 2
Fore
SplineSet
162.451171875 738.379882812 m 1
 303.05078125 738.379882812 l 1
 217.952148438 369.779296875 l 1
 77.3525390625 369.779296875 l 1
 162.451171875 738.379882812 l 1
58.9296875 289.979492188 m 1
 199.529296875 289.979492188 l 1
 114.430664062 -78.6201171875 l 1
 -26.1689453125 -78.6201171875 l 1
 58.9296875 289.979492188 l 1
EndSplineSet
EndChar

StartChar: section
Encoding: 167 167 104
Width: 411
GlyphClass: 2
Flags: MW
VStem: 44.085 138.7 56.4355 140.601 236.936 139.651 248.336 138.7
LayerCount: 2
Fore
SplineSet
293.990234375 7.830078125 m 0x20
 283.625 -37.06640625 248.197265625 -158.419921875 93.158203125 -158.419921875 c 0
 38.744140625 -158.419921875 -0.7294921875 -144.703125 -18.8876953125 -112.525390625 c 0
 -36.376953125 -81.5322265625 -36.3125 -36.138671875 -22.87109375 22.0810546875 c 2
 -18.9228515625 39.1806640625 l 1x60
 115.02734375 39.1806640625 l 1
 111.079101562 22.0810546875 l 2
 104.86328125 -4.8408203125 103.469726562 -23.0205078125 104.814453125 -30.25390625 c 0
 105.396484375 -33.38671875 106.712890625 -36.8193359375 120.280273438 -36.8193359375 c 0
 132.653320312 -36.8193359375 136.6015625 -33.5771484375 139.158203125 -30.3544921875 c 0
 144.168945312 -24.0380859375 149.611328125 -12.6484375 153.461914062 4.0302734375 c 0
 162.64453125 43.806640625 155.190429688 56.0322265625 143.318359375 64.478515625 c 0
 134.943359375 70.4375 120.02734375 78.1416015625 99.203125 86.78125 c 0
 59.9677734375 102.181640625 33.1142578125 124.989257812 21.888671875 156.40234375 c 0
 10.8994140625 187.153320312 12.25 227.705078125 23.7763671875 277.62890625 c 0xa0
 44.9853515625 369.49609375 85.3349609375 402.717773438 113.254882812 419.658203125 c 1
 104.8203125 427.990234375 77.150390625 455.321289062 98.1953125 546.478515625 c 0
 110.07421875 597.9296875 132.592773438 639.60546875 167.904296875 668.29296875 c 0
 202.96484375 696.77734375 246.375 709.87890625 295.520507812 709.87890625 c 0
 349.849609375 709.87890625 389.172851562 696.396484375 406.793945312 664.336914062 c 0
 423.654296875 633.66015625 423.374023438 588.828125 410.087890625 531.279296875 c 2
 406.139648438 514.178710938 l 1
 272.189453125 514.178710938 l 1
 276.137695312 531.279296875 l 2
 282.223632812 557.641601562 283.93359375 575.618164062 282.922851562 582.807617188 c 0
 282.635742188 584.84765625 282.271484375 588.279296875 268.396484375 588.279296875 c 0
 256.80859375 588.279296875 254.458984375 585.40625 252.73046875 582.936523438 c 0
 248.172851562 576.419921875 242.866210938 564.107421875 238.795898438 546.478515625 c 0
 230.953125 512.506835938 236.352539062 499.346679688 249.637695312 489.0546875 c 0
 257.31640625 483.106445312 271.249023438 475.94921875 291.104492188 468.5546875 c 0
 330.981445312 453.190429688 358.18359375 430.587890625 369.21875 399.276367188 c 0
 379.970703125 368.770507812 378.3828125 328.115234375 366.727539062 277.62890625 c 0x50
 345.953125 187.647460938 307.939453125 154.084960938 277.416015625 136.014648438 c 1
 290.818359375 122.90625 313.950195312 94.2841796875 293.990234375 7.830078125 c 0x20
228.02734375 277.630859375 m 0x90
 235.087890625 308.2109375 236.477539062 329.3515625 234.29296875 339.57421875 c 0
 232.909179688 346.052734375 228.81640625 350.780273438 211.665039062 350.780273438 c 0
 194.643554688 350.780273438 188.755859375 346.12109375 184.500976562 339.513671875 c 0
 177.526367188 328.682617188 169.393554688 307.590820312 162.4765625 277.630859375 c 0
 155.5703125 247.713867188 154.161132812 226.752929688 156.346679688 216.036132812 c 0
 157.79296875 208.946289062 161.767578125 204.48046875 177.889648438 204.48046875 c 0
 194.883789062 204.48046875 201.155273438 209.182617188 205.716796875 216.036132812 c 0
 212.850585938 226.752929688 221.12109375 247.713867188 228.02734375 277.630859375 c 0x90
267.456054688 687.081054688 m 1024
EndSplineSet
EndChar

StartChar: dieresis
Encoding: 168 168 105
Width: 499
GlyphClass: 2
Flags: MW
HStem: 562.63 142.5<201.324 290.976 168.426 323.874 316.626 316.626 316.626 323.874 349.524 439.176>
VStem: 122.937 122.55 271.137 122.55
LayerCount: 2
Fore
SplineSet
201.32421875 705.129882812 m 1
 323.874023438 705.129882812 l 1
 290.975585938 562.629882812 l 1
 168.42578125 562.629882812 l 1
 201.32421875 705.129882812 l 1
349.524414062 705.129882812 m 1
 472.07421875 705.129882812 l 1
 439.17578125 562.629882812 l 1
 316.625976562 562.629882812 l 1
 349.524414062 705.129882812 l 1
EndSplineSet
EndChar

StartChar: copyright
Encoding: 169 169 106
Width: 693
GlyphClass: 2
Flags: MW
HStem: -4.52051 98.7998<257.447 319.231> 593.979 98.7998<381.954 443.672>
VStem: 40.2861 106.399 225.534 113.051 374.685 110.2 563.735 106.401
LayerCount: 2
Fore
SplineSet
35.330078125 344.129882812 m 0
 60.0927734375 451.385742188 106.670898438 537.375976562 176.5546875 599.650390625 c 0
 246.690429688 662.149414062 332.685546875 692.779296875 431.22265625 692.779296875 c 0
 529.8046875 692.779296875 601.478515625 661.784179688 642.266601562 598.591796875 c 0
 682.823242188 535.7578125 689.658203125 450.154296875 665.180664062 344.129882812 c 0
 640.698242188 238.084960938 594.157226562 152.458007812 524.25390625 89.62890625 c 0
 454.01953125 26.5029296875 368.223632812 -4.5205078125 270.23828125 -4.5205078125 c 0
 171.653320312 -4.5205078125 99.849609375 26.474609375 58.7451171875 89.62890625 c 0
 17.8515625 152.458007812 10.84765625 238.084960938 35.330078125 344.129882812 c 0
558.779296875 344.129882812 m 0
 577.962890625 427.22265625 573.649414062 488.8046875 548.778320312 530.8828125 c 0
 524.2109375 572.451171875 478.932617188 593.979492188 408.412109375 593.979492188 c 0
 337.245117188 593.979492188 281.705078125 572.286132812 237.8984375 530.452148438 c 0
 193.44921875 488.006835938 160.759765625 426.557617188 141.729492188 344.129882812 c 0
 122.545898438 261.037109375 126.860351562 199.455078125 151.73046875 157.376953125 c 0
 176.275390625 115.84765625 221.84765625 94.279296875 293.046875 94.279296875 c 0
 364.21875 94.279296875 419.5625 115.97265625 463.030273438 157.752929688 c 0
 507.188476562 200.196289062 539.744140625 261.6796875 558.779296875 344.129882812 c 0
398.39453125 546.478515625 m 0
 441.974609375 546.478515625 523.743164062 533.911132812 495.939453125 413.478515625 c 2
 488.920898438 383.079101562 l 1
 378.720703125 383.079101562 l 1
 385.30078125 411.579101562 l 2
 388.467773438 425.295898438 387.388671875 433.333007812 385.270507812 437.267578125 c 0
 383.041992188 441.405273438 380.561523438 442.9296875 374.48828125 442.9296875 c 0
 367.749023438 442.9296875 363.936523438 440.373046875 359.776367188 434.499023438 c 0
 355.408203125 428.33203125 350.48046875 417.119140625 346.7890625 401.129882812 c 2
 320.908203125 289.029296875 l 2
 316.395507812 269.481445312 316.825195312 257.349609375 318.557617188 252.904296875 c 0
 320.088867188 248.9765625 321.946289062 247.229492188 329.307617188 247.229492188 c 0
 337.504882812 247.229492188 340.483398438 249.217773438 344.1640625 253.817382812 c 0
 347.620117188 258.13671875 351.833007812 266.61328125 354.814453125 279.529296875 c 2
 361.39453125 308.029296875 l 1
 471.594726562 308.029296875 l 1
 465.014648438 279.529296875 l 2
 455.21875 237.098632812 437.115234375 202.27734375 408.349609375 177.965820312 c 0
 379.727539062 153.77734375 344.36328125 142.729492188 305.181640625 142.729492188 c 0
 264.758789062 142.729492188 233.705078125 154.076171875 216.063476562 179.008789062 c 0
 198.125976562 204.361328125 197.064453125 242.278320312 208.076171875 289.978515625 c 2
 233.518554688 400.178710938 l 2
 244.526367188 447.859375 263.052734375 485.69140625 292.749023438 510.772460938 c 0
 321.845703125 535.346679688 358.030273438 546.478515625 398.39453125 546.478515625 c 0
EndSplineSet
EndChar

StartChar: ordfeminine
Encoding: 170 170 107
Width: 314
GlyphClass: 2
Flags: MW
HStem: 404.93 99.751<117.776 196.576>
VStem: 178.037 106.4
LayerCount: 2
Fore
SplineSet
73.859375 515.129882812 m 0
 80.2724609375 542.905273438 103.171875 601.165039062 183.435546875 616.779296875 c 1
 105.877929688 616.779296875 l 1
 110.264648438 635.779296875 l 2
 118.071289062 669.595703125 135.298828125 698.2109375 162.856445312 717.358398438 c 0
 189.112304688 735.6015625 219.443359375 744.080078125 252.116210938 744.080078125 c 0
 287.515625 744.080078125 315.373046875 734.147460938 332.348632812 712.576171875 c 0
 349.092773438 691.30078125 353.0625 662.842773438 345.498046875 630.080078125 c 2
 294.615234375 409.6796875 l 1
 192.014648438 409.6796875 l 1
 193.06640625 414.33203125 l 1
 179.790039062 407.573242188 165.364257812 404.9296875 150.068359375 404.9296875 c 0
 85.484375 404.9296875 57.724609375 445.240234375 73.859375 515.129882812 c 0
236.905273438 620.580078125 m 1
 239.975585938 633.879882812 l 2
 241.510742188 640.53125 240.170898438 641.38671875 239.453125 641.989257812 c 0
 238.502929688 642.787109375 235.30859375 644.330078125 228.137695312 644.330078125 c 0
 221.252929688 644.330078125 217.376953125 642.763671875 215.118164062 641.275390625 c 0
 213.263671875 640.051757812 212.830078125 639.749023438 212.1328125 636.729492188 c 2
 208.26953125 619.994140625 l 1
 213.903320312 620.387695312 219.650390625 620.580078125 225.505859375 620.580078125 c 2
 236.905273438 620.580078125 l 1
193.998046875 504.680664062 m 0
 199.154296875 504.680664062 210.447265625 505.977539062 212.998046875 517.030273438 c 2
 216.946289062 534.130859375 l 1
 214.096679688 534.130859375 l 2
 202.346679688 534.130859375 194.341796875 532.016601562 190.1875 529.880859375 c 0
 185.88671875 527.669921875 183.63671875 525.640625 181.868164062 517.98046875 c 0
 179.3125 506.911132812 186.245117188 504.680664062 193.998046875 504.680664062 c 0
259.87109375 822.930664062 m 1024
EndSplineSet
EndChar

StartChar: guillemotleft
Encoding: 171 171 108
Width: 444
GlyphClass: 2
Flags: W
LayerCount: 2
Fore
SplineSet
266.799804688 499.061523438 m 1
 231.396484375 345.716796875 l 1
 138.809570312 269.080078125 l 1
 196.010742188 192.443359375 l 1
 160.608398438 39.0986328125 l 1
 -11.630859375 269.080078125 l 1
 266.799804688 499.061523438 l 1
450.150390625 499.061523438 m 1
 414.734375 345.658203125 l 1
 321.345703125 269.080078125 l 1
 379.375 192.500976562 l 1
 343.958984375 39.0986328125 l 1
 171.71875 269.080078125 l 1
 450.150390625 499.061523438 l 1
EndSplineSet
EndChar

StartChar: logicalnot
Encoding: 172 172 109
Width: 422
GlyphClass: 2
Flags: MW
HStem: 148.43 228.95<207.7 352.1 207.7 207.7> 244.38 133<40.1572 229.852 9.45117 404.957>
VStem: 257.837 144.399
LayerCount: 2
Fore
SplineSet
229.8515625 244.379882812 m 1x60
 9.451171875 244.379882812 l 1
 40.1572265625 377.379882812 l 1x60
 404.95703125 377.379882812 l 1
 352.099609375 148.4296875 l 1
 207.700195312 148.4296875 l 1xa0
 229.8515625 244.379882812 l 1x60
EndSplineSet
EndChar

StartChar: uni00AD
Encoding: 173 173 110
Width: 356
GlyphClass: 2
Flags: MW
HStem: 277.63 138.7<51.999 315.428 19.9775 347.449>
VStem: 40.2861 295.45
LayerCount: 2
Fore
SplineSet
51.9990234375 416.330078125 m 1
 347.44921875 416.330078125 l 1
 315.427734375 277.629882812 l 1
 19.9775390625 277.629882812 l 1
 51.9990234375 416.330078125 l 1
EndSplineSet
EndChar

StartChar: registered
Encoding: 174 174 111
Width: 430
GlyphClass: 2
Flags: MW
HStem: 300.43 70.3008<207.749 236.363> 624.381 70.2988<272.459 325.384>
VStem: 44.0879 73.1504 153.338 149.15 330.038 75.0488
LayerCount: 2
Fore
SplineSet
74.6630859375 498.030273438 m 0
 88.3349609375 557.25 114.831054688 605.951171875 155.481445312 641.58203125 c 0
 196.202148438 677.275390625 245.305664062 694.6796875 299.612304688 694.6796875 c 0
 355.196289062 694.6796875 396.905273438 676.771484375 420.923828125 639.96875 c 0
 444.658203125 603.598632812 448.930664062 555.50390625 435.661132812 498.029296875 c 0
 422.122070312 439.384765625 395.600585938 390.767578125 354.987304688 354.603515625 c 0
 314.032226562 318.134765625 264.1328125 300.4296875 208.592773438 300.4296875 c 0
 153.107421875 300.4296875 111.586914062 317.936523438 88 354.208007812 c 0
 64.630859375 390.141601562 61.005859375 438.876953125 74.6630859375 498.030273438 c 0
224.82421875 370.73046875 m 0
 250.21484375 370.73046875 331.66796875 372.65625 360.61328125 498.030273438 c 0
 375.66796875 563.241210938 367.383789062 624.380859375 283.383789062 624.380859375 c 0
 246.381835938 624.380859375 218.875 613.40625 197.1171875 593.002929688 c 0
 174.8125 572.084960938 157.762695312 541.127929688 147.813476562 498.030273438 c 0
 120.118164062 378.0703125 190.672851562 370.73046875 224.82421875 370.73046875 c 0
284.478515625 616.780273438 m 2
 311.169921875 616.780273438 358.361328125 607.608398438 342.713867188 539.831054688 c 0
 337.515625 517.315429688 326.432617188 497.270507812 309.270507812 482.418945312 c 1
 319.28515625 381.180664062 l 1
 295.635742188 381.180664062 l 1
 239.370117188 381.180664062 l 1
 237.677734375 401.719726562 l 1
 232.935546875 381.180664062 l 1
 156.935546875 381.180664062 l 1
 211.328125 616.780273438 l 1
 284.478515625 616.780273438 l 2
EndSplineSet
EndChar

StartChar: macron
Encoding: 175 175 112
Width: 499
GlyphClass: 2
Flags: MW
HStem: 567.38 133<205.928 434.572 175.223 465.277>
VStem: 128.637 259.35
LayerCount: 2
Fore
SplineSet
205.927734375 700.379882812 m 1
 465.27734375 700.379882812 l 1
 434.572265625 567.379882812 l 1
 175.22265625 567.379882812 l 1
 205.927734375 700.379882812 l 1
EndSplineSet
EndChar

StartChar: degree
Encoding: 176 176 113
Width: 332
GlyphClass: 2
Flags: MW
HStem: 431.529 95<206.459 209.465> 606.33 95<233.912 236.645>
VStem: 40.2861 97.8496 213.187 97.8496
LayerCount: 2
Fore
SplineSet
86.65234375 566.4296875 m 0
 95.326171875 604 115.94921875 636.887695312 147.58984375 662.59375 c 0
 179.23046875 688.299804688 215.126953125 701.330078125 252.697265625 701.330078125 c 0
 290.811523438 701.330078125 321.045898438 688.366210938 340.868164062 662.59375 c 0
 360.639648438 636.887695312 366.076171875 604 357.40234375 566.4296875 c 0
 348.728515625 528.859375 328.106445312 495.971679688 296.465820312 470.265625 c 0
 264.743164062 444.493164062 228.522460938 431.529296875 190.408203125 431.529296875 c 0
 152.837890625 431.529296875 122.958984375 444.559570312 103.1875 470.265625 c 0
 83.416015625 495.971679688 77.978515625 528.859375 86.65234375 566.4296875 c 0
259.552734375 566.430664062 m 0
 262.487304688 579.141601562 260.87890625 587.954101562 255.390625 595.374023438 c 0
 249.888671875 602.811523438 242.524414062 606.330078125 230.764648438 606.330078125 c 0
 219.000976562 606.330078125 210.301757812 602.834960938 201.780273438 595.564453125 c 0
 193.122070312 588.176757812 187.466796875 579.270507812 184.501953125 566.4296875 c 0
 181.536132812 553.583007812 183.08203125 544.676757812 188.326171875 537.295898438 c 0
 193.491210938 530.026367188 200.577148438 526.529296875 212.340820312 526.529296875 c 0
 224.100585938 526.529296875 233.08984375 530.047851562 242.025390625 537.486328125 c 0
 250.939453125 544.904296875 256.618164062 553.71875 259.552734375 566.430664062 c 0
EndSplineSet
EndChar

StartChar: plusminus
Encoding: 177 177 114
Width: 422
GlyphClass: 2
Flags: MW
HStem: 9.72949 139.65<-15.3301 323.878 -47.5713 356.119> 274.779 139.65<45.8613 129.52 13.6201 161.761 301.411 385.069 45.8613 269.17> 510.33 20G<188.519 328.169 328.169 328.169>
VStem: 34.5869 371.449 150.486 139.65
LayerCount: 2
Fore
SplineSet
269.169921875 274.779296875 m 1xe8
 242.413085938 158.879882812 l 1
 102.762695312 158.879882812 l 1
 129.51953125 274.779296875 l 1xe8
 13.6201171875 274.779296875 l 1
 45.861328125 414.4296875 l 1xf0
 161.760742188 414.4296875 l 1
 188.518554688 530.330078125 l 1
 328.168945312 530.330078125 l 1
 301.411132812 414.4296875 l 1xe8
 417.310546875 414.4296875 l 1
 385.069335938 274.779296875 l 1xf0
 269.169921875 274.779296875 l 1xe8
-15.330078125 149.379882812 m 1xf0
 356.119140625 149.379882812 l 1
 323.877929688 9.7294921875 l 1
 -47.5712890625 9.7294921875 l 1
 -15.330078125 149.379882812 l 1xf0
EndSplineSet
EndChar

StartChar: uni00B2
Encoding: 178 178 115
Width: 292
GlyphClass: 2
Flags: MW
HStem: 409.68 104.5<205.522 287.015>
VStem: 36.4863 110.2 165.687 110.2
LayerCount: 2
Fore
SplineSet
123.647460938 743.130859375 m 2
 137.942382812 805.051757812 194.944335938 845.73046875 267.984375 845.73046875 c 0
 302.377929688 845.73046875 329.739257812 837.236328125 347.37109375 818.327148438 c 0
 365.141601562 799.268554688 369.80078125 772.380859375 362.608398438 741.23046875 c 2
 355.809570312 711.780273438 l 2
 347.854492188 677.32421875 336.54296875 654.825195312 300.068359375 614.779296875 c 2
 205.522460938 514.1796875 l 1
 311.140625 514.1796875 l 1
 287.014648438 409.6796875 l 1
 43.814453125 409.6796875 l 1
 63.8828125 496.604492188 l 1
 218.548828125 667.48046875 l 2
 238.6171875 688.90234375 242.014648438 696.208007812 245.609375 711.78125 c 2
 250.434570312 732.681640625 l 2
 252.30859375 740.795898438 247.083007812 741.23046875 241.958007812 741.23046875 c 0
 234.702148438 741.23046875 233.771484375 739.861328125 233.771484375 739.861328125 c 2
 233.685546875 739.75390625 232.797851562 738.584960938 232.092773438 735.530273438 c 2
 221.345703125 688.98046875 l 1
 111.145507812 688.98046875 l 1
 123.647460938 743.130859375 l 2
EndSplineSet
EndChar

StartChar: uni00B3
Encoding: 179 179 116
Width: 287
GlyphClass: 2
Flags: MW
HStem: 577.83 104.5<186.561 194.734 162.435 220.761>
VStem: 30.7861 110.2 160.937 112.1
LayerCount: 2
Fore
SplineSet
307.408203125 633.618164062 m 1
 321.10546875 620.666992188 327.688476562 602.3203125 318.525390625 562.629882812 c 2
 308.436523438 518.9296875 l 2
 300.368164062 483.984375 283.08203125 454.3515625 255.622070312 433.629882812 c 0
 228.551757812 413.202148438 196.068359375 403.979492188 160.297851562 403.979492188 c 0
 124.235351562 403.979492188 95.9638671875 412.274414062 78.4453125 431.482421875 c 0
 60.873046875 450.749023438 56.8017578125 478.28125 64.2119140625 510.379882812 c 2
 74.958984375 556.9296875 l 1
 185.159179688 556.9296875 l 1
 175.947265625 517.029296875 l 2
 174.47265625 510.639648438 175.858398438 509.999023438 175.864257812 509.993164062 c 0
 176.126953125 509.747070312 177.926757812 508.479492188 183.473632812 508.479492188 c 0
 188.590820312 508.479492188 191.560546875 509.208007812 192.736328125 509.576171875 c 0
 193.564453125 510.956054688 195.372070312 514.752929688 196.775390625 520.830078125 c 2
 205.329101562 557.879882812 l 2
 207.774414062 568.474609375 207.181640625 574.366210938 206.78125 575.990234375 c 0
 205.879882812 576.416015625 202.235351562 577.830078125 194.734375 577.830078125 c 2
 162.434570312 577.830078125 l 1
 186.560546875 682.330078125 l 1
 220.760742188 682.330078125 l 2
 228.569335938 682.330078125 231.405273438 683.418945312 232.1640625 683.8046875 c 0
 232.869140625 684.749023438 235.587890625 688.9453125 237.569335938 697.529296875 c 2
 244.587890625 727.9296875 l 2
 246.265625 735.198242188 245.424804688 738.3359375 245.204101562 738.951171875 c 0
 244.752929688 739.205078125 242.40234375 740.279296875 236.989257812 740.279296875 c 0
 231.442382812 740.279296875 229.056640625 739.012695312 228.680664062 738.766601562 c 0
 228.672851562 738.760742188 226.990234375 738.119140625 225.514648438 731.729492188 c 2
 216.083984375 690.879882812 l 1
 105.883789062 690.879882812 l 1
 116.411132812 736.479492188 l 2
 131.537109375 801.994140625 185.431640625 845.729492188 262.284179688 845.729492188 c 0
 298.477539062 845.729492188 326.899414062 837.004882812 344.505859375 817.150390625 c 0
 362.1328125 797.272460938 366.215820312 769.202148438 358.661132812 736.479492188 c 2
 351.204101562 704.1796875 l 2
 342.208984375 665.216796875 326.056640625 646.635742188 307.408203125 633.618164062 c 1
EndSplineSet
EndChar

StartChar: acute
Encoding: 180 180 117
Width: 499
GlyphClass: 2
Flags: MW
HStem: 561.68 163.4<165.01 485.747 165.01 485.747>
VStem: 119.74 283.014
LayerCount: 2
Fore
SplineSet
321.678710938 725.080078125 m 1
 485.747070312 725.080078125 l 1
 300.2421875 561.6796875 l 1
 165.009765625 561.6796875 l 1
 321.678710938 725.080078125 l 1
EndSplineSet
EndChar

StartChar: uni00B5
Encoding: 181 181 118
Width: 412
GlyphClass: 2
Flags: MW
HStem: -3.57031 130.15<113.714 166.697> 516.979 20G<82.7041 227.104 227.104 227.104 284.104 428.504 428.504 428.504>
VStem: 43.1367 144.399 244.536 144.4
LayerCount: 2
Fore
SplineSet
167.241210938 10.220703125 m 1
 154.485351562 3.322265625 136.889648438 -3.5703125 117.5078125 -3.5703125 c 0
 109.920898438 -3.5703125 102.763671875 -2.9482421875 96.103515625 -1.638671875 c 1
 62.1015625 -148.919921875 l 1
 -75.6484375 -148.919921875 l 1
 82.7041015625 536.979492188 l 1
 227.103515625 536.979492188 l 1
 140.689453125 162.6796875 l 2
 137.272460938 147.881835938 136.573242188 126.580078125 160.85546875 126.580078125 c 0
 172.5390625 126.580078125 190.587890625 131.921875 197.689453125 162.6796875 c 2
 284.103515625 536.979492188 l 1
 428.50390625 536.979492188 l 1
 304.8046875 1.1796875 l 1
 165.154296875 1.1796875 l 1
 167.241210938 10.220703125 l 1
EndSplineSet
EndChar

StartChar: paragraph
Encoding: 182 182 119
Width: 549
GlyphClass: 2
Flags: MW
HStem: 670.88 20G<326.284 578.984 578.984 578.984>
VStem: 44.0869 297.35 201.786 139.65 365.187 138.7
LayerCount: 2
Fore
SplineSet
68.30078125 470.479492188 m 0xd0
 95.978515625 590.36328125 197.838867188 690.879882812 326.284179688 690.879882812 c 2
 578.984375 690.879882812 l 1
 385.1015625 -148.919921875 l 1
 246.401367188 -148.919921875 l 1
 411.772460938 567.379882812 l 1
 388.022460938 567.379882812 l 1
 222.651367188 -148.919921875 l 1
 83.0009765625 -148.919921875 l 1
 175.30078125 250.874023438 l 1xb0
 88.1884765625 264.756835938 41.275390625 353.416015625 68.30078125 470.479492188 c 0xd0
EndSplineSet
EndChar

StartChar: periodcentered
Encoding: 183 183 120
Width: 188
GlyphClass: 2
Flags: MW
HStem: 204.479 159.601<31.3867 139.891 -5.45996 176.737>
VStem: 31.7363 145.351
LayerCount: 2
Fore
SplineSet
31.38671875 364.080078125 m 1
 176.737304688 364.080078125 l 1
 139.890625 204.479492188 l 1
 -5.4599609375 204.479492188 l 1
 31.38671875 364.080078125 l 1
EndSplineSet
EndChar

StartChar: cedilla
Encoding: 184 184 121
Width: 499
GlyphClass: 2
Flags: MW
HStem: -148.92 193.8<151.677 157.823 22.7236 270.626>
VStem: 141.509 203.16
LayerCount: 2
Fore
SplineSet
270.625976562 44.8798828125 m 1
 157.823242188 -148.919921875 l 1
 22.7236328125 -148.919921875 l 1
 151.676757812 44.8798828125 l 1
 270.625976562 44.8798828125 l 1
EndSplineSet
EndChar

StartChar: uni00B9
Encoding: 185 185 122
Width: 226
GlyphClass: 2
Flags: MW
VStem: 26.9863 173.851 87.7861 113.051
LayerCount: 2
Fore
SplineSet
94.67578125 658.791015625 m 1x80
 125.2421875 791.190429688 l 1x80
 209.208984375 840.029296875 l 1
 310.368164062 840.029296875 l 1
 211.014648438 409.6796875 l 1
 97.9638671875 409.6796875 l 1
 164.90625 699.640625 l 1x40
 94.67578125 658.791015625 l 1x80
EndSplineSet
EndChar

StartChar: ordmasculine
Encoding: 186 186 123
Width: 317
GlyphClass: 2
Flags: MW
VStem: 45.0361 107.351 183.736 108.3
LayerCount: 2
Fore
SplineSet
178.567382812 404.9296875 m 0
 60.8876953125 404.9296875 73.7939453125 490.161132812 83.068359375 530.331054688 c 2
 103.465820312 618.680664062 l 2
 112.73828125 658.846679688 139.18359375 744.081054688 256.866210938 744.081054688 c 0
 293.739257812 744.081054688 322.553710938 734.999023438 340.01171875 714.329101562 c 0
 358.188476562 692.807617188 359.918945312 659.629882812 350.46484375 618.6796875 c 2
 330.068359375 530.330078125 l 2
 320.614257812 489.379882812 303.563476562 456.202148438 275.44921875 434.680664062 c 0
 248.448242188 414.01171875 215.440429688 404.9296875 178.567382812 404.9296875 c 0
232.66796875 643.379882812 m 0
 225.90625 643.379882812 216.518554688 643.379882812 210.158203125 615.830078125 c 2
 191.076171875 533.1796875 l 2
 188.4375 521.747070312 188.8671875 514.522460938 190.134765625 511.043945312 c 0
 191.440429688 507.46875 193.06640625 505.629882812 200.865234375 505.629882812 c 0
 207.889648438 505.629882812 210.33203125 507.333984375 212.428710938 509.422851562 c 0
 214.478515625 511.46484375 219.1484375 518.981445312 222.42578125 533.1796875 c 2
 241.5078125 615.830078125 l 2
 244.78515625 630.028320312 243.5859375 637.544921875 242.479492188 639.586914062 c 0
 241.34765625 641.67578125 239.692382812 643.379882812 232.66796875 643.379882812 c 0
261.770507812 822.9296875 m 1024
EndSplineSet
EndChar

StartChar: guillemotright
Encoding: 187 187 124
Width: 444
GlyphClass: 2
Flags: W
LayerCount: 2
Fore
SplineSet
38.546875 345.716796875 m 1
 73.9501953125 499.061523438 l 1
 246.189453125 269.080078125 l 1
 -32.2412109375 39.0986328125 l 1
 3.1611328125 192.443359375 l 1
 95.7490234375 269.080078125 l 1
 38.546875 345.716796875 l 1
221.896484375 345.716796875 m 1
 257.299804688 499.061523438 l 1
 429.5390625 269.080078125 l 1
 151.108398438 39.0986328125 l 1
 186.510742188 192.443359375 l 1
 279.098632812 269.080078125 l 1
 221.896484375 345.716796875 l 1
EndSplineSet
EndChar

StartChar: onequarter
Encoding: 188 188 125
Width: 686
GlyphClass: 3
Flags: MW
HStem: 670.88 21G
VStem: 26.9863 173.851 87.7861 113.051 540.937 112.1
LayerCount: 2
Fore
SplineSet
60.2421875 509.640625 m 1xd0
 90.80859375 642.040039062 l 1xd0
 174.775390625 690.879882812 l 1
 275.934570312 690.879882812 l 1
 176.580078125 260.529296875 l 1
 63.529296875 260.529296875 l 1
 130.47265625 550.491210938 l 1xb0
 60.2421875 509.640625 l 1xd0
607.06640625 166.479492188 m 1
 634.6171875 166.479492188 l 1
 610.491210938 61.9794921875 l 1
 582.940429688 61.9794921875 l 1
 568.904296875 1.1796875 l 1
 456.8046875 1.1796875 l 1
 470.840820312 61.9794921875 l 1
 339.741210938 61.9794921875 l 1
 360.549804688 152.108398438 l 1
 516.1953125 431.529296875 l 1
 629.995117188 431.529296875 l 1
 525.892578125 243.4296875 l 1
 624.83203125 243.4296875 l 1
 607.06640625 166.479492188 l 1
494.966796875 166.479492188 m 1
 503.313476562 202.633789062 l 1
 483.303710938 166.479492188 l 1
 494.966796875 166.479492188 l 1
467.208007812 698.479492188 m 1
 581.609375 698.479492188 l 1
 160.885742188 1.1796875 l 1
 46.484375 1.1796875 l 1
 467.208007812 698.479492188 l 1
EndSplineSet
Ligature2: "'frac' Diagonal Fractions lookup 2 subtable" one slash four
EndChar

StartChar: onehalf
Encoding: 189 189 126
Width: 682
GlyphClass: 3
Flags: MW
HStem: 1.17969 104.5<499.763 581.255> 670.88 21G
VStem: 26.9863 173.851 87.7861 113.051 425.036 110.2 554.236 110.2
LayerCount: 2
Fore
SplineSet
60.2421875 509.640625 m 1xec
 90.80859375 642.040039062 l 1xec
 174.775390625 690.879882812 l 1
 275.934570312 690.879882812 l 1
 176.580078125 260.529296875 l 1
 63.529296875 260.529296875 l 1
 130.47265625 550.491210938 l 1xdc
 60.2421875 509.640625 l 1xec
417.887695312 334.630859375 m 2
 432.182617188 396.551757812 489.184570312 437.23046875 562.224609375 437.23046875 c 0
 596.618164062 437.23046875 623.979492188 428.736328125 641.611328125 409.827148438 c 0
 659.381835938 390.768554688 664.041015625 363.880859375 656.848632812 332.73046875 c 2
 650.049804688 303.280273438 l 2
 642.094726562 268.82421875 630.783203125 246.325195312 594.30859375 206.279296875 c 2
 499.762695312 105.6796875 l 1
 605.380859375 105.6796875 l 1
 581.254882812 1.1796875 l 1
 338.0546875 1.1796875 l 1
 358.123046875 88.1044921875 l 1
 512.7890625 258.979492188 l 2
 532.856445312 280.401367188 536.25390625 287.70703125 539.849609375 303.280273438 c 2
 544.674804688 324.180664062 l 2
 546.547851562 332.294921875 541.327148438 332.73046875 536.198242188 332.73046875 c 0
 528.943359375 332.73046875 528.012695312 331.361328125 528.012695312 331.361328125 c 2
 527.92578125 331.25390625 527.038085938 330.084960938 526.333007812 327.030273438 c 2
 515.5859375 280.48046875 l 1
 405.385742188 280.48046875 l 1
 417.887695312 334.630859375 l 2
467.208007812 698.481445312 m 1
 581.609375 698.481445312 l 1
 160.885742188 1.181640625 l 1
 46.484375 1.181640625 l 1
 467.208007812 698.481445312 l 1
EndSplineSet
Ligature2: "'frac' Diagonal Fractions lookup 2 subtable" one slash two
EndChar

StartChar: threequarters
Encoding: 190 190 127
Width: 746
GlyphClass: 3
Flags: MW
HStem: 428.68 104.5<152.126 160.301 128.001 186.326>
VStem: 30.7861 110.2 160.937 112.1 600.786 112.101
LayerCount: 2
Fore
SplineSet
272.973632812 484.467773438 m 1
 286.671875 471.517578125 293.25390625 453.169921875 284.090820312 413.479492188 c 2
 274.001953125 369.779296875 l 2
 265.934570312 334.833984375 248.647460938 305.202148438 221.188476562 284.48046875 c 0
 194.1171875 264.051757812 161.634765625 254.830078125 125.864257812 254.830078125 c 0
 89.8017578125 254.830078125 61.5302734375 263.125 44.01171875 282.33203125 c 0
 26.439453125 301.599609375 22.3671875 329.130859375 29.7783203125 361.229492188 c 2
 40.525390625 407.779296875 l 1
 150.725585938 407.779296875 l 1
 141.513671875 367.879882812 l 2
 140.038085938 361.490234375 141.424804688 360.848632812 141.430664062 360.84375 c 0
 141.692382812 360.596679688 143.493164062 359.330078125 149.040039062 359.330078125 c 0
 154.157226562 359.330078125 157.126953125 360.057617188 158.302734375 360.426757812 c 0
 159.130859375 361.805664062 160.938476562 365.602539062 162.340820312 371.6796875 c 2
 170.89453125 408.729492188 l 2
 173.340820312 419.32421875 172.748046875 425.215820312 172.34765625 426.83984375 c 0
 171.4453125 427.265625 167.801757812 428.6796875 160.30078125 428.6796875 c 2
 128.000976562 428.6796875 l 1
 152.125976562 533.1796875 l 1
 186.326171875 533.1796875 l 2
 194.134765625 533.1796875 196.971679688 534.26953125 197.73046875 534.655273438 c 0
 198.434570312 535.599609375 201.153320312 539.794921875 203.135742188 548.379882812 c 2
 210.154296875 578.779296875 l 2
 211.83203125 586.047851562 210.991210938 589.186523438 210.76953125 589.80078125 c 0
 210.318359375 590.0546875 207.967773438 591.129882812 202.5546875 591.129882812 c 0
 197.0078125 591.129882812 194.623046875 589.862304688 194.24609375 589.616210938 c 0
 194.23828125 589.610351562 192.556640625 588.969726562 191.081054688 582.580078125 c 2
 181.650390625 541.729492188 l 1
 71.4501953125 541.729492188 l 1
 81.9775390625 587.330078125 l 2
 97.1025390625 652.84375 150.998046875 696.580078125 227.850585938 696.580078125 c 0
 264.043945312 696.580078125 292.465820312 687.854492188 310.071289062 668.000976562 c 0
 327.69921875 648.122070312 331.782226562 620.052734375 324.227539062 587.330078125 c 2
 316.770507812 555.029296875 l 2
 307.775390625 516.067382812 291.623046875 497.485351562 272.973632812 484.467773438 c 1
666.916992188 166.479492188 m 1
 694.466796875 166.479492188 l 1
 670.340820312 61.9794921875 l 1
 642.791015625 61.9794921875 l 1
 628.754882812 1.1796875 l 1
 516.654296875 1.1796875 l 1
 530.690429688 61.9794921875 l 1
 399.590820312 61.9794921875 l 1
 420.399414062 152.108398438 l 1
 576.045898438 431.529296875 l 1
 689.845703125 431.529296875 l 1
 585.7421875 243.4296875 l 1
 684.682617188 243.4296875 l 1
 666.916992188 166.479492188 l 1
554.81640625 166.479492188 m 1
 563.163085938 202.633789062 l 1
 543.154296875 166.479492188 l 1
 554.81640625 166.479492188 l 1
527.057617188 698.479492188 m 1
 641.459960938 698.479492188 l 1
 220.736328125 1.1796875 l 1
 106.333984375 1.1796875 l 1
 527.057617188 698.479492188 l 1
EndSplineSet
Ligature2: "'frac' Diagonal Fractions lookup 2 subtable" three slash four
EndChar

StartChar: questiondown
Encoding: 191 191 128
Width: 380
GlyphClass: 2
Flags: MW
HStem: 382.13 154.85<173.904 275.904 138.154 311.654>
VStem: 28.8867 146.3 134.337 137.75 232.187 144.4
LayerCount: 2
Fore
SplineSet
173.904296875 536.979492188 m 1xa0
 311.654296875 536.979492188 l 1
 275.904296875 382.129882812 l 1
 138.154296875 382.129882812 l 1
 173.904296875 536.979492188 l 1xa0
304.079101562 51.529296875 m 2xd0
 277.361328125 -64.19921875 218.495117188 -158.419921875 81.7587890625 -158.419921875 c 0
 30.294921875 -158.419921875 -9.3212890625 -143.227539062 -33.9462890625 -111.677734375 c 0
 -58.6875 -79.9794921875 -63.8916015625 -36.2724609375 -51.736328125 16.37890625 c 0xd0
 -37.3984375 78.4833984375 -15.6484375 112.510742188 25.6875 157.286132812 c 2
 76.3486328125 211.606445312 l 2
 98.9892578125 235.416992188 107.533203125 249.494140625 117.756835938 293.779296875 c 2
 130.477539062 348.879882812 l 1
 268.227539062 348.879882812 l 1
 255.506835938 293.779296875 l 2xa0
 239.935546875 226.331054688 227.04296875 202.755859375 183.192382812 152.567382812 c 0
 183.133789062 152.500976562 137.846679688 100.279296875 137.846679688 100.279296875 c 2
 112.2265625 70.8603515625 102.919921875 52.57421875 95.001953125 18.279296875 c 0
 91.33203125 2.3837890625 91.765625 -8.263671875 94.01953125 -14.216796875 c 0
 96.552734375 -20.904296875 101.112304688 -24.470703125 113.6328125 -24.470703125 c 0
 120.564453125 -24.470703125 125.658203125 -23.32421875 128.971679688 -21.9306640625 c 0
 132.919921875 -20.2705078125 135.0390625 -18.5009765625 137.498046875 -14.515625 c 0
 143.63671875 -4.5712890625 151.990234375 18.2255859375 159.678710938 51.529296875 c 2
 163.626953125 68.6298828125 l 1
 308.02734375 68.6298828125 l 1
 304.079101562 51.529296875 l 2xd0
EndSplineSet
EndChar

StartChar: Agrave
Encoding: 192 192 129
Width: 485
GlyphClass: 2
Flags: MW
HStem: 128.479 138.7<195.324 259.495 134.344 263.508> 670.88 20G<256.964 397.523 397.523 397.523>
LayerCount: 2
Fore
SplineSet
-79.1884765625 1.1796875 m 1
 256.963867188 690.879882812 l 1
 397.5234375 690.879882812 l 1
 414.216796875 1.1796875 l 1
 256.705078125 1.1796875 l 1
 259.495117188 128.479492188 l 1
 134.34375 128.479492188 l 1
 78.353515625 1.1796875 l 1
 -79.1884765625 1.1796875 l 1
195.32421875 267.1796875 m 1
 263.5078125 267.1796875 l 1
 267.412109375 431.76171875 l 1
 195.32421875 267.1796875 l 1
198.193359375 878.979492188 m 1
 362.26171875 878.979492188 l 1
 443.482421875 715.580078125 l 1
 308.25 715.580078125 l 1
 198.193359375 878.979492188 l 1
EndSplineSet
EndChar

StartChar: Aacute
Encoding: 193 193 130
Width: 485
GlyphClass: 2
Flags: MW
HStem: 128.479 138.7<195.324 259.495 134.344 263.508> 670.88 20G<256.964 397.523 397.523 397.523>
LayerCount: 2
Fore
SplineSet
-79.1884765625 1.1796875 m 1
 256.963867188 690.879882812 l 1
 397.5234375 690.879882812 l 1
 414.216796875 1.1796875 l 1
 256.705078125 1.1796875 l 1
 259.495117188 128.479492188 l 1
 134.34375 128.479492188 l 1
 78.353515625 1.1796875 l 1
 -79.1884765625 1.1796875 l 1
195.32421875 267.1796875 m 1
 263.5078125 267.1796875 l 1
 267.412109375 431.76171875 l 1
 195.32421875 267.1796875 l 1
379.060546875 878.979492188 m 1
 543.127929688 878.979492188 l 1
 357.623046875 715.580078125 l 1
 222.389648438 715.580078125 l 1
 379.060546875 878.979492188 l 1
EndSplineSet
EndChar

StartChar: Acircumflex
Encoding: 194 194 131
Width: 485
GlyphClass: 2
Flags: MW
HStem: 128.479 138.7<195.324 259.495 134.344 263.508> 670.88 20G<256.964 397.523 397.523 397.523>
LayerCount: 2
Fore
SplineSet
-79.1884765625 1.1796875 m 1
 256.963867188 690.879882812 l 1
 397.5234375 690.879882812 l 1
 414.216796875 1.1796875 l 1
 256.705078125 1.1796875 l 1
 259.495117188 128.479492188 l 1
 134.34375 128.479492188 l 1
 78.353515625 1.1796875 l 1
 -79.1884765625 1.1796875 l 1
195.32421875 267.1796875 m 1
 263.5078125 267.1796875 l 1
 267.412109375 431.76171875 l 1
 195.32421875 267.1796875 l 1
322.094726562 884.6796875 m 1
 418.907226562 884.6796875 l 1
 500.203125 709.879882812 l 1
 375.919921875 709.879882812 l 1
 346.147460938 773.33984375 l 1
 286.28125 709.879882812 l 1
 162.450195312 709.879882812 l 1
 322.094726562 884.6796875 l 1
EndSplineSet
EndChar

StartChar: Atilde
Encoding: 195 195 132
Width: 485
GlyphClass: 2
Flags: MW
HStem: 128.479 138.7<195.324 259.495 134.344 263.508> 670.88 20G<256.964 397.523 397.523 397.523> 718.429 119.7<393.965 396.075> 751.679 119.7<287.724 349.005>
LayerCount: 2
Fore
SplineSet
-79.1884765625 1.1796875 m 1xc0
 256.963867188 690.879882812 l 1
 397.5234375 690.879882812 l 1
 414.216796875 1.1796875 l 1
 256.705078125 1.1796875 l 1
 259.495117188 128.479492188 l 1
 134.34375 128.479492188 l 1
 78.353515625 1.1796875 l 1
 -79.1884765625 1.1796875 l 1xc0
195.32421875 267.1796875 m 1
 263.5078125 267.1796875 l 1
 267.412109375 431.76171875 l 1
 195.32421875 267.1796875 l 1
324.255859375 871.37890625 m 0xd0
 373.754882812 871.37890625 378.25 838.12890625 409.6796875 838.12890625 c 0
 417.119140625 838.12890625 422.420898438 839.786132812 426.676757812 842.29296875 c 0
 432.1875 845.5390625 445.0234375 855.108398438 462.619140625 869.905273438 c 2
 499.16015625 900.634765625 l 1
 467.637695312 764.095703125 l 1
 433.790039062 734.291992188 413.90625 718.428710938 378.244140625 718.428710938 c 0xe0
 357.30078125 718.428710938 346.958984375 722.161132812 323.029296875 738.809570312 c 0
 303.7890625 751.46484375 301.56640625 751.678710938 292.821289062 751.678710938 c 0
 282.626953125 751.678710938 274.505859375 750.986328125 239.282226562 720.204101562 c 2
 202.040039062 687.658203125 l 1
 234.190429688 826.915039062 l 1
 266.431640625 854.1640625 288.040039062 871.37890625 324.255859375 871.37890625 c 0xd0
EndSplineSet
EndChar

StartChar: Adieresis
Encoding: 196 196 133
Width: 485
GlyphClass: 2
Flags: MW
HStem: 128.479 138.7<195.324 259.495 134.344 263.508> 670.88 20G<256.964 397.523 397.523 397.523> 716.529 142.5<230.204 319.856 197.306 352.755 345.506 345.506 345.506 352.755 378.404 468.056>
VStem: 116.286 122.551 264.486 122.55
LayerCount: 2
Fore
SplineSet
-79.1884765625 1.1796875 m 1
 256.963867188 690.879882812 l 1
 397.5234375 690.879882812 l 1
 414.216796875 1.1796875 l 1
 256.705078125 1.1796875 l 1
 259.495117188 128.479492188 l 1
 134.34375 128.479492188 l 1
 78.353515625 1.1796875 l 1
 -79.1884765625 1.1796875 l 1
195.32421875 267.1796875 m 1
 263.5078125 267.1796875 l 1
 267.412109375 431.76171875 l 1
 195.32421875 267.1796875 l 1
230.204101562 859.029296875 m 1
 352.754882812 859.029296875 l 1
 319.856445312 716.529296875 l 1
 197.305664062 716.529296875 l 1
 230.204101562 859.029296875 l 1
378.404296875 859.029296875 m 1
 500.954101562 859.029296875 l 1
 468.055664062 716.529296875 l 1
 345.505859375 716.529296875 l 1
 378.404296875 859.029296875 l 1
EndSplineSet
EndChar

StartChar: Aring
Encoding: 197 197 134
Width: 485
GlyphClass: 2
Flags: MW
HStem: 128.48 138.7<134.344 263.506> 769.73 80.751<336.411 349.403>
VStem: 145.736 80.748 276.836 81.7002
LayerCount: 2
Fore
SplineSet
445.697265625 743.131835938 m 0
 437.721679688 708.584960938 416.69140625 683.333984375 398.075195312 668.064453125 c 1
 414.216796875 1.1796875 l 1
 256.705078125 1.1796875 l 1
 259.495117188 128.479492188 l 1
 217.778320312 128.479492188 176.060546875 128.48046875 134.34375 128.48046875 c 1
 78.353515625 1.1806640625 l 1
 -79.1884765625 1.1806640625 l 1
 245.849609375 668.077148438 l 1
 239.7421875 676.14453125 223.228515625 701.250976562 232.897460938 743.131835938 c 0
 247.309570312 805.55859375 304.46484375 850.481445312 364.081054688 850.481445312 c 0
 423.696289062 850.481445312 460.109375 805.559570312 445.697265625 743.131835938 c 0
345.4375 769.73046875 m 0
 327.384765625 769.73046875 316.907226562 757.258789062 313.645507812 743.130859375 c 0
 311.815429688 735.203125 312.844726562 729.905273438 316.7578125 724.819335938 c 0
 320.668945312 719.732421875 325.447265625 717.479492188 333.375 717.479492188 c 0
 341.305664062 717.479492188 346.797851562 719.701171875 352.611328125 724.577148438 c 0
 358.620117188 729.618164062 362.125 735.024414062 363.997070312 743.130859375 c 0
 366.069335938 752.109375 364.9453125 757.778320312 361.397460938 762.6328125 c 0
 357.834960938 767.509765625 353.368164062 769.73046875 345.4375 769.73046875 c 0
195.322265625 267.180664062 m 1
 263.505859375 267.180664062 l 1
 267.41015625 431.762695312 l 1
 195.322265625 267.180664062 l 1
343.37890625 653.831054688 m 1024
EndSplineSet
EndChar

StartChar: AE
Encoding: 198 198 135
Width: 670
GlyphClass: 2
Flags: MW
HStem: 1.17969 138.7<431.826 575.555> 127.529 138.7<234.644 277.925 152.102 309.946> 282.38 138.7<496.746 616.725 464.725 648.746> 551.229 139.65<526.794 702.544 526.794 526.794>
LayerCount: 2
Fore
SplineSet
-81.8662109375 1.1796875 m 1xb0
 337.250976562 690.879882812 l 1
 734.784179688 690.879882812 l 1
 702.543945312 551.229492188 l 1
 526.793945312 551.229492188 l 1
 496.74609375 421.080078125 l 1
 648.74609375 421.080078125 l 1
 616.724609375 282.379882812 l 1
 464.724609375 282.379882812 l 1
 431.826171875 139.879882812 l 1
 607.576171875 139.879882812 l 1
 575.5546875 1.1796875 l 1
 248.754882812 1.1796875 l 1xb0
 277.924804688 127.529296875 l 1
 152.1015625 127.529296875 l 1x70
 76.3818359375 1.1796875 l 1
 -81.8662109375 1.1796875 l 1xb0
309.946289062 266.229492188 m 1x70
 357.578125 472.544921875 l 1
 234.643554688 266.229492188 l 1
 309.946289062 266.229492188 l 1x70
EndSplineSet
EndChar

StartChar: Ccedilla
Encoding: 199 199 136
Width: 468
GlyphClass: 2
Flags: MW
HStem: 560.729 139.65<294.563 306.166>
VStem: 40.2871 151.05 295.836 151.051
LayerCount: 2
Fore
SplineSet
324.65625 490.4296875 m 2
 335.916992188 539.204101562 322.745117188 560.729492188 289.586914062 560.729492188 c 0
 268.943359375 560.729492188 256.279296875 554.4140625 246.15625 542.896484375 c 0
 234.931640625 530.127929688 224.153320312 507.741210938 216.647460938 475.229492188 c 2
 155.895507812 212.080078125 l 2
 137.948242188 134.345703125 174.40625 133.229492188 190.891601562 133.229492188 c 0
 206.065429688 133.229492188 243.102539062 137.177734375 258.202148438 202.580078125 c 2
 266.09765625 236.779296875 l 1
 416.198242188 236.779296875 l 1
 408.083007812 201.629882812 l 2
 395.649414062 147.775390625 372.934570312 102.754882812 338.641601562 68.2470703125 c 0
 307.35546875 36.7646484375 270.021484375 14.9501953125 228.21484375 3.234375 c 1
 139.784179688 -148.919921875 l 1
 4.681640625 -148.919921875 l 1
 103.08203125 -0.966796875 l 1
 51.48046875 9.9716796875 -32.4921875 50.3544921875 1.7744140625 198.779296875 c 2
 69.984375 494.229492188 l 2
 85.03515625 559.421875 115.684570312 611.864257812 163.25390625 647.90234375 c 0
 209.893554688 683.236328125 264.447265625 700.379882812 324.678710938 700.379882812 c 0
 382.515625 700.379882812 427.348632812 683.2734375 456.415039062 648.21875 c 0
 486.229492188 612.258789062 491.486328125 558.776367188 475.926757812 491.379882812 c 2
 467.373046875 454.330078125 l 1
 316.322265625 454.330078125 l 1
 324.65625 490.4296875 l 2
EndSplineSet
EndChar

StartChar: Egrave
Encoding: 200 200 137
Width: 379
GlyphClass: 2
Flags: MW
HStem: 1.17969 138.7<142.076 286.755> 282.38 138.7<206.996 326.975 174.975 358.996> 551.229 139.65<237.044 413.744 237.044 237.044>
VStem: 44.0869 150.1 44.0869 326.8
LayerCount: 2
Fore
SplineSet
142.076171875 139.879882812 m 1xf0
 318.776367188 139.879882812 l 1
 286.754882812 1.1796875 l 1
 -40.044921875 1.1796875 l 1
 119.184570312 690.879882812 l 1
 445.984375 690.879882812 l 1
 413.744140625 551.229492188 l 1xe8
 237.043945312 551.229492188 l 1
 206.99609375 421.080078125 l 1
 358.99609375 421.080078125 l 1
 326.974609375 282.379882812 l 1
 174.974609375 282.379882812 l 1
 142.076171875 139.879882812 l 1xf0
157.34375 878.979492188 m 1
 321.411132812 878.979492188 l 1
 402.6328125 715.580078125 l 1
 267.399414062 715.580078125 l 1
 157.34375 878.979492188 l 1
EndSplineSet
EndChar

StartChar: Eacute
Encoding: 201 201 138
Width: 379
GlyphClass: 2
Flags: MW
HStem: 1.17969 138.7<142.076 286.755> 282.38 138.7<206.996 326.975 174.975 358.996> 551.229 139.65<237.044 413.744 237.044 237.044>
VStem: 44.0869 150.1 44.0869 326.8
LayerCount: 2
Fore
SplineSet
142.076171875 139.879882812 m 1xf0
 318.776367188 139.879882812 l 1
 286.754882812 1.1796875 l 1
 -40.044921875 1.1796875 l 1
 119.184570312 690.879882812 l 1
 445.984375 690.879882812 l 1
 413.744140625 551.229492188 l 1xe8
 237.043945312 551.229492188 l 1
 206.99609375 421.080078125 l 1
 358.99609375 421.080078125 l 1
 326.974609375 282.379882812 l 1
 174.974609375 282.379882812 l 1
 142.076171875 139.879882812 l 1xf0
338.209960938 878.979492188 m 1
 502.278320312 878.979492188 l 1
 316.772460938 715.580078125 l 1
 181.540039062 715.580078125 l 1
 338.209960938 878.979492188 l 1
EndSplineSet
EndChar

StartChar: Ecircumflex
Encoding: 202 202 139
Width: 379
GlyphClass: 2
Flags: MW
HStem: 1.17969 138.7<142.076 286.755> 282.38 138.7<206.996 326.975 174.975 358.996> 551.229 139.65<237.044 413.744 237.044 237.044>
VStem: 44.0869 150.1 44.0869 326.8
LayerCount: 2
Fore
SplineSet
142.076171875 139.879882812 m 1xf0
 318.776367188 139.879882812 l 1
 286.754882812 1.1796875 l 1
 -40.044921875 1.1796875 l 1
 119.184570312 690.879882812 l 1
 445.984375 690.879882812 l 1
 413.744140625 551.229492188 l 1xe8
 237.043945312 551.229492188 l 1
 206.99609375 421.080078125 l 1
 358.99609375 421.080078125 l 1
 326.974609375 282.379882812 l 1
 174.974609375 282.379882812 l 1
 142.076171875 139.879882812 l 1xf0
281.245117188 884.6796875 m 1
 378.057617188 884.6796875 l 1
 459.353515625 709.879882812 l 1
 335.069335938 709.879882812 l 1
 305.297851562 773.33984375 l 1
 245.431640625 709.879882812 l 1
 121.600585938 709.879882812 l 1
 281.245117188 884.6796875 l 1
EndSplineSet
EndChar

StartChar: Edieresis
Encoding: 203 203 140
Width: 379
GlyphClass: 2
Flags: MW
HStem: 1.17969 138.7<142.076 286.755> 282.38 138.7<206.996 326.975 174.975 358.996> 551.229 139.65<237.044 413.744 237.044 237.044> 716.529 142.5<189.354 279.006 156.456 311.904 304.656 304.656 304.656 311.904 337.555 427.206>
VStem: 44.0869 150.1 44.0869 326.8 75.4365 122.55 223.637 122.55
LayerCount: 2
Fore
SplineSet
142.076171875 139.879882812 m 1xf9
 318.776367188 139.879882812 l 1
 286.754882812 1.1796875 l 1
 -40.044921875 1.1796875 l 1
 119.184570312 690.879882812 l 1
 445.984375 690.879882812 l 1
 413.744140625 551.229492188 l 1xf4
 237.043945312 551.229492188 l 1
 206.99609375 421.080078125 l 1
 358.99609375 421.080078125 l 1
 326.974609375 282.379882812 l 1
 174.974609375 282.379882812 l 1
 142.076171875 139.879882812 l 1xf9
189.354492188 859.029296875 m 1xf2
 311.904296875 859.029296875 l 1
 279.005859375 716.529296875 l 1
 156.456054688 716.529296875 l 1
 189.354492188 859.029296875 l 1xf2
337.5546875 859.029296875 m 1xf1
 460.104492188 859.029296875 l 1
 427.206054688 716.529296875 l 1
 304.65625 716.529296875 l 1
 337.5546875 859.029296875 l 1xf1
EndSplineSet
EndChar

StartChar: Igrave
Encoding: 204 204 141
Width: 225
GlyphClass: 2
Flags: MW
HStem: 670.88 20G<122.984 273.084 273.084 273.084>
VStem: 47.8867 150.1
LayerCount: 2
Fore
SplineSet
122.984375 690.879882812 m 1
 273.083984375 690.879882812 l 1
 113.854492188 1.1796875 l 1
 -36.2451171875 1.1796875 l 1
 122.984375 690.879882812 l 1
68.9931640625 878.979492188 m 1
 233.061523438 878.979492188 l 1
 314.282226562 715.580078125 l 1
 179.049804688 715.580078125 l 1
 68.9931640625 878.979492188 l 1
EndSplineSet
EndChar

StartChar: Iacute
Encoding: 205 205 142
Width: 225
GlyphClass: 2
Flags: MW
HStem: 670.88 20G<122.984 273.084 273.084 273.084>
VStem: 47.8867 150.1
LayerCount: 2
Fore
SplineSet
122.984375 690.879882812 m 1
 273.083984375 690.879882812 l 1
 113.854492188 1.1796875 l 1
 -36.2451171875 1.1796875 l 1
 122.984375 690.879882812 l 1
249.860351562 878.979492188 m 1
 413.927734375 878.979492188 l 1
 228.422851562 715.580078125 l 1
 93.189453125 715.580078125 l 1
 249.860351562 878.979492188 l 1
EndSplineSet
EndChar

StartChar: Icircumflex
Encoding: 206 206 143
Width: 225
GlyphClass: 2
Flags: MW
HStem: 670.88 20G<122.984 273.084 273.084 273.084>
VStem: 47.8867 150.1
LayerCount: 2
Fore
SplineSet
122.984375 690.879882812 m 1
 273.083984375 690.879882812 l 1
 113.854492188 1.1796875 l 1
 -36.2451171875 1.1796875 l 1
 122.984375 690.879882812 l 1
192.895507812 884.6796875 m 1
 289.70703125 884.6796875 l 1
 371.002929688 709.879882812 l 1
 246.719726562 709.879882812 l 1
 216.947265625 773.33984375 l 1
 157.081054688 709.879882812 l 1
 33.25 709.879882812 l 1
 192.895507812 884.6796875 l 1
EndSplineSet
EndChar

StartChar: Idieresis
Encoding: 207 207 144
Width: 225
GlyphClass: 2
Flags: MW
HStem: 670.88 20G<122.984 273.084 273.084 273.084> 716.529 142.5<101.005 190.656 68.1064 223.555 216.306 216.306 216.306 223.555 249.204 338.856>
VStem: -12.9131 122.55 47.8867 150.1 135.286 122.551
LayerCount: 2
Fore
SplineSet
122.984375 690.879882812 m 1xd0
 273.083984375 690.879882812 l 1
 113.854492188 1.1796875 l 1
 -36.2451171875 1.1796875 l 1
 122.984375 690.879882812 l 1xd0
101.004882812 859.029296875 m 1xe0
 223.5546875 859.029296875 l 1
 190.65625 716.529296875 l 1
 68.1064453125 716.529296875 l 1
 101.004882812 859.029296875 l 1xe0
249.204101562 859.029296875 m 1xc8
 371.754882812 859.029296875 l 1
 338.856445312 716.529296875 l 1
 216.305664062 716.529296875 l 1
 249.204101562 859.029296875 l 1xc8
EndSplineSet
EndChar

StartChar: Eth
Encoding: 208 208 145
Width: 483
GlyphClass: 2
Flags: MW
HStem: 1.17969 138.701<161.076 171.805> 286.181 138.7<226.874 276.553 194.853 308.574> 551.23 139.649<256.044 301.644 256.044 256.044>
VStem: 63.0869 150.1 310.087 151.05
LayerCount: 2
Fore
SplineSet
488.860351562 485.680664062 m 2
 424.37890625 206.380859375 l 2
 409.462890625 141.772460938 378.845703125 89.65625 331.329101562 53.6572265625 c 0
 284.787109375 18.3984375 230.86328125 1.1796875 171.8046875 1.1796875 c 2
 -21.044921875 1.1796875 l 1
 44.751953125 286.1796875 l 1
 4.8515625 286.1796875 l 1
 36.873046875 424.879882812 l 1
 76.7734375 424.879882812 l 1
 138.184570312 690.879882812 l 1
 336.734375 690.879882812 l 2
 395.150390625 690.879882812 440.19921875 673.8125 468.9921875 638.662109375 c 0
 498.334960938 602.83984375 503.869140625 550.688476562 488.860351562 485.680664062 c 2
333.205078125 465.73046875 m 2
 340.540039062 497.501953125 339.978515625 519.65234375 334.383789062 532.858398438 c 0
 329.109375 545.307617188 319.759765625 551.23046875 301.643554688 551.23046875 c 2
 256.043945312 551.23046875 l 1
 226.874023438 424.880859375 l 1
 308.57421875 424.880859375 l 1
 276.552734375 286.180664062 l 1
 194.852539062 286.180664062 l 1
 161.076171875 139.880859375 l 1
 206.67578125 139.880859375 l 2
 224.095703125 139.880859375 236.198242188 145.647460938 247.5859375 158.079101562 c 0
 259.6171875 171.212890625 269.866210938 191.37890625 276.399414062 219.680664062 c 2
 333.205078125 465.73046875 l 2
EndSplineSet
EndChar

StartChar: Ntilde
Encoding: 209 209 146
Width: 474
GlyphClass: 2
Flags: MW
HStem: 670.88 20G<119.185 264.987 264.987 264.987 372.834 523.884 523.884 523.884> 718.429 119.7<388.265 390.374> 751.679 119.7<282.024 343.305>
VStem: 44.0869 151.05 297.736 151.05
LayerCount: 2
Fore
SplineSet
523.883789062 690.879882812 m 1x98
 364.654296875 1.1796875 l 1
 219.030273438 1.1796875 l 1
 174.739257812 277.245117188 l 1
 111.004882812 1.1796875 l 1
 -40.044921875 1.1796875 l 1
 119.184570312 690.879882812 l 1
 264.987304688 690.879882812 l 1
 306.438476562 403.2890625 l 1
 372.833984375 690.879882812 l 1
 523.883789062 690.879882812 l 1x98
318.555664062 871.37890625 m 0xb8
 368.0546875 871.37890625 372.55078125 838.12890625 403.979492188 838.12890625 c 0
 411.418945312 838.12890625 416.719726562 839.786132812 420.975585938 842.29296875 c 0
 426.486328125 845.5390625 439.323242188 855.108398438 456.920898438 869.90625 c 2
 493.459960938 900.6328125 l 1
 461.9375 764.095703125 l 1
 428.083007812 734.287109375 408.203125 718.428710938 372.544921875 718.428710938 c 0xd8
 351.600585938 718.428710938 341.259765625 722.161132812 317.330078125 738.809570312 c 0
 298.08984375 751.46484375 295.866210938 751.678710938 287.12109375 751.678710938 c 0
 276.926757812 751.678710938 268.805664062 750.986328125 233.58203125 720.204101562 c 2
 196.33984375 687.658203125 l 1
 228.490234375 826.915039062 l 1
 260.732421875 854.1640625 282.33984375 871.37890625 318.555664062 871.37890625 c 0xb8
EndSplineSet
EndChar

StartChar: Ograve
Encoding: 210 210 147
Width: 468
GlyphClass: 2
Flags: MW
HStem: -6.41992 139.648<182.647 184.4> 560.729 139.651<294.562 298.644>
VStem: 40.2861 151.051 295.837 151.05
LayerCount: 2
Fore
SplineSet
1.7734375 198.779296875 m 2
 69.9833984375 494.229492188 l 2
 85.0341796875 559.421875 115.68359375 611.864257812 163.252929688 647.90234375 c 0
 209.892578125 683.236328125 264.446289062 700.379882812 324.677734375 700.379882812 c 0
 383.1328125 700.379882812 428.170898438 683.120117188 456.874023438 647.627929688 c 0
 486.083007812 611.51171875 491.594726562 559.24609375 476.583984375 494.229492188 c 2
 408.374023438 198.779296875 l 2
 393.583007812 134.712890625 362.768554688 82.77734375 314.965820312 46.537109375 c 0
 268.07421875 10.9892578125 213.951171875 -6.419921875 154.849609375 -6.419921875 c 0
 95.2333984375 -6.419921875 49.64453125 10.7587890625 21.1826171875 46.388671875 c 0
 -7.6494140625 82.48046875 -13.0927734375 134.385742188 1.7734375 198.779296875 c 2
155.89453125 212.079101562 m 2
 137.948242188 134.344726562 174.404296875 133.228515625 190.889648438 133.228515625 c 0
 208.424804688 133.228515625 220.549804688 138.959960938 231.803710938 151.075195312 c 0
 243.638671875 163.815429688 253.857421875 183.764648438 260.395507812 212.080078125 c 2
 321.147460938 475.229492188 l 2
 328.482421875 507.000976562 327.921875 529.150390625 322.327148438 542.356445312 c 0
 317.051757812 554.805664062 307.702148438 560.728515625 289.5859375 560.728515625 c 0
 268.942382812 560.728515625 256.278320312 554.413085938 246.154296875 542.895507812 c 0
 234.930664062 530.126953125 224.153320312 507.740234375 216.647460938 475.228515625 c 2
 155.89453125 212.079101562 l 2
189.643554688 878.979492188 m 1
 353.711914062 878.979492188 l 1
 434.932617188 715.580078125 l 1
 299.700195312 715.580078125 l 1
 189.643554688 878.979492188 l 1
EndSplineSet
EndChar

StartChar: Oacute
Encoding: 211 211 148
Width: 468
GlyphClass: 2
Flags: MW
HStem: -6.41992 139.648<182.647 184.4> 560.729 139.651<294.562 298.644>
VStem: 40.2861 151.051 295.837 151.05
LayerCount: 2
Fore
SplineSet
1.7734375 198.779296875 m 2
 69.9833984375 494.229492188 l 2
 85.0341796875 559.421875 115.68359375 611.864257812 163.252929688 647.90234375 c 0
 209.892578125 683.236328125 264.446289062 700.379882812 324.677734375 700.379882812 c 0
 383.1328125 700.379882812 428.170898438 683.120117188 456.874023438 647.627929688 c 0
 486.083007812 611.51171875 491.594726562 559.24609375 476.583984375 494.229492188 c 2
 408.374023438 198.779296875 l 2
 393.583007812 134.712890625 362.768554688 82.77734375 314.965820312 46.537109375 c 0
 268.07421875 10.9892578125 213.951171875 -6.419921875 154.849609375 -6.419921875 c 0
 95.2333984375 -6.419921875 49.64453125 10.7587890625 21.1826171875 46.388671875 c 0
 -7.6494140625 82.48046875 -13.0927734375 134.385742188 1.7734375 198.779296875 c 2
155.89453125 212.079101562 m 2
 137.948242188 134.344726562 174.404296875 133.228515625 190.889648438 133.228515625 c 0
 208.424804688 133.228515625 220.549804688 138.959960938 231.803710938 151.075195312 c 0
 243.638671875 163.815429688 253.857421875 183.764648438 260.395507812 212.080078125 c 2
 321.147460938 475.229492188 l 2
 328.482421875 507.000976562 327.921875 529.150390625 322.327148438 542.356445312 c 0
 317.051757812 554.805664062 307.702148438 560.728515625 289.5859375 560.728515625 c 0
 268.942382812 560.728515625 256.278320312 554.413085938 246.154296875 542.895507812 c 0
 234.930664062 530.126953125 224.153320312 507.740234375 216.647460938 475.228515625 c 2
 155.89453125 212.079101562 l 2
370.509765625 878.979492188 m 1
 534.578125 878.979492188 l 1
 349.072265625 715.580078125 l 1
 213.83984375 715.580078125 l 1
 370.509765625 878.979492188 l 1
EndSplineSet
EndChar

StartChar: Ocircumflex
Encoding: 212 212 149
Width: 468
GlyphClass: 2
Flags: MW
HStem: -6.41992 139.648<182.647 184.4> 560.729 139.651<294.562 298.644>
VStem: 40.2861 151.051 295.837 151.05
LayerCount: 2
Fore
SplineSet
1.7734375 198.779296875 m 2
 69.9833984375 494.229492188 l 2
 85.0341796875 559.421875 115.68359375 611.864257812 163.252929688 647.90234375 c 0
 209.892578125 683.236328125 264.446289062 700.379882812 324.677734375 700.379882812 c 0
 383.1328125 700.379882812 428.170898438 683.120117188 456.874023438 647.627929688 c 0
 486.083007812 611.51171875 491.594726562 559.24609375 476.583984375 494.229492188 c 2
 408.374023438 198.779296875 l 2
 393.583007812 134.712890625 362.768554688 82.77734375 314.965820312 46.537109375 c 0
 268.07421875 10.9892578125 213.951171875 -6.419921875 154.849609375 -6.419921875 c 0
 95.2333984375 -6.419921875 49.64453125 10.7587890625 21.1826171875 46.388671875 c 0
 -7.6494140625 82.48046875 -13.0927734375 134.385742188 1.7734375 198.779296875 c 2
155.89453125 212.079101562 m 2
 137.948242188 134.344726562 174.404296875 133.228515625 190.889648438 133.228515625 c 0
 208.424804688 133.228515625 220.549804688 138.959960938 231.803710938 151.075195312 c 0
 243.638671875 163.815429688 253.857421875 183.764648438 260.395507812 212.080078125 c 2
 321.147460938 475.229492188 l 2
 328.482421875 507.000976562 327.921875 529.150390625 322.327148438 542.356445312 c 0
 317.051757812 554.805664062 307.702148438 560.728515625 289.5859375 560.728515625 c 0
 268.942382812 560.728515625 256.278320312 554.413085938 246.154296875 542.895507812 c 0
 234.930664062 530.126953125 224.153320312 507.740234375 216.647460938 475.228515625 c 2
 155.89453125 212.079101562 l 2
410.357421875 884.6796875 m 1
 491.653320312 709.879882812 l 1
 367.369140625 709.879882812 l 1
 337.59765625 773.33984375 l 1
 277.731445312 709.879882812 l 1
 153.900390625 709.879882812 l 1
 313.544921875 884.6796875 l 1
 410.357421875 884.6796875 l 1
EndSplineSet
EndChar

StartChar: Otilde
Encoding: 213 213 150
Width: 468
GlyphClass: 2
Flags: MW
HStem: -6.41992 139.648<182.647 184.4> 560.729 139.651<294.562 298.644> 718.429 119.7<385.415 387.525> 751.679 119.7<279.174 340.455>
VStem: 40.2861 151.051 295.837 151.05
LayerCount: 2
Fore
SplineSet
1.7734375 198.779296875 m 2xcc
 69.9833984375 494.229492188 l 2
 85.0341796875 559.421875 115.68359375 611.864257812 163.252929688 647.90234375 c 0
 209.892578125 683.236328125 264.446289062 700.379882812 324.677734375 700.379882812 c 0
 383.1328125 700.379882812 428.170898438 683.120117188 456.874023438 647.627929688 c 0
 486.083007812 611.51171875 491.594726562 559.24609375 476.583984375 494.229492188 c 2
 408.374023438 198.779296875 l 2
 393.583007812 134.712890625 362.768554688 82.77734375 314.965820312 46.537109375 c 0
 268.07421875 10.9892578125 213.951171875 -6.419921875 154.849609375 -6.419921875 c 0
 95.2333984375 -6.419921875 49.64453125 10.7587890625 21.1826171875 46.388671875 c 0
 -7.6494140625 82.48046875 -13.0927734375 134.385742188 1.7734375 198.779296875 c 2xcc
155.89453125 212.079101562 m 2
 137.948242188 134.344726562 174.404296875 133.228515625 190.889648438 133.228515625 c 0
 208.424804688 133.228515625 220.549804688 138.959960938 231.803710938 151.075195312 c 0
 243.638671875 163.815429688 253.857421875 183.764648438 260.395507812 212.080078125 c 2
 321.147460938 475.229492188 l 2
 328.482421875 507.000976562 327.921875 529.150390625 322.327148438 542.356445312 c 0
 317.051757812 554.805664062 307.702148438 560.728515625 289.5859375 560.728515625 c 0
 268.942382812 560.728515625 256.278320312 554.413085938 246.154296875 542.895507812 c 0
 234.930664062 530.126953125 224.153320312 507.740234375 216.647460938 475.228515625 c 2
 155.89453125 212.079101562 l 2
315.706054688 871.37890625 m 0xdc
 365.204101562 871.37890625 369.700195312 838.12890625 401.12890625 838.12890625 c 0
 408.569335938 838.12890625 413.87109375 839.786132812 418.125976562 842.29296875 c 0
 423.63671875 845.5390625 436.473632812 855.108398438 454.069335938 869.905273438 c 2
 490.610351562 900.634765625 l 1
 459.087890625 764.095703125 l 1
 425.240234375 734.291992188 405.356445312 718.428710938 369.694335938 718.428710938 c 0xec
 348.75 718.428710938 338.409179688 722.161132812 314.479492188 738.809570312 c 0
 295.239257812 751.46484375 293.016601562 751.678710938 284.271484375 751.678710938 c 0
 274.077148438 751.678710938 265.955078125 750.986328125 230.732421875 720.204101562 c 2
 193.490234375 687.658203125 l 1
 225.640625 826.915039062 l 1
 257.881835938 854.1640625 279.490234375 871.37890625 315.706054688 871.37890625 c 0xdc
EndSplineSet
EndChar

StartChar: Odieresis
Encoding: 214 214 151
Width: 468
GlyphClass: 2
Flags: MW
HStem: -6.41992 139.648<182.647 184.4> 560.729 139.651<294.562 298.644> 716.529 142.5<221.654 311.306 188.756 344.204 336.956 336.956 336.956 344.204 369.854 459.506>
VStem: 40.2861 151.051 107.736 122.55 255.937 122.55 295.837 151.05
LayerCount: 2
Fore
SplineSet
1.7734375 198.779296875 m 2xf2
 69.9833984375 494.229492188 l 2
 85.0341796875 559.421875 115.68359375 611.864257812 163.252929688 647.90234375 c 0
 209.892578125 683.236328125 264.446289062 700.379882812 324.677734375 700.379882812 c 0
 383.1328125 700.379882812 428.170898438 683.120117188 456.874023438 647.627929688 c 0
 486.083007812 611.51171875 491.594726562 559.24609375 476.583984375 494.229492188 c 2
 408.374023438 198.779296875 l 2
 393.583007812 134.712890625 362.768554688 82.77734375 314.965820312 46.537109375 c 0
 268.07421875 10.9892578125 213.951171875 -6.419921875 154.849609375 -6.419921875 c 0
 95.2333984375 -6.419921875 49.64453125 10.7587890625 21.1826171875 46.388671875 c 0
 -7.6494140625 82.48046875 -13.0927734375 134.385742188 1.7734375 198.779296875 c 2xf2
155.89453125 212.079101562 m 2
 137.948242188 134.344726562 174.404296875 133.228515625 190.889648438 133.228515625 c 0
 208.424804688 133.228515625 220.549804688 138.959960938 231.803710938 151.075195312 c 0
 243.638671875 163.815429688 253.857421875 183.764648438 260.395507812 212.080078125 c 2
 321.147460938 475.229492188 l 2
 328.482421875 507.000976562 327.921875 529.150390625 322.327148438 542.356445312 c 0
 317.051757812 554.805664062 307.702148438 560.728515625 289.5859375 560.728515625 c 0
 268.942382812 560.728515625 256.278320312 554.413085938 246.154296875 542.895507812 c 0
 234.930664062 530.126953125 224.153320312 507.740234375 216.647460938 475.228515625 c 2
 155.89453125 212.079101562 l 2
221.654296875 859.029296875 m 1xe8
 344.204101562 859.029296875 l 1
 311.305664062 716.529296875 l 1
 188.755859375 716.529296875 l 1
 221.654296875 859.029296875 l 1xe8
369.854492188 859.029296875 m 1xe4
 492.404296875 859.029296875 l 1
 459.505859375 716.529296875 l 1
 336.956054688 716.529296875 l 1
 369.854492188 859.029296875 l 1xe4
EndSplineSet
EndChar

StartChar: multiply
Encoding: 215 215 152
Width: 422
GlyphClass: 2
Flags: W
LayerCount: 2
Fore
SplineSet
179.46484375 186.887695312 m 1
 68.45703125 96.701171875 l 1
 -3.478515625 190.229492188 l 1
 107.529296875 280.416015625 l 1
 37.8955078125 369.715820312 l 1
 153.016601562 463.244140625 l 1
 222.650390625 373.944335938 l 1
 332.645507812 463.307617188 l 1
 404.580078125 369.779296875 l 1
 294.5859375 280.416015625 l 1
 363.049804688 190.166015625 l 1
 247.928710938 96.6376953125 l 1
 179.46484375 186.887695312 l 1
EndSplineSet
EndChar

StartChar: Oslash
Encoding: 216 216 153
Width: 468
GlyphClass: 2
Flags: MW
HStem: -6.41992 139.649<178.69 184.399> 560.729 139.65<294.562 300.468>
VStem: 40.2861 151.05 295.836 151.05
LayerCount: 2
Fore
SplineSet
537.404296875 717.479492188 m 1
 472.331054688 621.493164062 l 1
 487.122070312 586.935546875 488.095703125 544.095703125 476.583007812 494.229492188 c 2
 408.373046875 198.779296875 l 2
 393.58203125 134.712890625 362.767578125 82.77734375 314.96484375 46.537109375 c 0
 268.073242188 10.9892578125 213.950195312 -6.419921875 154.848632812 -6.419921875 c 0
 116.856445312 -6.419921875 84.482421875 0.6005859375 58.46484375 15.1279296875 c 1
 35.953125 -17.8203125 l 1
 -57.447265625 -17.8203125 l 1
 4.8505859375 74.4306640625 l 1
 -9.017578125 107.887695312 -9.548828125 149.735351562 1.7734375 198.779296875 c 2
 69.9833984375 494.229492188 l 2
 85.0341796875 559.421875 115.68359375 611.864257812 163.252929688 647.90234375 c 0
 209.892578125 683.236328125 264.446289062 700.379882812 324.677734375 700.379882812 c 0
 361.78515625 700.379882812 393.264648438 693.71875 418.368164062 679.828125 c 1
 443.884765625 717.479492188 l 1
 537.404296875 717.479492188 l 1
323.107421875 540.618164062 m 1
 319.568359375 551.57421875 311.3515625 560.729492188 289.584960938 560.729492188 c 0
 268.94140625 560.729492188 256.27734375 554.4140625 246.154296875 542.896484375 c 0
 234.9296875 530.127929688 224.15234375 507.741210938 216.646484375 475.229492188 c 2
 184.991210938 338.115234375 l 1
 323.107421875 540.618164062 l 1
154.01953125 155.250976562 m 1
 157.7265625 143.670898438 166.491210938 133.229492188 190.889648438 133.229492188 c 0
 208.424804688 133.229492188 220.548828125 138.9609375 231.803710938 151.076171875 c 0
 243.639648438 163.81640625 253.856445312 183.764648438 260.39453125 212.080078125 c 2
 294.924804688 361.647460938 l 1
 154.01953125 155.250976562 l 1
EndSplineSet
EndChar

StartChar: Ugrave
Encoding: 217 217 154
Width: 461
GlyphClass: 2
Flags: MW
HStem: -6.41992 139.65<174.828 194.572 174.828 209.65> 670.881 20G<119.185 270.234 270.234 270.234 359.534 510.584 510.584 510.584>
VStem: 44.0869 151.05 284.437 151.05
LayerCount: 2
Fore
SplineSet
153.899414062 -6.419921875 m 0
 40.0107421875 -6.419921875 -23.1630859375 74.302734375 3.6005859375 190.23046875 c 2
 119.184570312 690.880859375 l 1
 270.234375 690.880859375 l 1
 155.30859375 193.081054688 l 2
 142.880859375 139.25 163.514648438 133.23046875 186.140625 133.23046875 c 0
 203.00390625 133.23046875 231.372070312 135.75 244.608398438 193.081054688 c 2
 359.534179688 690.880859375 l 1
 510.583984375 690.880859375 l 1
 395 190.23046875 l 2
 367.331054688 70.3828125 265.400390625 -6.419921875 153.899414062 -6.419921875 c 0
185.842773438 878.979492188 m 1
 349.91015625 878.979492188 l 1
 431.131835938 715.580078125 l 1
 295.8984375 715.580078125 l 1
 185.842773438 878.979492188 l 1
EndSplineSet
EndChar

StartChar: Uacute
Encoding: 218 218 155
Width: 461
GlyphClass: 2
Flags: MW
HStem: -6.41992 139.65<174.828 194.572 174.828 209.65> 670.881 20G<119.185 270.234 270.234 270.234 359.534 510.584 510.584 510.584>
VStem: 44.0869 151.05 284.437 151.05
LayerCount: 2
Fore
SplineSet
153.899414062 -6.419921875 m 0
 40.0107421875 -6.419921875 -23.1630859375 74.302734375 3.6005859375 190.23046875 c 2
 119.184570312 690.880859375 l 1
 270.234375 690.880859375 l 1
 155.30859375 193.081054688 l 2
 142.880859375 139.25 163.514648438 133.23046875 186.140625 133.23046875 c 0
 203.00390625 133.23046875 231.372070312 135.75 244.608398438 193.081054688 c 2
 359.534179688 690.880859375 l 1
 510.583984375 690.880859375 l 1
 395 190.23046875 l 2
 367.331054688 70.3828125 265.400390625 -6.419921875 153.899414062 -6.419921875 c 0
366.708984375 878.979492188 m 1
 530.77734375 878.979492188 l 1
 345.271484375 715.580078125 l 1
 210.0390625 715.580078125 l 1
 366.708984375 878.979492188 l 1
EndSplineSet
EndChar

StartChar: Ucircumflex
Encoding: 219 219 156
Width: 461
GlyphClass: 2
Flags: MW
HStem: -6.41992 139.65<174.828 194.572 174.828 209.65> 670.881 20G<119.185 270.234 270.234 270.234 359.534 510.584 510.584 510.584>
VStem: 44.0869 151.05 284.437 151.05
LayerCount: 2
Fore
SplineSet
153.899414062 -6.419921875 m 0
 40.0107421875 -6.419921875 -23.1630859375 74.302734375 3.6005859375 190.23046875 c 2
 119.184570312 690.880859375 l 1
 270.234375 690.880859375 l 1
 155.30859375 193.081054688 l 2
 142.880859375 139.25 163.514648438 133.23046875 186.140625 133.23046875 c 0
 203.00390625 133.23046875 231.372070312 135.75 244.608398438 193.081054688 c 2
 359.534179688 690.880859375 l 1
 510.583984375 690.880859375 l 1
 395 190.23046875 l 2
 367.331054688 70.3828125 265.400390625 -6.419921875 153.899414062 -6.419921875 c 0
406.556640625 884.6796875 m 1
 487.852539062 709.879882812 l 1
 363.568359375 709.879882812 l 1
 333.796875 773.33984375 l 1
 273.930664062 709.879882812 l 1
 150.099609375 709.879882812 l 1
 309.744140625 884.6796875 l 1
 406.556640625 884.6796875 l 1
EndSplineSet
EndChar

StartChar: Udieresis
Encoding: 220 220 157
Width: 461
GlyphClass: 2
Flags: MW
HStem: -6.41992 139.65<174.828 194.572 174.828 209.65> 670.881 20G<119.185 270.234 270.234 270.234 359.534 510.584 510.584 510.584> 716.529 142.5<217.854 307.505 184.955 340.403 333.155 333.155 333.155 340.403 366.054 455.705>
VStem: 44.0869 151.05 103.936 122.55 252.136 122.55 284.437 151.05
LayerCount: 2
Fore
SplineSet
153.899414062 -6.419921875 m 0xf2
 40.0107421875 -6.419921875 -23.1630859375 74.302734375 3.6005859375 190.23046875 c 2
 119.184570312 690.880859375 l 1
 270.234375 690.880859375 l 1
 155.30859375 193.081054688 l 2
 142.880859375 139.25 163.514648438 133.23046875 186.140625 133.23046875 c 0
 203.00390625 133.23046875 231.372070312 135.75 244.608398438 193.081054688 c 2
 359.534179688 690.880859375 l 1
 510.583984375 690.880859375 l 1
 395 190.23046875 l 2
 367.331054688 70.3828125 265.400390625 -6.419921875 153.899414062 -6.419921875 c 0xf2
217.853515625 859.029296875 m 1xe8
 340.403320312 859.029296875 l 1
 307.504882812 716.529296875 l 1
 184.955078125 716.529296875 l 1
 217.853515625 859.029296875 l 1xe8
366.053710938 859.029296875 m 1xe4
 488.603515625 859.029296875 l 1
 455.705078125 716.529296875 l 1
 333.155273438 716.529296875 l 1
 366.053710938 859.029296875 l 1xe4
EndSplineSet
EndChar

StartChar: Yacute
Encoding: 221 221 158
Width: 417
GlyphClass: 2
Flags: MW
HStem: 670.88 20G<78.3379 243.688 243.688 243.688 342.38 508.645 508.645 508.645>
VStem: 142.887 151.05
LayerCount: 2
Fore
SplineSet
342.379882812 690.879882812 m 1
 508.64453125 690.879882812 l 1
 272.109375 271.05078125 l 1
 209.8046875 1.1796875 l 1
 58.7548828125 1.1796875 l 1
 121.495117188 272.938476562 l 1
 78.337890625 690.879882812 l 1
 243.688476562 690.879882812 l 1
 247.46484375 493.498046875 l 1
 342.379882812 690.879882812 l 1
344.860351562 878.979492188 m 1
 508.927734375 878.979492188 l 1
 323.422851562 715.580078125 l 1
 188.189453125 715.580078125 l 1
 344.860351562 878.979492188 l 1
EndSplineSet
EndChar

StartChar: Thorn
Encoding: 222 222 159
Width: 436
GlyphClass: 2
Flags: MW
HStem: 137.979 138.7<173.659 185.337 141.637 213.559> 445.779 139.65<244.939 252.599 212.699 288.64> 670.88 20G<119.185 269.284 269.284 269.284>
VStem: 44.0869 150.101 283.487 151.05
LayerCount: 2
Fore
SplineSet
433.748046875 362.1796875 m 0
 394.33984375 191.48046875 301.103515625 137.979492188 185.336914062 137.979492188 c 2
 141.63671875 137.979492188 l 1
 110.0546875 1.1796875 l 1
 -40.044921875 1.1796875 l 1
 119.184570312 690.879882812 l 1
 269.284179688 690.879882812 l 1
 244.939453125 585.4296875 l 1
 288.639648438 585.4296875 l 2
 355.958984375 585.4296875 404.008789062 567.524414062 426.870117188 527.745117188 c 0
 449.099609375 489.0625 450.163085938 433.280273438 433.748046875 362.1796875 c 0
282.698242188 362.1796875 m 0
 290.250976562 394.892578125 290.326171875 417.334960938 285.903320312 429.442382812 c 0
 282.19140625 439.60546875 273.528320312 445.779296875 252.598632812 445.779296875 c 2
 212.69921875 445.779296875 l 1
 173.659179688 276.6796875 l 1
 213.55859375 276.6796875 l 2
 234.375 276.6796875 245.861328125 282.881835938 254.416015625 293.369140625 c 0
 264.576171875 305.825195312 274.995117188 328.810546875 282.698242188 362.1796875 c 0
EndSplineSet
EndChar

StartChar: germandbls
Encoding: 223 223 160
Width: 423
GlyphClass: 2
Flags: MW
HStem: -3.57031 21G<120.358 162.158 120.358 120.358> 567.38 133<261.743 273.639>
VStem: 43.1348 144.399 205.587 186.83 256.884 144.401
LayerCount: 2
Fore
SplineSet
365.536132812 405.8359375 m 1xe8
 396.166992188 374.184570312 395.0078125 338.405273438 370.44921875 232.029296875 c 0xe8
 356.859375 173.165039062 343.833007812 128.767578125 330.552734375 97.6328125 c 0
 316.856445312 65.51953125 296.34375 39.2802734375 269.000976562 21.71875 c 0
 240.8359375 3.6279296875 205.098632812 -3.5703125 162.158203125 -3.5703125 c 2
 120.358398438 -3.5703125 l 1
 149.748046875 123.729492188 l 1xf0
 182.045898438 123.729492188 l 2
 189.375 123.729492188 191.270507812 125.432617188 193.252929688 127.708984375 c 0
 201.548828125 137.23046875 208.340820312 155.334960938 226.047851562 232.029296875 c 0
 242.751953125 304.385742188 243.44921875 319.6640625 239.672851562 329.486328125 c 0
 238.672851562 332.087890625 237.608398438 333.6796875 230.516601562 333.6796875 c 2
 196.31640625 333.6796875 l 1
 225.486328125 460.029296875 l 1
 257.786132812 460.029296875 l 2
 267.307617188 460.029296875 269.018554688 463.060546875 270.357421875 465.434570312 c 0
 274.793945312 473.296875 281.21875 491.573242188 287.315429688 517.979492188 c 0
 292.004882812 538.29296875 291.064453125 551.258789062 287.83984375 557.930664062 c 0
 284.975585938 563.85546875 279.908203125 567.379882812 267.370117188 567.379882812 c 0
 256.116210938 567.379882812 233.8203125 566.08203125 224.469726562 525.580078125 c 2
 103.40234375 1.1796875 l 1
 -40.9970703125 1.1796875 l 1
 76.7802734375 511.330078125 l 2
 88.58984375 562.483398438 128.259765625 700.379882812 298.075195312 700.379882812 c 0
 351.216796875 700.379882812 391.739257812 685.529296875 416.263671875 654.11328125 c 0
 440.71875 622.78515625 446.005859375 579.881835938 434.126953125 528.4296875 c 0
 418.700195312 461.607421875 400.807617188 432.961914062 365.536132812 405.8359375 c 1xe8
EndSplineSet
EndChar

StartChar: agrave
Encoding: 224 224 161
Width: 408
GlyphClass: 2
Flags: MW
HStem: -6.4209 130.148<67.46 162.199> 218.729 111.15<184.63 231.542 194.481 231.542> 413.479 131.101<214.958 280.583>
VStem: 32.6885 144.399 239.788 144.4
LayerCount: 2
Fore
SplineSet
221.392578125 413.479492188 m 0
 208.5234375 413.479492188 191.619140625 407.965820312 185.434570312 381.1796875 c 2
 179.732421875 356.479492188 l 1
 43.8828125 356.479492188 l 1
 48.7080078125 377.379882812 l 2
 60.8388671875 429.922851562 85.8037109375 472.747070312 124.9140625 502.134765625 c 0
 162.930664062 530.701171875 206.86328125 544.580078125 254.509765625 544.580078125 c 0
 306.657226562 544.580078125 346.154296875 528.833007812 369.296875 495.921875 c 0
 392.201171875 463.350585938 396.702148438 419.797851562 384.715820312 367.87890625 c 2
 300.056640625 1.1787109375 l 1
 163.256835938 1.1787109375 l 1
 166.975585938 17.2880859375 l 1
 150.916992188 6.21484375 128.801757812 -6.4208984375 90.251953125 -6.4208984375 c 0
 44.66796875 -6.4208984375 10.7421875 9.00390625 -6.8154296875 41.033203125 c 0
 -23.958984375 72.3076171875 -25.3076171875 114.385742188 -13.5009765625 165.529296875 c 0
 -1.873046875 215.89453125 23.4599609375 257.578125 62.96484375 287.016601562 c 0
 102.3984375 316.400390625 151.01171875 329.87890625 206.841796875 329.87890625 c 2
 231.541992188 329.87890625 l 1
 242.2890625 376.428710938 l 2
 250.329101562 411.251953125 233.484375 413.479492188 221.392578125 413.479492188 c 0
152.598632812 123.727539062 m 0
 171.798828125 123.727539062 187.881835938 140.765625 194.256835938 168.37890625 c 2
 205.880859375 218.728515625 l 1
 194.481445312 218.728515625 l 2
 174.778320312 218.728515625 161.274414062 214.172851562 152.286132812 207.69140625 c 0
 144.626953125 202.169921875 136.821289062 191.18359375 131.995117188 170.278320312 c 0
 127.649414062 151.453125 128.830078125 139.5859375 132.264648438 133.15234375 c 0
 135.504882812 127.083007812 140.782226562 123.727539062 152.598632812 123.727539062 c 0
123.713867188 725.079101562 m 1
 287.782226562 725.079101562 l 1
 369.00390625 561.678710938 l 1
 233.771484375 561.678710938 l 1
 123.713867188 725.079101562 l 1
EndSplineSet
EndChar

StartChar: aacute
Encoding: 225 225 162
Width: 408
GlyphClass: 2
Flags: MW
HStem: -6.4209 130.148<67.46 162.199> 218.729 111.15<184.63 231.542 194.481 231.542> 413.479 131.101<214.958 280.583>
VStem: 32.6885 144.399 239.788 144.4
LayerCount: 2
Fore
SplineSet
221.392578125 413.479492188 m 0
 208.5234375 413.479492188 191.619140625 407.965820312 185.434570312 381.1796875 c 2
 179.732421875 356.479492188 l 1
 43.8828125 356.479492188 l 1
 48.7080078125 377.379882812 l 2
 60.8388671875 429.922851562 85.8037109375 472.747070312 124.9140625 502.134765625 c 0
 162.930664062 530.701171875 206.86328125 544.580078125 254.509765625 544.580078125 c 0
 306.657226562 544.580078125 346.154296875 528.833007812 369.296875 495.921875 c 0
 392.201171875 463.350585938 396.702148438 419.797851562 384.715820312 367.87890625 c 2
 300.056640625 1.1787109375 l 1
 163.256835938 1.1787109375 l 1
 166.975585938 17.2880859375 l 1
 150.916992188 6.21484375 128.801757812 -6.4208984375 90.251953125 -6.4208984375 c 0
 44.66796875 -6.4208984375 10.7421875 9.00390625 -6.8154296875 41.033203125 c 0
 -23.958984375 72.3076171875 -25.3076171875 114.385742188 -13.5009765625 165.529296875 c 0
 -1.873046875 215.89453125 23.4599609375 257.578125 62.96484375 287.016601562 c 0
 102.3984375 316.400390625 151.01171875 329.87890625 206.841796875 329.87890625 c 2
 231.541992188 329.87890625 l 1
 242.2890625 376.428710938 l 2
 250.329101562 411.251953125 233.484375 413.479492188 221.392578125 413.479492188 c 0
152.598632812 123.727539062 m 0
 171.798828125 123.727539062 187.881835938 140.765625 194.256835938 168.37890625 c 2
 205.880859375 218.728515625 l 1
 194.481445312 218.728515625 l 2
 174.778320312 218.728515625 161.274414062 214.172851562 152.286132812 207.69140625 c 0
 144.626953125 202.169921875 136.821289062 191.18359375 131.995117188 170.278320312 c 0
 127.649414062 151.453125 128.830078125 139.5859375 132.264648438 133.15234375 c 0
 135.504882812 127.083007812 140.782226562 123.727539062 152.598632812 123.727539062 c 0
304.581054688 725.079101562 m 1
 468.6484375 725.079101562 l 1
 283.14453125 561.678710938 l 1
 147.911132812 561.678710938 l 1
 304.581054688 725.079101562 l 1
EndSplineSet
EndChar

StartChar: acircumflex
Encoding: 226 226 163
Width: 408
GlyphClass: 2
Flags: MW
HStem: -6.4209 130.148<67.46 162.199> 218.729 111.15<184.63 231.542 194.481 231.542> 413.479 131.101<214.958 280.583>
VStem: 32.6885 144.399 239.788 144.4
LayerCount: 2
Fore
SplineSet
221.392578125 413.479492188 m 0
 208.5234375 413.479492188 191.619140625 407.965820312 185.434570312 381.1796875 c 2
 179.732421875 356.479492188 l 1
 43.8828125 356.479492188 l 1
 48.7080078125 377.379882812 l 2
 60.8388671875 429.922851562 85.8037109375 472.747070312 124.9140625 502.134765625 c 0
 162.930664062 530.701171875 206.86328125 544.580078125 254.509765625 544.580078125 c 0
 306.657226562 544.580078125 346.154296875 528.833007812 369.296875 495.921875 c 0
 392.201171875 463.350585938 396.702148438 419.797851562 384.715820312 367.87890625 c 2
 300.056640625 1.1787109375 l 1
 163.256835938 1.1787109375 l 1
 166.975585938 17.2880859375 l 1
 150.916992188 6.21484375 128.801757812 -6.4208984375 90.251953125 -6.4208984375 c 0
 44.66796875 -6.4208984375 10.7421875 9.00390625 -6.8154296875 41.033203125 c 0
 -23.958984375 72.3076171875 -25.3076171875 114.385742188 -13.5009765625 165.529296875 c 0
 -1.873046875 215.89453125 23.4599609375 257.578125 62.96484375 287.016601562 c 0
 102.3984375 316.400390625 151.01171875 329.87890625 206.841796875 329.87890625 c 2
 231.541992188 329.87890625 l 1
 242.2890625 376.428710938 l 2
 250.329101562 411.251953125 233.484375 413.479492188 221.392578125 413.479492188 c 0
152.598632812 123.727539062 m 0
 171.798828125 123.727539062 187.881835938 140.765625 194.256835938 168.37890625 c 2
 205.880859375 218.728515625 l 1
 194.481445312 218.728515625 l 2
 174.778320312 218.728515625 161.274414062 214.172851562 152.286132812 207.69140625 c 0
 144.626953125 202.169921875 136.821289062 191.18359375 131.995117188 170.278320312 c 0
 127.649414062 151.453125 128.830078125 139.5859375 132.264648438 133.15234375 c 0
 135.504882812 127.083007812 140.782226562 123.727539062 152.598632812 123.727539062 c 0
247.616210938 730.779296875 m 1
 344.428710938 730.779296875 l 1
 425.723632812 555.978515625 l 1
 301.440429688 555.978515625 l 1
 271.668945312 619.439453125 l 1
 211.801757812 555.978515625 l 1
 87.970703125 555.978515625 l 1
 247.616210938 730.779296875 l 1
EndSplineSet
EndChar

StartChar: atilde
Encoding: 227 227 164
Width: 408
GlyphClass: 2
Flags: MW
HStem: -6.4209 130.148<67.46 162.199> 218.729 111.15<184.63 231.542 194.481 231.542> 413.479 131.101<214.958 280.583> 533.753 21G<127.561 127.561> 564.529 119.699<319.488 321.598> 597.779 119.699<213.244 274.528>
VStem: 32.6885 144.399 239.788 144.4
LayerCount: 2
Fore
SplineSet
221.392578125 413.479492188 m 0xe3
 208.5234375 413.479492188 191.619140625 407.965820312 185.434570312 381.1796875 c 2
 179.732421875 356.479492188 l 1
 43.8828125 356.479492188 l 1
 48.7080078125 377.379882812 l 2
 60.8388671875 429.922851562 85.8037109375 472.747070312 124.9140625 502.134765625 c 0
 162.930664062 530.701171875 206.86328125 544.580078125 254.509765625 544.580078125 c 0
 306.657226562 544.580078125 346.154296875 528.833007812 369.296875 495.921875 c 0
 392.201171875 463.350585938 396.702148438 419.797851562 384.715820312 367.87890625 c 2
 300.056640625 1.1787109375 l 1
 163.256835938 1.1787109375 l 1
 166.975585938 17.2880859375 l 1
 150.916992188 6.21484375 128.801757812 -6.4208984375 90.251953125 -6.4208984375 c 0
 44.66796875 -6.4208984375 10.7421875 9.00390625 -6.8154296875 41.033203125 c 0
 -23.958984375 72.3076171875 -25.3076171875 114.385742188 -13.5009765625 165.529296875 c 0
 -1.873046875 215.89453125 23.4599609375 257.578125 62.96484375 287.016601562 c 0
 102.3984375 316.400390625 151.01171875 329.87890625 206.841796875 329.87890625 c 2
 231.541992188 329.87890625 l 1
 242.2890625 376.428710938 l 2
 250.329101562 411.251953125 233.484375 413.479492188 221.392578125 413.479492188 c 0xe3
152.598632812 123.727539062 m 0
 171.798828125 123.727539062 187.881835938 140.765625 194.256835938 168.37890625 c 2
 205.880859375 218.728515625 l 1
 194.481445312 218.728515625 l 2
 174.778320312 218.728515625 161.274414062 214.172851562 152.286132812 207.69140625 c 0
 144.626953125 202.169921875 136.821289062 191.18359375 131.995117188 170.278320312 c 0
 127.649414062 151.453125 128.830078125 139.5859375 132.264648438 133.15234375 c 0
 135.504882812 127.083007812 140.782226562 123.727539062 152.598632812 123.727539062 c 0
249.778320312 717.478515625 m 0xd7
 299.27734375 717.478515625 303.7734375 684.228515625 335.203125 684.228515625 c 0
 342.642578125 684.228515625 347.942382812 685.885742188 352.198242188 688.392578125 c 0
 357.709960938 691.638671875 370.545898438 701.208984375 388.141601562 716.005859375 c 2
 424.682617188 746.734375 l 1
 393.16015625 610.196289062 l 1
 359.3125 580.391601562 339.428710938 564.529296875 303.766601562 564.529296875 c 0xcb
 282.822265625 564.529296875 272.481445312 568.260742188 248.55078125 584.91015625 c 0
 229.311523438 597.564453125 227.086914062 597.779296875 218.341796875 597.779296875 c 0
 208.145507812 597.779296875 200.017578125 597.081054688 164.803710938 566.303710938 c 2
 127.560546875 533.752929688 l 1
 159.7109375 673.013671875 l 1
 191.96484375 700.272460938 213.568359375 717.478515625 249.778320312 717.478515625 c 0xd7
EndSplineSet
EndChar

StartChar: adieresis
Encoding: 228 228 165
Width: 408
GlyphClass: 2
Flags: MW
HStem: -6.4209 130.148<67.46 162.199> 218.729 111.15<184.63 231.542 194.481 231.542> 413.479 131.101<214.958 280.583> 562.629 142.5<155.726 245.377 122.826 278.276 271.026 271.026 271.026 278.276 303.926 393.576>
VStem: 32.6885 144.399 77.3379 122.551 225.538 122.55 239.788 144.4
LayerCount: 2
Fore
SplineSet
221.392578125 413.479492188 m 0xf9
 208.5234375 413.479492188 191.619140625 407.965820312 185.434570312 381.1796875 c 2
 179.732421875 356.479492188 l 1
 43.8828125 356.479492188 l 1
 48.7080078125 377.379882812 l 2
 60.8388671875 429.922851562 85.8037109375 472.747070312 124.9140625 502.134765625 c 0
 162.930664062 530.701171875 206.86328125 544.580078125 254.509765625 544.580078125 c 0
 306.657226562 544.580078125 346.154296875 528.833007812 369.296875 495.921875 c 0
 392.201171875 463.350585938 396.702148438 419.797851562 384.715820312 367.87890625 c 2
 300.056640625 1.1787109375 l 1
 163.256835938 1.1787109375 l 1
 166.975585938 17.2880859375 l 1
 150.916992188 6.21484375 128.801757812 -6.4208984375 90.251953125 -6.4208984375 c 0
 44.66796875 -6.4208984375 10.7421875 9.00390625 -6.8154296875 41.033203125 c 0
 -23.958984375 72.3076171875 -25.3076171875 114.385742188 -13.5009765625 165.529296875 c 0
 -1.873046875 215.89453125 23.4599609375 257.578125 62.96484375 287.016601562 c 0
 102.3984375 316.400390625 151.01171875 329.87890625 206.841796875 329.87890625 c 2
 231.541992188 329.87890625 l 1
 242.2890625 376.428710938 l 2
 250.329101562 411.251953125 233.484375 413.479492188 221.392578125 413.479492188 c 0xf9
152.598632812 123.727539062 m 0
 171.798828125 123.727539062 187.881835938 140.765625 194.256835938 168.37890625 c 2
 205.880859375 218.728515625 l 1
 194.481445312 218.728515625 l 2
 174.778320312 218.728515625 161.274414062 214.172851562 152.286132812 207.69140625 c 0
 144.626953125 202.169921875 136.821289062 191.18359375 131.995117188 170.278320312 c 0
 127.649414062 151.453125 128.830078125 139.5859375 132.264648438 133.15234375 c 0
 135.504882812 127.083007812 140.782226562 123.727539062 152.598632812 123.727539062 c 0
155.725585938 705.12890625 m 1xf4
 278.276367188 705.12890625 l 1
 245.376953125 562.62890625 l 1
 122.826171875 562.62890625 l 1
 155.725585938 705.12890625 l 1xf4
303.92578125 705.12890625 m 1xf2
 426.475585938 705.12890625 l 1
 393.576171875 562.62890625 l 1
 271.026367188 562.62890625 l 1
 303.92578125 705.12890625 l 1xf2
EndSplineSet
EndChar

StartChar: aring
Encoding: 229 229 166
Width: 408
GlyphClass: 2
Flags: MW
HStem: -6.4209 130.148<67.46 162.199> 218.729 111.15<184.63 231.542 194.481 231.542> 511.329 33.251<230.687 277.032> 644.33 80.749<268.519 281.505>
VStem: 32.6885 144.399 106.788 80.751 237.89 81.6982 239.788 144.4
LayerCount: 2
Fore
SplineSet
221.392578125 413.479492188 m 0xf9
 208.5234375 413.479492188 191.619140625 407.965820312 185.434570312 381.1796875 c 2
 179.732421875 356.479492188 l 1
 43.8828125 356.479492188 l 1
 48.7080078125 377.379882812 l 2
 60.8388671875 429.922851562 85.8037109375 472.747070312 124.9140625 502.134765625 c 0
 162.930664062 530.701171875 206.86328125 544.580078125 254.509765625 544.580078125 c 0
 306.657226562 544.580078125 346.154296875 528.833007812 369.296875 495.921875 c 0
 392.201171875 463.350585938 396.702148438 419.797851562 384.715820312 367.87890625 c 2
 300.056640625 1.1787109375 l 1
 163.256835938 1.1787109375 l 1
 166.975585938 17.2880859375 l 1
 150.916992188 6.21484375 128.801757812 -6.4208984375 90.251953125 -6.4208984375 c 0
 44.66796875 -6.4208984375 10.7421875 9.00390625 -6.8154296875 41.033203125 c 0
 -23.958984375 72.3076171875 -25.3076171875 114.385742188 -13.5009765625 165.529296875 c 0
 -1.873046875 215.89453125 23.4599609375 257.578125 62.96484375 287.016601562 c 0
 102.3984375 316.400390625 151.01171875 329.87890625 206.841796875 329.87890625 c 2
 231.541992188 329.87890625 l 1
 242.2890625 376.428710938 l 2
 250.329101562 411.251953125 233.484375 413.479492188 221.392578125 413.479492188 c 0xf9
152.598632812 123.727539062 m 0
 171.798828125 123.727539062 187.881835938 140.765625 194.256835938 168.37890625 c 2
 205.880859375 218.728515625 l 1
 194.481445312 218.728515625 l 2
 174.778320312 218.728515625 161.274414062 214.172851562 152.286132812 207.69140625 c 0
 144.626953125 202.169921875 136.821289062 191.18359375 131.995117188 170.278320312 c 0
 127.649414062 151.453125 128.830078125 139.5859375 132.264648438 133.15234375 c 0
 135.504882812 127.083007812 140.782226562 123.727539062 152.598632812 123.727539062 c 0
246.833984375 511.329101562 m 0
 186.43359375 511.329101562 151.053710938 557.333007812 164.997070312 617.728515625 c 0
 179.41015625 680.15625 236.565429688 725.079101562 296.181640625 725.079101562 c 0
 355.796875 725.079101562 392.209960938 680.157226562 377.796875 617.728515625 c 0xf6
 363.853515625 557.329101562 307.229492188 511.329101562 246.833984375 511.329101562 c 0
277.540039062 644.330078125 m 0
 259.497070312 644.330078125 249.013671875 631.872070312 245.749023438 617.729492188 c 0
 243.876953125 609.620117188 244.88671875 604.212890625 248.567382812 599.176757812 c 0
 251.98828125 594.4921875 256.661132812 592.079101562 265.4765625 592.079101562 c 0
 273.407226562 592.079101562 278.899414062 594.299804688 284.713867188 599.176757812 c 0
 290.723632812 604.21875 294.228515625 609.626953125 296.099609375 617.729492188 c 0
 298.171875 626.708007812 297.047851562 632.377929688 293.5 637.232421875 c 0
 289.9375 642.108398438 285.470703125 644.330078125 277.540039062 644.330078125 c 0
EndSplineSet
EndChar

